STARTFONT 2.1
FONT -FontForge-Good Times Rg-Book-R-Normal--111-1070-75-75-P-825-ISO10646-1
SIZE 107 75 75
FONTBOUNDINGBOX 221 130 -31 -22
COMMENT "Generated by fontforge, http://fontforge.sourceforge.net"
COMMENT "(c) 1998-2012 Typodermic Fonts Inc. See attached license agreement. If agreement is missing visit typodermicfonts.com for more info. Languages by Chikako Larabie"
STARTPROPERTIES 39
FOUNDRY "FontForge"
FAMILY_NAME "Good Times Rg"
WEIGHT_NAME "Book"
SLANT "R"
SETWIDTH_NAME "Normal"
ADD_STYLE_NAME ""
PIXEL_SIZE 111
POINT_SIZE 1070
RESOLUTION_X 75
RESOLUTION_Y 75
SPACING "P"
AVERAGE_WIDTH 825
CHARSET_REGISTRY "ISO10646"
CHARSET_ENCODING "1"
FONTNAME_REGISTRY ""
CHARSET_COLLECTIONS "ISO8859-2 ISO8859-9 ISO8859-4 ISO10646-1"
FONT_NAME "GoodTimesRg-Regular"
FACE_NAME "GoodTimesRg-Regular"
COPYRIGHT "(c) 1998-2012 Typodermic Fonts Inc. See attached license agreement. If agreement is missing visit typodermicfonts.com for more info. Languages by Chikako Larabie"
FONT_VERSION "4.001"
FONT_ASCENT 89
FONT_DESCENT 22
UNDERLINE_POSITION -16
UNDERLINE_THICKNESS 3
X_HEIGHT 80
CAP_HEIGHT 80
RAW_ASCENT 799
RAW_DESCENT 201
NORM_SPACE 33
RELATIVE_WEIGHT 40
RELATIVE_SETWIDTH 50
SUPERSCRIPT_X 0
SUPERSCRIPT_Y 33
SUPERSCRIPT_SIZE 33
SUBSCRIPT_X 0
SUBSCRIPT_Y 0
SUBSCRIPT_SIZE 33
AVG_LOWERCASE_WIDTH 946
AVG_UPPERCASE_WIDTH 942
ENDPROPERTIES
CHARS 372
STARTCHAR space
ENCODING 32
SWIDTH 294 0
DWIDTH 33 0
BBX 1 1 0 0
BITMAP
00
ENDCHAR
STARTCHAR exclam
ENCODING 33
SWIDTH 298 0
DWIDTH 33 0
BBX 15 81 9 0
BITMAP
7FFC
7FFC
7FFC
7FFC
7FFC
7FFC
7FFC
7FFC
7FFC
7FFC
7FFC
7FFC
7FFC
7FFC
7FFC
7FFC
7FFC
7FFC
7FFC
7FFC
7FFC
7FFC
7FFC
7FFC
7FFC
7FFC
7FFC
7FFC
7FFC
7FFC
7FFC
7FFC
7FFC
7FFC
7FFC
7FFC
7FFC
7FFC
7FFC
7FFC
7FFC
7FFC
7FFC
7FFC
7FFC
7FFC
7FFC
7FFC
7FFC
7FFC
7FFC
7FFC
7FFC
7FFC
7FFC
0000
0000
0000
0000
0000
0000
0000
0000
0000
0000
0000
07E0
1FF8
3FFC
7FFC
7FFE
FFFE
FFFE
FFFE
FFFE
FFFE
7FFE
7FFC
3FFC
1FF8
07E0
ENDCHAR
STARTCHAR quotedbl
ENCODING 34
SWIDTH 452 0
DWIDTH 50 0
BBX 35 29 8 52
BITMAP
FFFC0FFFE0
FFFC0FFFE0
FFFC07FFC0
FFFC07FFC0
FFF807FFC0
FFF807FFC0
FFF807FFC0
FFF807FFC0
FFF807FFC0
FFF807FFC0
FFF807FFC0
7FF807FFC0
7FF807FFC0
7FF803FF80
7FF803FF80
7FF803FF80
7FF003FF80
7FF003FF80
7FF003FF80
7FF003FF80
7FF003FF80
7FF003FF80
3FF003FF80
3FF003FF80
3FF001FF00
3FF001FF00
3FF001FF00
3FE001FF00
3FE001FF00
ENDCHAR
STARTCHAR numbersign
ENCODING 35
SWIDTH 697 0
DWIDTH 77 0
BBX 68 81 5 0
BITMAP
0000001FFC0003FF00
0000001FF80003FF00
0000001FF80007FE00
0000001FF80007FE00
0000003FF00007FE00
0000003FF00007FE00
0000003FF0000FFC00
0000007FF0000FFC00
0000007FE0000FFC00
0000007FE0001FF800
0000007FE0001FF800
000000FFC0001FF800
000000FFC0003FF000
000000FFC0003FF000
000001FF80003FF000
000001FF80003FF000
000001FF80007FE000
000003FF80007FE000
000003FF00007FE000
000003FF0000FFC000
000003FF0000FFC000
00FFFFFFFFFFFFFFF0
00FFFFFFFFFFFFFFF0
00FFFFFFFFFFFFFFF0
00FFFFFFFFFFFFFFF0
00FFFFFFFFFFFFFFF0
00FFFFFFFFFFFFFFF0
00FFFFFFFFFFFFFFF0
00FFFFFFFFFFFFFFF0
00FFFFFFFFFFFFFFF0
00003FF00007FE0000
00003FF00007FE0000
00003FF0000FFC0000
00003FF0000FFC0000
00007FE0000FFC0000
00007FE0001FF80000
00007FE0001FF80000
0000FFC0001FF80000
0000FFC0001FF80000
0000FFC0003FF00000
0001FFC0003FF00000
0001FF80003FF00000
0001FF80007FE00000
0001FF80007FE00000
0003FF00007FE00000
0003FF00007FE00000
0003FF0000FFC00000
0007FE0000FFC00000
0007FE0000FFC00000
0007FE0001FF800000
FFFFFFFFFFFFFFE000
FFFFFFFFFFFFFFE000
FFFFFFFFFFFFFFE000
FFFFFFFFFFFFFFE000
FFFFFFFFFFFFFFE000
FFFFFFFFFFFFFFE000
FFFFFFFFFFFFFFE000
FFFFFFFFFFFFFFE000
FFFFFFFFFFFFFFE000
003FF0000FFC000000
007FE0000FFC000000
007FE0000FFC000000
007FE0001FF8000000
007FE0001FF8000000
00FFC0001FF8000000
00FFC0003FF0000000
00FFC0003FF0000000
01FF80003FF0000000
01FF80003FF0000000
01FF80007FE0000000
03FF00007FE0000000
03FF00007FE0000000
03FF0000FFC0000000
03FF0000FFC0000000
07FE0000FFC0000000
07FE0001FF80000000
07FE0001FF80000000
0FFC0001FF80000000
0FFC0001FF80000000
0FFC0003FF00000000
1FF80003FF00000000
ENDCHAR
STARTCHAR dollar
ENCODING 36
SWIDTH 744 0
DWIDTH 83 0
BBX 70 81 6 0
BITMAP
000000007E00000000
000000007E00000000
000000007E00000000
000000007E00000000
000000007E00000000
000000007E00000000
000000007E00000000
000000007E00000000
0001FFFFFFFFFFFFE0
001FFFFFFFFFFFFFE0
007FFFFFFFFFFFFFE0
01FFFFFFFFFFFFFFE0
03FFFFFFFFFFFFFFE0
07FFFFFFFFFFFFFFE0
0FFFFFFFFFFFFFFFE0
1FFFFFFFFFFFFFFFE0
1FFFFFFFFFFFFFFFE0
3FFFFFFFFFFFFFFFE0
3FFFFFFFFFFFFFFFE0
7FFF80007E00000000
7FFE00007E00000000
7FFC00007E00000000
7FF800007E00000000
FFF800007E00000000
FFF000007E00000000
FFF000007E00000000
FFF000007E00000000
FFF000007E00000000
FFF000007E00000000
7FF000007E00000000
7FF800007E00000000
7FF800007E00000000
7FFC00007E00000000
3FFE00007E00000000
3FFF80007E00000000
1FFFFFFFFFFFFF0000
0FFFFFFFFFFFFFF000
0FFFFFFFFFFFFFFC00
07FFFFFFFFFFFFFF00
03FFFFFFFFFFFFFF80
00FFFFFFFFFFFFFFC0
007FFFFFFFFFFFFFE0
001FFFFFFFFFFFFFE0
0001FFFFFFFFFFFFF0
000000007E0003FFF0
000000007E0000FFF8
000000007E00007FF8
000000007E00003FF8
000000007E00001FFC
000000007E00001FFC
000000007E00001FFC
000000007E00001FFC
000000007E00001FFC
000000007E00001FFC
000000007E00001FFC
000000007E00001FFC
000000007E00003FFC
000000007E00003FFC
000000007E00007FFC
000000007E0000FFF8
000000007E0003FFF8
7FFFFFFFFFFFFFFFF8
7FFFFFFFFFFFFFFFF0
7FFFFFFFFFFFFFFFF0
7FFFFFFFFFFFFFFFE0
7FFFFFFFFFFFFFFFE0
7FFFFFFFFFFFFFFFC0
7FFFFFFFFFFFFFFF80
7FFFFFFFFFFFFFFF00
7FFFFFFFFFFFFFFE00
7FFFFFFFFFFFFFF800
7FFFFFFFFFFFFFE000
7FFFFFFFFFFFFE0000
000000007E00000000
000000007E00000000
000000007E00000000
000000007E00000000
000000007E00000000
000000007E00000000
000000007E00000000
000000007E00000000
ENDCHAR
STARTCHAR percent
ENCODING 37
SWIDTH 965 0
DWIDTH 107 0
BBX 97 94 5 -7
BITMAP
00000000000000000001FF0000
00000000000000000003FE0000
00000000000000000007FE0000
0000000000000000000FFC0000
0000000000000000000FF80000
0000FF8000000000001FF00000
000FFFF800000000003FE00000
003FFFFE00000000007FE00000
00FFFFFF8000000000FFC00000
01FFFFFFC000000000FF800000
03FFFFFFE000000001FF000000
07FFFFFFF000000003FF000000
0FFF007FF800000007FE000000
1FF8000FFC00000007FC000000
1FF00007FE0000000FF8000000
3FE00003FE0000001FF0000000
7FC00001FF0000003FF0000000
7F800000FF0000007FE0000000
7F0000007F0000007FC0000000
FF0000007F800000FF80000000
FE0000003F800001FF80000000
FE0000003F800003FF00000000
FE0000003F800003FE00000000
FE0000003F800007FC00000000
FE0000003F80000FF800000000
FE0000003FC0001FF800000000
FE0000003F80003FF000000000
FE0000003F80003FE000000000
FE0000003F80007FC000000000
FE0000003F8000FFC000000000
FE0000003F8001FF8000000000
7F0000007F8003FF0000000000
7F0000007F0003FE0000000000
7F800000FF0007FC0000000000
3FC00001FE000FFC0000000000
3FE00003FE001FF80000000000
1FF00007FC001FF00000000000
0FF8000FFC003FE00000000000
0FFF007FF8007FE00000000000
07FFFFFFF000FFC00000000000
03FFFFFFE001FF800000000000
01FFFFFFC001FF000000000000
007FFFFF0003FE000000000000
003FFFFE0007FE000000000000
0007FFF0000FFC000000000000
0000FF80000FF8000000000000
00000000001FF0000000000000
00000000003FF0000000000000
00000000007FE00000FF800000
0000000000FFC0000FFFF80000
0000000000FF80003FFFFE0000
0000000001FF0000FFFFFF8000
0000000003FF0001FFFFFFC000
0000000007FE0003FFFFFFE000
0000000007FC0007FFFFFFF000
000000000FF8000FFF007FF800
000000001FF8001FF8000FFC00
000000003FF0001FF00007FE00
000000007FE0003FE00003FE00
000000007FC0007FC00001FF00
00000000FF80007F800000FF00
00000001FF80007F0000007F00
00000003FF0000FF0000007F80
00000003FE0000FE0000003F80
00000007FC0000FE0000003F80
0000000FFC0000FE0000003F80
0000001FF80000FE0000003F80
0000003FF00000FE0000003F80
0000003FE00000FE0000003F80
0000007FC00000FE0000003F80
000000FFC00000FE0000003F80
000001FF800000FE0000003F80
000001FF000000FE0000003F80
000003FE000000FE0000003F80
000007FE0000007F0000007F80
00000FFC0000007F0000007F00
00001FF80000007F800000FF00
00001FF00000003FC00001FE00
00003FE00000003FE00003FE00
00007FE00000001FF00007FC00
0000FFC00000000FF8000FF800
0001FF800000000FFF007FF800
0001FF0000000007FFFFFFF000
0003FF0000000003FFFFFFE000
0007FE0000000001FFFFFFC000
000FFC00000000007FFFFF0000
000FF800000000003FFFFE0000
001FF000000000000FFFF00000
003FF0000000000000FF800000
007FE000000000000000000000
00FFC000000000000000000000
00FF8000000000000000000000
01FF8000000000000000000000
03FF0000000000000000000000
ENDCHAR
STARTCHAR ampersand
ENCODING 38
SWIDTH 759 0
DWIDTH 84 0
BBX 76 81 5 0
BITMAP
000007FFFFE000000000
00007FFFFFE000000000
0003FFFFFFE000000000
000FFFFFFFE000000000
003FFFFFFFE000000000
007FFFFFFFE000000000
00FFFFFFFFE000000000
01FFFFFFFFE000000000
03FFFFFFFFE000000000
07FFFFFFFFE000000000
07FFFFFFFFE000000000
0FFFFFFFFFE000000000
0FFFFFFFFFE000000000
1FFFFFFFFFE000000000
1FFFFF00000000000000
1FFFF800000000000000
3FFFE000000000000000
3FFFC000000000000000
3FFFC000000000000000
3FFF8000000000000000
3FFF8000000000000000
3FFF0000000000000000
3FFF0000000000000000
3FFF0000000000000000
3FFF0000000000000000
3FFF0000000000000000
3FFF0000000000000000
1FFF8000000000000000
1FFF8000000000000000
1FFF8000000000000000
0FFFC000000000000000
0FFFE000000000000000
07FFF800000000000000
03FFFE00000000000000
01FFFFFFFFFFFFFFFE00
00FFFFFFFFFFFFFFFE00
007FFFFFFFFFFFFFFE00
001FFFFFFFFFFFFFFE00
0007FFFFFFFFFFFFFE00
003FFFFFFFFFFFFFFE00
007FFFFFFFFFFFFFFE00
01FFFFFFFFFFFFFFFE00
03FFFFFFFFFFFFFFFE00
07FFFFFFFFFFFFFFFE00
0FFFFFFFFFFFFFFFFE00
0FFFFFFFFFFFFFFFFE00
1FFFFE000001FFF80000
3FFFF0000001FFF80000
3FFFC0000001FFF80000
3FFF80000001FFF80000
7FFF00000001FFF80000
7FFF00000001FFF80000
7FFE00000001FFF80000
7FFE00000001FFF80000
FFFE00000001FFF80000
FFFE00000001FFF80000
FFFE00000001FFF80000
FFFE00000001FFF80000
FFFE00000001FFF80000
7FFE00000001FFF80000
7FFE00000001FFF80000
7FFF00000001FFF80000
7FFF80000001FFF80000
7FFFC0000001FFF80000
3FFFE0000001FFF80000
3FFFF8000001FFF80000
3FFFFF000001FFF80000
1FFFFFFFFFFFFFFFFFF0
1FFFFFFFFFFFFFFFFFF0
0FFFFFFFFFFFFFFFFFF0
0FFFFFFFFFFFFFFFFFF0
07FFFFFFFFFFFFFFFFF0
03FFFFFFFFFFFFFFFFF0
01FFFFFFFFFFFFFFFFF0
00FFFFFFFFFFFFFFFFF0
007FFFFFFFFFFFFFFFF0
003FFFFFFFFFFFFFFFF0
000FFFFFFFFFFFFFFFF0
0003FFFFFFFFFFFFFFF0
0000FFFFFFFFFFFFFFF0
00000FFFFFFFFFFFFFF0
ENDCHAR
STARTCHAR quotesingle
ENCODING 39
SWIDTH 255 0
DWIDTH 28 0
BBX 14 29 7 52
BITMAP
FFFC
FFFC
FFFC
FFFC
FFFC
7FFC
7FFC
7FFC
7FFC
7FF8
7FF8
7FF8
7FF8
7FF8
7FF8
7FF8
3FF8
3FF8
3FF8
3FF8
3FF0
3FF0
3FF0
3FF0
3FF0
3FF0
3FF0
1FF0
1FF0
ENDCHAR
STARTCHAR parenleft
ENCODING 40
SWIDTH 356 0
DWIDTH 40 0
BBX 23 102 10 -10
BITMAP
000FFC
000FFC
001FF8
001FF8
003FF0
003FF0
003FF0
007FE0
007FE0
00FFC0
00FFC0
00FFC0
01FF80
01FF80
01FF80
03FF00
03FF00
03FF00
07FE00
07FE00
07FE00
0FFC00
0FFC00
0FFC00
0FF800
1FF800
1FF800
1FF800
1FF000
1FF000
3FF000
3FF000
3FE000
3FE000
3FE000
3FE000
7FE000
7FC000
7FC000
7FC000
7FC000
7FC000
7FC000
7FC000
7FC000
7FC000
FFC000
FF8000
FF8000
FF8000
FF8000
FF8000
FF8000
FF8000
FF8000
7FC000
7FC000
7FC000
7FC000
7FC000
7FC000
7FC000
7FC000
7FC000
7FC000
7FE000
3FE000
3FE000
3FE000
3FE000
3FE000
3FF000
1FF000
1FF000
1FF000
1FF800
1FF800
0FF800
0FF800
0FFC00
07FC00
07FC00
07FE00
07FE00
03FE00
03FF00
03FF00
01FF00
01FF80
01FF80
00FF80
00FFC0
00FFC0
007FE0
007FE0
003FF0
003FF0
001FF0
001FF8
001FF8
000FFC
000FFE
ENDCHAR
STARTCHAR parenright
ENCODING 41
SWIDTH 355 0
DWIDTH 39 0
BBX 22 102 7 -10
BITMAP
FFC000
7FE000
7FE000
3FF000
3FF000
1FF000
1FF800
1FF800
0FFC00
0FFC00
0FFC00
07FE00
07FE00
03FE00
03FF00
03FF00
01FF00
01FF80
01FF80
00FF80
00FFC0
00FFC0
007FC0
007FC0
007FE0
007FE0
003FE0
003FE0
003FF0
003FF0
001FF0
001FF0
001FF0
001FF8
001FF8
000FF8
000FF8
000FF8
000FF8
000FF8
000FFC
000FFC
0007FC
0007FC
0007FC
0007FC
0007FC
0007FC
0007FC
0007FC
0007FC
0007FC
0007FC
0007FC
0007FC
0007FC
0007FC
0007FC
0007FC
0007FC
000FFC
000FFC
000FF8
000FF8
000FF8
000FF8
000FF8
001FF8
001FF8
001FF0
001FF0
001FF0
003FF0
003FF0
003FE0
003FE0
003FE0
007FE0
007FE0
007FC0
00FFC0
00FFC0
00FF80
01FF80
01FF80
01FF00
03FF00
03FF00
03FE00
07FE00
07FE00
07FC00
0FFC00
0FFC00
1FF800
1FF800
3FF000
3FF000
3FF000
7FE000
7FE000
FFC000
ENDCHAR
STARTCHAR asterisk
ENCODING 42
SWIDTH 469 0
DWIDTH 52 0
BBX 38 37 7 44
BITMAP
0000FC0000
0000FC0000
0000FC0000
0000FC0000
0000FC0000
0000FC0000
0000FC0000
0000FC0000
0000FC0000
0000FC0000
3000FC0010
3E00FC01F8
7FC0FC0FF8
7FF8FC7FF8
7FFFFFFFF8
FFFFFFFFFC
7FFFFFFFF8
0FFFFFFFC0
01FFFFFE00
003FFFF000
0003FF0000
0007FF8000
000FFFC000
000FFFC000
001FFFE000
003FCFF000
007FCFF800
007F87F800
00FF03FC00
01FE01FE00
01FE01FE00
03FC00FF00
07F8007F80
03F8007F00
00F0003C00
0060001800
0020001000
ENDCHAR
STARTCHAR plus
ENCODING 43
SWIDTH 690 0
DWIDTH 77 0
BBX 63 63 7 10
BITMAP
0000001FF0000000
0000001FF0000000
0000001FF0000000
0000001FF0000000
0000001FF0000000
0000001FF0000000
0000001FF0000000
0000001FF0000000
0000001FF0000000
0000001FF0000000
0000001FF0000000
0000001FF0000000
0000001FF0000000
0000001FF0000000
0000001FF0000000
0000001FF0000000
0000001FF0000000
0000001FF0000000
0000001FF0000000
0000001FF0000000
0000001FF0000000
0000001FF0000000
0000001FF0000000
0000001FF0000000
0000001FF0000000
0000001FF0000000
0000001FF0000000
FFFFFFFFFFFFFFFE
FFFFFFFFFFFFFFFE
FFFFFFFFFFFFFFFE
FFFFFFFFFFFFFFFE
FFFFFFFFFFFFFFFE
FFFFFFFFFFFFFFFE
FFFFFFFFFFFFFFFE
FFFFFFFFFFFFFFFE
FFFFFFFFFFFFFFFE
0000001FF0000000
0000001FF0000000
0000001FF0000000
0000001FF0000000
0000001FF0000000
0000001FF0000000
0000001FF0000000
0000001FF0000000
0000001FF0000000
0000001FF0000000
0000001FF0000000
0000001FF0000000
0000001FF0000000
0000001FF0000000
0000001FF0000000
0000001FF0000000
0000001FF0000000
0000001FF0000000
0000001FF0000000
0000001FF0000000
0000001FF0000000
0000001FF0000000
0000001FF0000000
0000001FF0000000
0000001FF0000000
0000001FF0000000
0000001FF0000000
ENDCHAR
STARTCHAR comma
ENCODING 44
SWIDTH 259 0
DWIDTH 29 0
BBX 14 29 8 -13
BITMAP
FFFC
FFF8
FFF8
FFF8
FFF8
FFF8
FFF8
FFF0
FFF0
FFF0
FFF0
FFF0
FFE0
FFE0
FFE0
FFE0
FFE0
FFC0
FFC0
FFC0
FFC0
FFC0
FF80
FF80
FF80
FF80
FF80
FF80
FF00
ENDCHAR
STARTCHAR hyphen
ENCODING 45
SWIDTH 296 0
DWIDTH 33 0
BBX 27 9 3 36
BITMAP
FFFFFFE0
FFFFFFE0
FFFFFFE0
FFFFFFE0
FFFFFFE0
FFFFFFE0
FFFFFFE0
FFFFFFE0
FFFFFFE0
ENDCHAR
STARTCHAR period
ENCODING 46
SWIDTH 262 0
DWIDTH 29 0
BBX 15 15 7 0
BITMAP
07C0
1FF0
3FF8
7FFC
7FFE
FFFE
FFFE
FFFE
FFFE
FFFE
7FFE
7FFC
3FF8
1FF0
07C0
ENDCHAR
STARTCHAR slash
ENCODING 47
SWIDTH 444 0
DWIDTH 49 0
BBX 47 81 1 0
BITMAP
0000000003FE
0000000007FC
0000000007FC
000000000FFC
000000000FF8
000000001FF8
000000001FF0
000000003FF0
000000003FE0
000000003FE0
000000007FC0
000000007FC0
00000000FF80
00000000FF80
00000001FF00
00000001FF00
00000003FF00
00000003FE00
00000007FE00
00000007FC00
0000000FFC00
0000000FF800
0000001FF800
0000001FF000
0000003FF000
0000003FE000
0000003FE000
0000007FC000
0000007FC000
000000FFC000
000000FF8000
000001FF8000
000001FF0000
000003FF0000
000003FE0000
000007FE0000
000007FC0000
00000FFC0000
00000FF80000
00001FF80000
00001FF00000
00001FF00000
00003FF00000
00003FE00000
00007FE00000
00007FC00000
0000FFC00000
0000FF800000
0001FF800000
0001FF000000
0003FF000000
0003FE000000
0007FE000000
0007FC000000
000FFC000000
000FFC000000
001FF8000000
001FF8000000
001FF0000000
003FF0000000
003FE0000000
007FE0000000
007FC0000000
00FFC0000000
00FF80000000
01FF80000000
01FF00000000
03FF00000000
03FF00000000
07FE00000000
07FE00000000
0FFC00000000
0FFC00000000
0FF800000000
1FF800000000
1FF000000000
3FF000000000
3FE000000000
7FE000000000
7FC000000000
FFC000000000
ENDCHAR
STARTCHAR zero
ENCODING 48
SWIDTH 838 0
DWIDTH 93 0
BBX 83 81 5 0
BITMAP
000000003FFF8000000000
00000007FFFFFC00000000
0000003FFFFFFF80000000
000000FFFFFFFFE0000000
000007FFFFFFFFFC000000
00001FFFFFFFFFFE000000
00003FFFFFFFFFFF800000
0000FFFFFFFFFFFFE00000
0001FFFFFFFFFFFFF00000
0003FFFFFFFFFFFFF80000
000FFFFFFFFFFFFFFE0000
001FFFFFFFFFFFFFFF0000
003FFFFFFFFFFFFFFF8000
007FFFFFFFFFFFFFFFC000
007FFFFFF001FFFFFFC000
00FFFFFF00001FFFFFE000
01FFFFF8000003FFFFF000
03FFFFE0000000FFFFF800
03FFFF800000003FFFF800
07FFFE000000001FFFFC00
0FFFFC0000000007FFFE00
0FFFF80000000003FFFE00
1FFFF00000000001FFFF00
1FFFE00000000000FFFF00
1FFFC00000000000FFFF00
3FFFC000000000007FFF80
3FFF8000000000003FFF80
7FFF8000000000003FFFC0
7FFF0000000000001FFFC0
7FFF0000000000001FFFC0
7FFE0000000000000FFFC0
FFFE0000000000000FFFE0
FFFE0000000000000FFFE0
FFFC0000000000000FFFE0
FFFC00000000000007FFE0
FFFC00000000000007FFE0
FFFC00000000000007FFE0
FFFC00000000000007FFE0
FFFC00000000000007FFE0
FFFC00000000000007FFE0
FFFC00000000000007FFE0
FFFC00000000000007FFE0
FFFC00000000000007FFE0
FFFC00000000000007FFE0
FFFC00000000000007FFE0
FFFC00000000000007FFE0
FFFC00000000000007FFE0
FFFE0000000000000FFFE0
7FFE0000000000000FFFC0
7FFE0000000000000FFFC0
7FFE0000000000001FFFC0
7FFF0000000000001FFFC0
3FFF0000000000001FFF80
3FFF8000000000003FFF80
3FFF8000000000003FFF80
1FFFC000000000007FFF00
1FFFE00000000000FFFF00
0FFFE00000000001FFFE00
0FFFF00000000001FFFE00
07FFF80000000003FFFC00
07FFFC0000000007FFFC00
03FFFF000000001FFFF800
03FFFF800000003FFFF800
01FFFFE0000000FFFFF000
00FFFFF8000003FFFFE000
007FFFFF00001FFFFFC000
007FFFFFF001FFFFFFC000
003FFFFFFFFFFFFFFF8000
001FFFFFFFFFFFFFFF0000
000FFFFFFFFFFFFFFE0000
0007FFFFFFFFFFFFFC0000
0003FFFFFFFFFFFFF00000
0000FFFFFFFFFFFFE00000
00007FFFFFFFFFFFC00000
00001FFFFFFFFFFF000000
00000FFFFFFFFFFE000000
000003FFFFFFFFF8000000
000000FFFFFFFFE0000000
0000001FFFFFFF00000000
00000003FFFFF800000000
000000001FFF0000000000
ENDCHAR
STARTCHAR one
ENCODING 49
SWIDTH 385 0
DWIDTH 43 0
BBX 33 81 3 0
BITMAP
FFFC000000
FFFFC00000
FFFFF00000
FFFFFC0000
FFFFFE0000
FFFFFF8000
FFFFFFC000
FFFFFFE000
FFFFFFE000
FFFFFFF000
FFFFFFF800
FFFFFFF800
FFFFFFFC00
FFFFFFFC00
001FFFFE00
0003FFFE00
0001FFFE00
0000FFFF00
00007FFF00
00007FFF00
00003FFF00
00003FFF00
00003FFF80
00001FFF80
00001FFF80
00001FFF80
00001FFF80
00001FFF80
00001FFF80
00001FFF80
00001FFF80
00001FFF80
00001FFF80
00001FFF80
00001FFF80
00001FFF80
00001FFF80
00001FFF80
00001FFF80
00001FFF80
00001FFF80
00001FFF80
00001FFF80
00001FFF80
00001FFF80
00001FFF80
00001FFF80
00001FFF80
00001FFF80
00001FFF80
00001FFF80
00001FFF80
00001FFF80
00001FFF80
00001FFF80
00001FFF80
00001FFF80
00001FFF80
00001FFF80
00001FFF80
00001FFF80
00001FFF80
00001FFF80
00001FFF80
00001FFF80
00001FFF80
00001FFF80
00001FFF80
00001FFF80
00001FFF80
00001FFF80
00001FFF80
00001FFF80
00001FFF80
00001FFF80
00001FFF80
00001FFF80
00001FFF80
00001FFF80
00001FFF80
00001FFF80
ENDCHAR
STARTCHAR two
ENCODING 50
SWIDTH 825 0
DWIDTH 92 0
BBX 79 81 7 0
BITMAP
7FFFFFFFFFFFFFF00000
7FFFFFFFFFFFFFFF0000
7FFFFFFFFFFFFFFFC000
7FFFFFFFFFFFFFFFF000
7FFFFFFFFFFFFFFFFC00
7FFFFFFFFFFFFFFFFE00
7FFFFFFFFFFFFFFFFF00
7FFFFFFFFFFFFFFFFF80
7FFFFFFFFFFFFFFFFFC0
7FFFFFFFFFFFFFFFFFE0
7FFFFFFFFFFFFFFFFFF0
7FFFFFFFFFFFFFFFFFF0
7FFFFFFFFFFFFFFFFFF8
7FFFFFFFFFFFFFFFFFF8
000000000000007FFFF8
000000000000000FFFFC
0000000000000007FFFC
0000000000000003FFFC
0000000000000001FFFC
0000000000000001FFFE
0000000000000000FFFE
0000000000000000FFFE
0000000000000000FFFE
0000000000000000FFFE
0000000000000000FFFE
0000000000000000FFFE
0000000000000000FFFE
0000000000000000FFFC
0000000000000001FFFC
0000000000000001FFFC
0000000000000003FFFC
0000000000000007FFF8
000000000000000FFFF8
000000000000003FFFF0
00003FFFFFFFFFFFFFF0
0003FFFFFFFFFFFFFFE0
001FFFFFFFFFFFFFFFE0
007FFFFFFFFFFFFFFFC0
00FFFFFFFFFFFFFFFF80
01FFFFFFFFFFFFFFFF00
03FFFFFFFFFFFFFFFE00
07FFFFFFFFFFFFFFFC00
0FFFFFFFFFFFFFFFF000
1FFFFFFFFFFFFFFFC000
1FFFFFFFFFFFFFFF0000
3FFFFFFFFFFFFFF00000
3FFFF000000000000000
7FFFC000000000000000
7FFF0000000000000000
7FFE0000000000000000
7FFE0000000000000000
FFFC0000000000000000
FFFC0000000000000000
FFFC0000000000000000
FFF80000000000000000
FFF80000000000000000
FFF80000000000000000
FFF80000000000000000
FFF80000000000000000
FFF80000000000000000
FFF80000000000000000
FFF80000000000000000
FFF80000000000000000
FFF80000000000000000
FFF80000000000000000
FFF80000000000000000
FFF80000000000000000
FFFFFFFFFFFFFFFFFFF8
FFFFFFFFFFFFFFFFFFF8
FFFFFFFFFFFFFFFFFFF8
FFFFFFFFFFFFFFFFFFF8
FFFFFFFFFFFFFFFFFFF8
FFFFFFFFFFFFFFFFFFF8
FFFFFFFFFFFFFFFFFFF8
FFFFFFFFFFFFFFFFFFF8
FFFFFFFFFFFFFFFFFFF8
FFFFFFFFFFFFFFFFFFF8
FFFFFFFFFFFFFFFFFFF8
FFFFFFFFFFFFFFFFFFF8
FFFFFFFFFFFFFFFFFFF8
FFFFFFFFFFFFFFFFFFF8
ENDCHAR
STARTCHAR three
ENCODING 51
SWIDTH 827 0
DWIDTH 92 0
BBX 81 81 5 0
BITMAP
FFFFFFFFFFFFFFF8000000
FFFFFFFFFFFFFFFF800000
FFFFFFFFFFFFFFFFF00000
FFFFFFFFFFFFFFFFFC0000
FFFFFFFFFFFFFFFFFF0000
FFFFFFFFFFFFFFFFFF8000
FFFFFFFFFFFFFFFFFFC000
FFFFFFFFFFFFFFFFFFE000
FFFFFFFFFFFFFFFFFFF000
FFFFFFFFFFFFFFFFFFF800
FFFFFFFFFFFFFFFFFFF800
FFFFFFFFFFFFFFFFFFFC00
FFFFFFFFFFFFFFFFFFFC00
FFFFFFFFFFFFFFFFFFFE00
00000000000000FFFFFE00
000000000000000FFFFE00
0000000000000003FFFE00
0000000000000001FFFF00
0000000000000000FFFF00
00000000000000007FFF00
00000000000000007FFF00
00000000000000007FFF00
00000000000000007FFF00
00000000000000003FFF00
00000000000000003FFF00
00000000000000003FFE00
00000000000000007FFE00
00000000000000007FFE00
00000000000000007FFE00
00000000000000007FFC00
0000000000000000FFFC00
0000000000000001FFF800
0000000000000003FFF800
000000000000001FFFF000
00001FFFFFFFFFFFFFE000
00001FFFFFFFFFFFFFC000
00001FFFFFFFFFFFFF8000
00001FFFFFFFFFFFFE0000
00001FFFFFFFFFFFF80000
00001FFFFFFFFFFFFE0000
00001FFFFFFFFFFFFF8000
00001FFFFFFFFFFFFFE000
00001FFFFFFFFFFFFFF000
00001FFFFFFFFFFFFFF800
00001FFFFFFFFFFFFFFC00
00001FFFFFFFFFFFFFFC00
000000000000001FFFFE00
0000000000000003FFFE00
0000000000000000FFFF00
00000000000000007FFF00
00000000000000003FFF80
00000000000000003FFF80
00000000000000003FFF80
00000000000000001FFF80
00000000000000001FFF80
00000000000000001FFF80
00000000000000001FFF80
00000000000000001FFF80
00000000000000001FFF80
00000000000000001FFF80
00000000000000003FFF80
00000000000000003FFF80
00000000000000007FFF80
0000000000000000FFFF80
0000000000000003FFFF00
000000000000000FFFFF00
000000000000007FFFFF00
FFFFFFFFFFFFFFFFFFFE00
FFFFFFFFFFFFFFFFFFFE00
FFFFFFFFFFFFFFFFFFFC00
FFFFFFFFFFFFFFFFFFFC00
FFFFFFFFFFFFFFFFFFF800
FFFFFFFFFFFFFFFFFFF000
FFFFFFFFFFFFFFFFFFE000
FFFFFFFFFFFFFFFFFFC000
FFFFFFFFFFFFFFFFFF8000
FFFFFFFFFFFFFFFFFE0000
FFFFFFFFFFFFFFFFFC0000
FFFFFFFFFFFFFFFFF00000
FFFFFFFFFFFFFFFF800000
FFFFFFFFFFFFFFF8000000
ENDCHAR
STARTCHAR four
ENCODING 52
SWIDTH 845 0
DWIDTH 94 0
BBX 86 81 5 0
BITMAP
FFFC00000000000FFFC000
FFFC00000000000FFFC000
FFFC00000000000FFFC000
FFFC00000000000FFFC000
FFFC00000000000FFFC000
FFFC00000000000FFFC000
FFFC00000000000FFFC000
FFFC00000000000FFFC000
FFFC00000000000FFFC000
FFFC00000000000FFFC000
FFFC00000000000FFFC000
FFFC00000000000FFFC000
FFFC00000000000FFFC000
FFFC00000000000FFFC000
FFFC00000000000FFFC000
FFFC00000000000FFFC000
FFFC00000000000FFFC000
FFFC00000000000FFFC000
FFFC00000000000FFFC000
FFFC00000000000FFFC000
FFFC00000000000FFFC000
FFFC00000000000FFFC000
FFFC00000000000FFFC000
FFFC00000000000FFFC000
FFFC00000000000FFFC000
FFFC00000000000FFFC000
FFFC00000000000FFFC000
FFFC00000000000FFFC000
FFFC00000000000FFFC000
FFFC00000000000FFFC000
FFFC00000000000FFFC000
FFFC00000000000FFFC000
FFFC00000000000FFFC000
FFFC00000000000FFFC000
FFFC00000000000FFFC000
FFFC00000000000FFFC000
FFFE00000000000FFFC000
FFFE00000000000FFFC000
7FFE00000000000FFFC000
7FFE00000000000FFFC000
7FFF00000000000FFFC000
7FFF00000000000FFFC000
7FFF80000000000FFFC000
7FFFC0000000000FFFC000
3FFFE0000000000FFFC000
3FFFFC000000000FFFC000
3FFFFFFFFFFFFFFFFFFFFC
1FFFFFFFFFFFFFFFFFFFFC
1FFFFFFFFFFFFFFFFFFFFC
0FFFFFFFFFFFFFFFFFFFFC
0FFFFFFFFFFFFFFFFFFFFC
07FFFFFFFFFFFFFFFFFFFC
03FFFFFFFFFFFFFFFFFFFC
01FFFFFFFFFFFFFFFFFFFC
00FFFFFFFFFFFFFFFFFFFC
007FFFFFFFFFFFFFFFFFFC
001FFFFFFFFFFFFFFFFFFC
0007FFFFFFFFFFFFFFFFFC
0001FFFFFFFFFFFFFFFFFC
00001FFFFFFFFFFFFFFFFC
000000000000000FFFC000
000000000000000FFFC000
000000000000000FFFC000
000000000000000FFFC000
000000000000000FFFC000
000000000000000FFFC000
000000000000000FFFC000
000000000000000FFFC000
000000000000000FFFC000
000000000000000FFFC000
000000000000000FFFC000
000000000000000FFFC000
000000000000000FFFC000
000000000000000FFFC000
000000000000000FFFC000
000000000000000FFFC000
000000000000000FFFC000
000000000000000FFFC000
000000000000000FFFC000
000000000000000FFFC000
000000000000000FFFC000
ENDCHAR
STARTCHAR five
ENCODING 53
SWIDTH 885 0
DWIDTH 98 0
BBX 85 81 7 0
BITMAP
FFFFFFFFFFFFFFFFFFFFC0
FFFFFFFFFFFFFFFFFFFFC0
FFFFFFFFFFFFFFFFFFFFC0
FFFFFFFFFFFFFFFFFFFFC0
FFFFFFFFFFFFFFFFFFFFC0
FFFFFFFFFFFFFFFFFFFFC0
FFFFFFFFFFFFFFFFFFFFC0
FFFFFFFFFFFFFFFFFFFFC0
FFFFFFFFFFFFFFFFFFFFC0
FFFFFFFFFFFFFFFFFFFFC0
FFFFFFFFFFFFFFFFFFFFC0
FFFFFFFFFFFFFFFFFFFFC0
FFFFFFFFFFFFFFFFFFFFC0
FFFFFFFFFFFFFFFFFFFFC0
FFFE000000000000000000
FFFE000000000000000000
FFFE000000000000000000
FFFE000000000000000000
FFFE000000000000000000
FFFE000000000000000000
FFFE000000000000000000
FFFE000000000000000000
FFFE000000000000000000
FFFE000000000000000000
FFFE000000000000000000
FFFE000000000000000000
FFFE000000000000000000
FFFE000000000000000000
FFFE000000000000000000
FFFE000000000000000000
FFFE000000000000000000
FFFE000000000000000000
FFFE000000000000000000
FFFE000000000000000000
FFFFFFFFFFFFFFFFE00000
FFFFFFFFFFFFFFFFFE0000
FFFFFFFFFFFFFFFFFFC000
FFFFFFFFFFFFFFFFFFF000
FFFFFFFFFFFFFFFFFFF800
FFFFFFFFFFFFFFFFFFFE00
FFFFFFFFFFFFFFFFFFFF00
FFFFFFFFFFFFFFFFFFFF80
FFFFFFFFFFFFFFFFFFFF80
FFFFFFFFFFFFFFFFFFFFC0
FFFFFFFFFFFFFFFFFFFFE0
FFFFFFFFFFFFFFFFFFFFE0
00000000000000007FFFF0
00000000000000000FFFF0
000000000000000007FFF0
000000000000000003FFF8
000000000000000001FFF8
000000000000000001FFF8
000000000000000000FFF8
000000000000000000FFF8
000000000000000000FFF8
000000000000000000FFF8
000000000000000000FFF8
000000000000000000FFF8
000000000000000000FFF8
000000000000000000FFF8
000000000000000001FFF8
000000000000000001FFF8
000000000000000003FFF8
000000000000000003FFF8
000000000000000007FFF8
00000000000000001FFFF0
0000000000000000FFFFF0
FFFFFFFFFFFFFFFFFFFFF0
FFFFFFFFFFFFFFFFFFFFE0
FFFFFFFFFFFFFFFFFFFFE0
FFFFFFFFFFFFFFFFFFFFC0
FFFFFFFFFFFFFFFFFFFFC0
FFFFFFFFFFFFFFFFFFFF80
FFFFFFFFFFFFFFFFFFFF00
FFFFFFFFFFFFFFFFFFFE00
FFFFFFFFFFFFFFFFFFFC00
FFFFFFFFFFFFFFFFFFF800
FFFFFFFFFFFFFFFFFFE000
FFFFFFFFFFFFFFFFFF8000
FFFFFFFFFFFFFFFFFE0000
FFFFFFFFFFFFFFFFE00000
ENDCHAR
STARTCHAR six
ENCODING 54
SWIDTH 872 0
DWIDTH 97 0
BBX 86 81 5 0
BITMAP
00000007FFFFFFFFFFFFE0
000000FFFFFFFFFFFFFFE0
000007FFFFFFFFFFFFFFE0
00003FFFFFFFFFFFFFFFE0
0000FFFFFFFFFFFFFFFFE0
0003FFFFFFFFFFFFFFFFE0
0007FFFFFFFFFFFFFFFFE0
000FFFFFFFFFFFFFFFFFE0
003FFFFFFFFFFFFFFFFFE0
007FFFFFFFFFFFFFFFFFE0
007FFFFFFFFFFFFFFFFFE0
00FFFFFFFFFFFFFFFFFFE0
01FFFFFFFFFFFFFFFFFFE0
03FFFFFFFFFFFFFFFFFFE0
03FFFFFE00000000000000
07FFFFE000000000000000
0FFFFF8000000000000000
0FFFFE0000000000000000
1FFFF80000000000000000
1FFFF00000000000000000
1FFFE00000000000000000
3FFFE00000000000000000
3FFFC00000000000000000
3FFF800000000000000000
7FFF800000000000000000
7FFF000000000000000000
7FFF000000000000000000
7FFE000000000000000000
FFFE000000000000000000
FFFE000000000000000000
FFFE000000000000000000
FFFC000000000000000000
FFFC000000000000000000
FFFC000000000000000000
FFFFFFFFFFFFFFFFF00000
FFFFFFFFFFFFFFFFFF0000
FFFFFFFFFFFFFFFFFFE000
FFFFFFFFFFFFFFFFFFF800
FFFFFFFFFFFFFFFFFFFC00
FFFFFFFFFFFFFFFFFFFE00
FFFFFFFFFFFFFFFFFFFF80
FFFFFFFFFFFFFFFFFFFF80
FFFFFFFFFFFFFFFFFFFFC0
FFFFFFFFFFFFFFFFFFFFE0
FFFFFFFFFFFFFFFFFFFFE0
FFFFFFFFFFFFFFFFFFFFF0
FFFC0000000000007FFFF0
FFFC0000000000000FFFF8
FFFC00000000000007FFF8
FFFC00000000000003FFF8
FFFE00000000000001FFF8
7FFE00000000000000FFFC
7FFE00000000000000FFFC
7FFE00000000000000FFFC
7FFF00000000000000FFFC
7FFF00000000000000FFFC
3FFF80000000000000FFFC
3FFF80000000000000FFFC
3FFFC0000000000000FFFC
1FFFE0000000000000FFFC
1FFFE0000000000000FFFC
0FFFF0000000000001FFFC
0FFFF8000000000001FFF8
0FFFFE000000000003FFF8
07FFFF800000000007FFF8
03FFFFE0000000001FFFF8
03FFFFFE00000000FFFFF0
01FFFFFFFFFFFFFFFFFFF0
00FFFFFFFFFFFFFFFFFFF0
00FFFFFFFFFFFFFFFFFFE0
007FFFFFFFFFFFFFFFFFE0
003FFFFFFFFFFFFFFFFFC0
001FFFFFFFFFFFFFFFFF80
000FFFFFFFFFFFFFFFFF00
0003FFFFFFFFFFFFFFFE00
0001FFFFFFFFFFFFFFFC00
00007FFFFFFFFFFFFFF800
00001FFFFFFFFFFFFFF000
000007FFFFFFFFFFFFC000
000000FFFFFFFFFFFE0000
00000007FFFFFFFFF00000
ENDCHAR
STARTCHAR seven
ENCODING 55
SWIDTH 756 0
DWIDTH 84 0
BBX 77 81 5 0
BITMAP
FFFFFFFFFFFFFFFFFF00
FFFFFFFFFFFFFFFFFFC0
FFFFFFFFFFFFFFFFFFE0
FFFFFFFFFFFFFFFFFFF0
FFFFFFFFFFFFFFFFFFF0
FFFFFFFFFFFFFFFFFFF0
FFFFFFFFFFFFFFFFFFF8
FFFFFFFFFFFFFFFFFFF8
FFFFFFFFFFFFFFFFFFF0
FFFFFFFFFFFFFFFFFFF0
FFFFFFFFFFFFFFFFFFF0
FFFFFFFFFFFFFFFFFFE0
FFFFFFFFFFFFFFFFFFE0
FFFFFFFFFFFFFFFFFFC0
00000000000001FFFF80
00000000000001FFFF00
00000000000003FFFE00
00000000000007FFFE00
0000000000000FFFFC00
0000000000001FFFF800
0000000000003FFFF000
0000000000003FFFE000
0000000000007FFFE000
000000000000FFFFC000
000000000001FFFF8000
000000000003FFFF0000
000000000007FFFE0000
000000000007FFFC0000
00000000000FFFFC0000
00000000001FFFF80000
00000000003FFFF00000
00000000007FFFE00000
00000000007FFFC00000
0000000000FFFFC00000
0000000001FFFF800000
0000000003FFFF000000
0000000007FFFE000000
000000000FFFFC000000
000000000FFFF8000000
000000001FFFF8000000
000000003FFFF0000000
000000007FFFE0000000
00000000FFFFC0000000
00000001FFFF80000000
00000001FFFF80000000
00000003FFFF00000000
00000007FFFE00000000
0000000FFFFC00000000
0000001FFFF800000000
0000001FFFF800000000
0000003FFFF000000000
0000007FFFE000000000
000000FFFFC000000000
000001FFFF8000000000
000003FFFF0000000000
000003FFFF0000000000
000007FFFE0000000000
00000FFFFC0000000000
00001FFFF80000000000
00003FFFF00000000000
00007FFFF00000000000
00007FFFE00000000000
0000FFFFC00000000000
0001FFFF800000000000
0003FFFF000000000000
0007FFFE000000000000
000FFFFE000000000000
000FFFFC000000000000
001FFFF8000000000000
003FFFF0000000000000
007FFFE0000000000000
00FFFFE0000000000000
00FFFFC0000000000000
01FFFF80000000000000
03FFFF00000000000000
07FFFE00000000000000
0FFFFE00000000000000
1FFFFC00000000000000
1FFFF800000000000000
3FFFF000000000000000
7FFFE000000000000000
ENDCHAR
STARTCHAR eight
ENCODING 56
SWIDTH 898 0
DWIDTH 100 0
BBX 88 81 6 0
BITMAP
000007FFFFFFFFFFE00000
0000FFFFFFFFFFFFFF0000
0007FFFFFFFFFFFFFFE000
001FFFFFFFFFFFFFFFF800
007FFFFFFFFFFFFFFFFC00
00FFFFFFFFFFFFFFFFFF00
01FFFFFFFFFFFFFFFFFF80
03FFFFFFFFFFFFFFFFFFC0
07FFFFFFFFFFFFFFFFFFE0
0FFFFFFFFFFFFFFFFFFFE0
0FFFFFFFFFFFFFFFFFFFF0
1FFFFFFFFFFFFFFFFFFFF0
1FFFFFFFFFFFFFFFFFFFF8
3FFFFFFFFFFFFFFFFFFFF8
3FFFFF8000000001FFFFFC
3FFFF800000000001FFFFC
3FFFE0000000000007FFFC
7FFFC0000000000003FFFC
7FFF80000000000001FFFC
7FFF00000000000001FFFE
7FFF00000000000000FFFE
7FFF00000000000000FFFE
7FFF00000000000000FFFE
7FFE00000000000000FFFC
7FFE00000000000000FFFC
3FFE00000000000000FFFC
3FFF00000000000000FFFC
3FFF00000000000000FFFC
3FFF00000000000000FFF8
1FFF00000000000001FFF8
1FFF80000000000001FFF8
1FFFC0000000000003FFF0
0FFFE000000000000FFFF0
07FFFC00000000007FFFE0
03FFFFFFFFFFFFFFFFFFC0
01FFFFFFFFFFFFFFFFFF80
00FFFFFFFFFFFFFFFFFE00
003FFFFFFFFFFFFFFFFC00
000FFFFFFFFFFFFFFFF000
003FFFFFFFFFFFFFFFFC00
00FFFFFFFFFFFFFFFFFF00
03FFFFFFFFFFFFFFFFFF80
07FFFFFFFFFFFFFFFFFFC0
0FFFFFFFFFFFFFFFFFFFE0
1FFFFFFFFFFFFFFFFFFFF0
1FFFFFFFFFFFFFFFFFFFF8
3FFFFC00000000003FFFFC
3FFFE0000000000007FFFC
7FFF80000000000003FFFE
7FFF00000000000001FFFE
FFFE00000000000000FFFE
FFFE000000000000007FFE
FFFC000000000000007FFF
FFFC000000000000007FFF
FFFC000000000000003FFF
FFFC000000000000003FFF
FFFC000000000000003FFF
FFFC000000000000003FFF
FFFC000000000000003FFF
FFFC000000000000007FFF
FFFE000000000000007FFF
FFFE00000000000000FFFF
FFFF00000000000000FFFE
FFFF80000000000001FFFE
7FFFE0000000000007FFFE
7FFFF800000000001FFFFE
7FFFFF8000000001FFFFFC
3FFFFFFFFFFFFFFFFFFFFC
3FFFFFFFFFFFFFFFFFFFF8
1FFFFFFFFFFFFFFFFFFFF8
1FFFFFFFFFFFFFFFFFFFF0
0FFFFFFFFFFFFFFFFFFFF0
07FFFFFFFFFFFFFFFFFFE0
03FFFFFFFFFFFFFFFFFFC0
01FFFFFFFFFFFFFFFFFF80
00FFFFFFFFFFFFFFFFFF00
007FFFFFFFFFFFFFFFFC00
001FFFFFFFFFFFFFFFF800
0007FFFFFFFFFFFFFFE000
0000FFFFFFFFFFFFFF0000
00001FFFFFFFFFFFF00000
ENDCHAR
STARTCHAR nine
ENCODING 57
SWIDTH 861 0
DWIDTH 96 0
BBX 86 81 5 0
BITMAP
00003FFFFFFFFF00000000
0003FFFFFFFFFFF8000000
000FFFFFFFFFFFFF000000
003FFFFFFFFFFFFFE00000
007FFFFFFFFFFFFFF80000
00FFFFFFFFFFFFFFFC0000
01FFFFFFFFFFFFFFFF0000
03FFFFFFFFFFFFFFFF8000
07FFFFFFFFFFFFFFFFC000
0FFFFFFFFFFFFFFFFFE000
0FFFFFFFFFFFFFFFFFF000
1FFFFFFFFFFFFFFFFFF800
3FFFFFFFFFFFFFFFFFFC00
3FFFFFFFFFFFFFFFFFFE00
3FFFFC00000003FFFFFE00
7FFFE0000000003FFFFF00
7FFFC00000000007FFFF80
7FFF800000000001FFFF80
FFFF000000000000FFFFC0
FFFE0000000000007FFFC0
FFFE0000000000003FFFC0
FFFE0000000000001FFFE0
FFFC0000000000000FFFE0
FFFC0000000000000FFFE0
FFFC00000000000007FFF0
FFFC00000000000007FFF0
FFFC00000000000003FFF0
FFFC00000000000003FFF8
FFFC00000000000003FFF8
FFFC00000000000001FFF8
FFFE00000000000001FFF8
FFFE00000000000001FFF8
FFFF00000000000001FFF8
FFFF00000000000001FFF8
7FFF80000000000001FFFC
7FFFE0000000000000FFFC
7FFFF8000000000000FFFC
3FFFFFFFFFFFFFFFFFFFFC
3FFFFFFFFFFFFFFFFFFFFC
1FFFFFFFFFFFFFFFFFFFFC
1FFFFFFFFFFFFFFFFFFFFC
0FFFFFFFFFFFFFFFFFFFFC
07FFFFFFFFFFFFFFFFFFFC
03FFFFFFFFFFFFFFFFFFFC
01FFFFFFFFFFFFFFFFFFFC
007FFFFFFFFFFFFFFFFFFC
003FFFFFFFFFFFFFFFFFFC
0007FFFFFFFFFFFFFFFFFC
00007FFFFFFFFFFFFFFFFC
000000000000000001FFF8
000000000000000001FFF8
000000000000000001FFF8
000000000000000003FFF8
000000000000000003FFF8
000000000000000003FFF8
000000000000000007FFF0
000000000000000007FFF0
00000000000000000FFFF0
00000000000000000FFFF0
00000000000000001FFFE0
00000000000000003FFFE0
00000000000000007FFFC0
0000000000000000FFFFC0
0000000000000001FFFFC0
0000000000000007FFFF80
000000000000001FFFFF80
00000000000003FFFFFF00
007FFFFFFFFFFFFFFFFE00
007FFFFFFFFFFFFFFFFE00
007FFFFFFFFFFFFFFFFC00
007FFFFFFFFFFFFFFFF800
007FFFFFFFFFFFFFFFF000
007FFFFFFFFFFFFFFFE000
007FFFFFFFFFFFFFFFC000
007FFFFFFFFFFFFFFF8000
007FFFFFFFFFFFFFFE0000
007FFFFFFFFFFFFFFC0000
007FFFFFFFFFFFFFF00000
007FFFFFFFFFFFFF800000
007FFFFFFFFFFFFC000000
007FFFFFFFFFFF80000000
ENDCHAR
STARTCHAR colon
ENCODING 58
SWIDTH 262 0
DWIDTH 29 0
BBX 15 52 7 0
BITMAP
07C0
1FF0
3FF8
7FFC
7FFC
FFFE
FFFE
FFFE
FFFE
FFFE
FFFE
7FFC
3FF8
1FF0
07C0
0000
0000
0000
0000
0000
0000
0000
0000
0000
0000
0000
0000
0000
0000
0000
0000
0000
0000
0000
0000
0000
0000
07C0
1FF0
3FF8
7FFC
7FFE
FFFE
FFFE
FFFE
FFFE
FFFE
7FFE
7FFC
3FF8
1FF0
07C0
ENDCHAR
STARTCHAR semicolon
ENCODING 59
SWIDTH 262 0
DWIDTH 29 0
BBX 15 64 7 -13
BITMAP
07E0
1FF0
3FF8
7FFC
7FFE
FFFE
FFFE
FFFE
FFFE
FFFE
7FFE
7FFC
3FF8
1FF0
07E0
0000
0000
0000
0000
0000
0000
0000
0000
0000
0000
0000
0000
0000
0000
0000
0000
0000
0000
0000
0000
7FFE
7FFC
7FFC
7FFC
7FFC
7FFC
7FFC
7FF8
7FF8
7FF8
7FF8
7FF8
7FF0
7FF0
7FF0
7FF0
7FF0
7FE0
7FE0
7FE0
7FE0
7FE0
7FC0
7FC0
7FC0
7FC0
7FC0
7FC0
7F80
ENDCHAR
STARTCHAR less
ENCODING 60
SWIDTH 690 0
DWIDTH 77 0
BBX 63 60 7 11
BITMAP
0000000000000006
000000000000001E
00000000000000FE
00000000000003FE
0000000000001FFE
0000000000007FFE
000000000001FFFE
00000000000FFFFE
00000000003FFFFE
0000000000FFFFFE
0000000007FFFFF8
000000001FFFFFE0
00000000FFFFFF00
00000003FFFFFC00
0000000FFFFFE000
0000007FFFFF0000
000001FFFFFC0000
000007FFFFE00000
00003FFFFF800000
0000FFFFFC000000
0007FFFFF0000000
001FFFFF80000000
007FFFFE00000000
03FFFFF000000000
0FFFFF8000000000
3FFFFE0000000000
7FFFF00000000000
7FFFC00000000000
FFFE000000000000
FFF8000000000000
FFFC000000000000
FFFF000000000000
7FFFE00000000000
7FFFF80000000000
1FFFFF0000000000
07FFFFC000000000
01FFFFF800000000
003FFFFE00000000
000FFFFFC0000000
0003FFFFF8000000
00007FFFFE000000
00001FFFFFC00000
000007FFFFF00000
000000FFFFFE0000
0000003FFFFF8000
00000007FFFFF000
00000001FFFFFC00
000000007FFFFF80
000000000FFFFFE0
0000000003FFFFFC
0000000000FFFFFE
00000000001FFFFE
000000000007FFFE
000000000001FFFE
0000000000003FFE
0000000000000FFE
00000000000001FE
000000000000007E
000000000000001E
0000000000000002
ENDCHAR
STARTCHAR equal
ENCODING 61
SWIDTH 690 0
DWIDTH 77 0
BBX 63 39 7 21
BITMAP
FFFFFFFFFFFFFFFE
FFFFFFFFFFFFFFFE
FFFFFFFFFFFFFFFE
FFFFFFFFFFFFFFFE
FFFFFFFFFFFFFFFE
FFFFFFFFFFFFFFFE
FFFFFFFFFFFFFFFE
FFFFFFFFFFFFFFFE
FFFFFFFFFFFFFFFE
0000000000000000
0000000000000000
0000000000000000
0000000000000000
0000000000000000
0000000000000000
0000000000000000
0000000000000000
0000000000000000
0000000000000000
0000000000000000
0000000000000000
0000000000000000
0000000000000000
0000000000000000
0000000000000000
0000000000000000
0000000000000000
0000000000000000
0000000000000000
0000000000000000
FFFFFFFFFFFFFFFE
FFFFFFFFFFFFFFFE
FFFFFFFFFFFFFFFE
FFFFFFFFFFFFFFFE
FFFFFFFFFFFFFFFE
FFFFFFFFFFFFFFFE
FFFFFFFFFFFFFFFE
FFFFFFFFFFFFFFFE
FFFFFFFFFFFFFFFE
ENDCHAR
STARTCHAR greater
ENCODING 62
SWIDTH 690 0
DWIDTH 77 0
BBX 63 60 7 11
BITMAP
C000000000000000
F000000000000000
FC00000000000000
FF80000000000000
FFE0000000000000
FFFC000000000000
FFFF000000000000
FFFFC00000000000
FFFFF80000000000
FFFFFE0000000000
7FFFFF8000000000
0FFFFFF000000000
03FFFFFC00000000
007FFFFF80000000
000FFFFFE0000000
0003FFFFF8000000
00007FFFFF000000
00001FFFFFC00000
000003FFFFF80000
000000FFFFFE0000
0000001FFFFF8000
00000007FFFFF000
00000000FFFFFC00
000000001FFFFF00
0000000007FFFFE0
0000000000FFFFF0
00000000003FFFF8
000000000007FFFC
000000000001FFFC
0000000000003FFE
0000000000007FFE
000000000003FFFC
00000000000FFFFC
00000000007FFFF8
0000000001FFFFF0
000000000FFFFFC0
000000003FFFFE00
00000001FFFFF800
00000007FFFFE000
0000003FFFFF0000
000000FFFFFC0000
000007FFFFF00000
00001FFFFF800000
0000FFFFFE000000
0007FFFFF0000000
001FFFFFC0000000
00FFFFFF00000000
03FFFFF800000000
1FFFFFE000000000
7FFFFF8000000000
FFFFFC0000000000
FFFFF00000000000
FFFF800000000000
FFFE000000000000
FFF8000000000000
FFC0000000000000
FF00000000000000
FC00000000000000
E000000000000000
8000000000000000
ENDCHAR
STARTCHAR question
ENCODING 63
SWIDTH 776 0
DWIDTH 86 0
BBX 78 81 5 0
BITMAP
FFFFFFFFFFFFFFE00000
FFFFFFFFFFFFFFFE0000
FFFFFFFFFFFFFFFFC000
FFFFFFFFFFFFFFFFF000
FFFFFFFFFFFFFFFFF800
FFFFFFFFFFFFFFFFFE00
FFFFFFFFFFFFFFFFFF00
FFFFFFFFFFFFFFFFFF80
FFFFFFFFFFFFFFFFFF80
FFFFFFFFFFFFFFFFFFC0
FFFFFFFFFFFFFFFFFFE0
FFFFFFFFFFFFFFFFFFE0
FFFFFFFFFFFFFFFFFFF0
FFFFFFFFFFFFFFFFFFF0
00000000000000FFFFF8
000000000000001FFFF8
000000000000000FFFF8
0000000000000007FFF8
0000000000000003FFFC
0000000000000001FFFC
0000000000000001FFFC
0000000000000001FFFC
0000000000000001FFFC
0000000000000001FFFC
0000000000000001FFFC
0000000000000001FFFC
0000000000000001FFF8
0000000000000001FFF8
0000000000000003FFF8
0000000000000003FFF8
0000000000000007FFF0
000000000000001FFFF0
000000000000007FFFF0
00000FFFFFFFFFFFFFE0
00007FFFFFFFFFFFFFE0
0001FFFFFFFFFFFFFFC0
0007FFFFFFFFFFFFFF80
000FFFFFFFFFFFFFFF00
001FFFFFFFFFFFFFFE00
003FFFFFFFFFFFFFFC00
003FFFFFFFFFFFFFF800
007FFFFFFFFFFFFFE000
007FFFFFFFFFFFFFC000
00FFFFFFFFFFFFFE0000
00FFFFFFFFFFFFE00000
00FFFE00000000000000
00FFFC00000000000000
01FFF800000000000000
01FFF800000000000000
01FFF800000000000000
01FFF800000000000000
01FFF800000000000000
01FFF800000000000000
01FFF800000000000000
00000000000000000000
00000000000000000000
00000000000000000000
00000000000000000000
00000000000000000000
00000000000000000000
00000000000000000000
00000000000000000000
00000000000000000000
00000000000000000000
00000000000000000000
00000000000000000000
001F8000000000000000
003FE000000000000000
007FF000000000000000
00FFF800000000000000
01FFF800000000000000
01FFFC00000000000000
01FFFC00000000000000
01FFFC00000000000000
01FFFC00000000000000
01FFFC00000000000000
01FFF800000000000000
00FFF800000000000000
007FF000000000000000
003FE000000000000000
001F8000000000000000
ENDCHAR
STARTCHAR at
ENCODING 64
SWIDTH 833 0
DWIDTH 92 0
BBX 80 81 5 0
BITMAP
000000003FFFFFFFFFFF
00000007FFFFFFFFFFFF
0000003FFFFFFFFFFFFF
000001FFFFFFFFFFFFFF
000007FFFFFFFFFFFFFF
00001FFFFFFFFFFFFFFF
00003FFFFFFFFFFFFFFF
0000FFFFFFFFFFFFFFFF
0001FFFFFFFFFFFFFFFF
0003FFFFFFFFFFFFFFFF
0007FFFFC000000003FF
000FFFFC0000000003FF
001FFFE00000000003FF
003FFF800000000003FF
007FFE000000000003FF
00FFFC000000000003FF
01FFF8000000000003FF
01FFE0000000000003FF
03FFC0000000000003FF
07FF80000000000003FF
07FF80000000000003FF
0FFF00000000000003FF
0FFE00003FFFFFF003FF
1FFC0000FFFFFFF003FF
1FFC0003FFFFFFF003FF
1FF80007FFFFFFF003FF
3FF8000FFFFFFFF003FF
3FF0001FFFFFFFF003FF
7FF0003FFFFFFFF003FF
7FF0007FFFFFFFF003FF
7FE0007FFC001FF003FF
7FE000FFF0001FF003FF
FFE000FFE0001FF003FF
FFE000FFC0001FF003FF
FFE001FF80001FF003FF
FFE001FF80001FF003FF
FFC001FF00001FF003FF
FFC001FF00001FF003FF
FFC001FF00001FF003FF
FFC001FF00001FF003FF
FFC001FF00001FF003FF
FFC001FF00001FF003FF
FFC001FF00001FF003FF
FFC001FF80001FF003FF
FFC001FF80001FF003FF
FFE001FF80001FF003FF
FFE001FFC0001FF003FF
FFE000FFE0001FF003FF
FFE000FFF0001FF003FF
FFE0007FFC001FF003FF
7FE0007FFFFFFFFFFFFF
7FF0003FFFFFFFFFFFFF
7FF0003FFFFFFFFFFFFF
7FF8001FFFFFFFFFFFFF
3FF8000FFFFFFFFFFFFF
3FF80007FFFFFFFFFFFF
3FFC0003FFFFFFFFFFFF
1FFC0000FFFFFFFFFFFF
1FFE00001FFFFFFFFFFF
0FFF0000000000000000
0FFF8000000000000000
07FF8000000000000000
07FFC000000000000000
03FFE000000000000000
03FFF000000000000000
01FFFC00000000000000
00FFFE00000000000000
007FFF80000000000000
003FFFE0000000000000
003FFFFC000000000000
000FFFFFC00000000000
0007FFFFFFFFFFFFFFFF
0003FFFFFFFFFFFFFFFF
0001FFFFFFFFFFFFFFFF
00007FFFFFFFFFFFFFFF
00003FFFFFFFFFFFFFFF
00000FFFFFFFFFFFFFFF
000003FFFFFFFFFFFFFF
0000007FFFFFFFFFFFFF
0000000FFFFFFFFFFFFF
000000007FFFFFFFFFFF
ENDCHAR
STARTCHAR A
ENCODING 65
SWIDTH 989 0
DWIDTH 110 0
BBX 106 82 2 0
BITMAP
0000000000003E00000000000000
000000000000FF80000000000000
000000000001FFC0000000000000
000000000001FFE0000000000000
000000000003FFF0000000000000
000000000007FFF0000000000000
000000000007FFF8000000000000
00000000000FFFF8000000000000
00000000000FFFFC000000000000
00000000001FFFFE000000000000
00000000003FFFFE000000000000
00000000003FFFFF000000000000
00000000007FFFFF000000000000
00000000007FFFFF800000000000
0000000000FFFFFFC00000000000
0000000001FFFFFFC00000000000
0000000001FFFFFFE00000000000
0000000003FFFFFFE00000000000
0000000003FFFFFFF00000000000
0000000007FFFFFFF80000000000
000000000FFFFFFFF80000000000
000000000FFFF7FFFC0000000000
000000001FFFE3FFFC0000000000
000000001FFFC3FFFE0000000000
000000003FFFC1FFFF0000000000
000000007FFF80FFFF0000000000
000000007FFF80FFFF8000000000
00000000FFFF007FFF8000000000
00000000FFFE007FFFC000000000
00000001FFFE003FFFE000000000
00000003FFFC001FFFE000000000
00000003FFFC001FFFF000000000
00000007FFF8000FFFF000000000
00000007FFF0000FFFF800000000
0000000FFFF00007FFFC00000000
0000001FFFE00003FFFC00000000
0000001FFFE00003FFFE00000000
0000003FFFC00001FFFE00000000
0000003FFF800001FFFF00000000
0000007FFF800000FFFF80000000
000000FFFF0000007FFF80000000
000000FFFF0000007FFFC0000000
000001FFFE0000003FFFC0000000
000001FFFC0000003FFFE0000000
000003FFFC0000001FFFF0000000
000007FFF80000000FFFF0000000
000007FFF80000000FFFF8000000
00000FFFF000000007FFF8000000
00000FFFF000000007FFFC000000
00001FFFE000000003FFFE000000
00003FFFC007FFFFFFFFFE000000
00003FFFC007FFFFFFFFFF000000
00007FFF800FFFFFFFFFFF000000
00007FFF801FFFFFFFFFFF800000
0000FFFF001FFFFFFFFFFFC00000
0001FFFE003FFFFFFFFFFFC00000
0001FFFE003FFFFFFFFFFFE00000
0003FFFC007FFFFFFFFFFFE00000
0003FFFC00FFFFFFFFFFFFF00000
0007FFF800FFFFFFFFFFFFF80000
000FFFF001FFFFFFFFFFFFF80000
000FFFF0000000000007FFFC0000
001FFFE0000000000003FFFC0000
001FFFE0000000000003FFFE0000
003FFFC0000000000001FFFF0000
007FFF80000000000000FFFF0000
007FFF80000000000000FFFF8000
00FFFF000000000000007FFF8000
00FFFF000000000000007FFFC000
01FFFE000000000000003FFFE000
03FFFC000000000000001FFFE000
03FFFC000000000000001FFFF000
07FFF8000000000000000FFFF000
07FFF8000000000000000FFFF800
0FFFF00000000000000007FFFC00
1FFFF00000000000000007FFFC00
1FFFE00000000000000003FFFE00
3FFFC00000000000000001FFFE00
3FFFC00000000000000001FFFF00
7FFF800000000000000000FFFF80
FFFF800000000000000000FFFF80
FFFF0000000000000000007FFFC0
ENDCHAR
STARTCHAR B
ENCODING 66
SWIDTH 891 0
DWIDTH 99 0
BBX 87 81 7 0
BITMAP
FFFFFFFFFFFFFFFFC00000
FFFFFFFFFFFFFFFFFC0000
FFFFFFFFFFFFFFFFFF8000
FFFFFFFFFFFFFFFFFFE000
FFFFFFFFFFFFFFFFFFF800
FFFFFFFFFFFFFFFFFFFC00
FFFFFFFFFFFFFFFFFFFE00
FFFFFFFFFFFFFFFFFFFF00
FFFFFFFFFFFFFFFFFFFF80
FFFFFFFFFFFFFFFFFFFFC0
FFFFFFFFFFFFFFFFFFFFC0
FFFFFFFFFFFFFFFFFFFFE0
FFFFFFFFFFFFFFFFFFFFE0
FFFFFFFFFFFFFFFFFFFFF0
FFFC000000000007FFFFF0
FFFC0000000000007FFFF0
FFFC0000000000001FFFF8
FFFC0000000000000FFFF8
FFFC00000000000007FFF8
FFFC00000000000003FFF8
FFFC00000000000003FFF8
FFFC00000000000001FFF8
FFFC00000000000001FFF8
FFFC00000000000001FFF8
FFFC00000000000001FFF8
FFFC00000000000001FFF8
FFFC00000000000001FFF8
FFFC00000000000003FFF0
FFFC00000000000003FFF0
FFFC00000000000003FFF0
FFFC00000000000007FFE0
FFFC0000000000000FFFE0
FFFC0000000000001FFFC0
FFFC000000000000FFFF80
FFFC00FFFFFFFFFFFFFF00
FFFC00FFFFFFFFFFFFFE00
FFFC00FFFFFFFFFFFFFC00
FFFC00FFFFFFFFFFFFF000
FFFC00FFFFFFFFFFFFC000
FFFC00FFFFFFFFFFFFF800
FFFC00FFFFFFFFFFFFFC00
FFFC00FFFFFFFFFFFFFF00
FFFC00FFFFFFFFFFFFFF80
FFFC00FFFFFFFFFFFFFFC0
FFFC00FFFFFFFFFFFFFFE0
FFFC00FFFFFFFFFFFFFFE0
FFFC0000000000007FFFF0
FFFC0000000000001FFFF8
FFFC00000000000007FFF8
FFFC00000000000003FFF8
FFFC00000000000001FFFC
FFFC00000000000001FFFC
FFFC00000000000000FFFC
FFFC00000000000000FFFC
FFFC00000000000000FFFC
FFFC00000000000000FFFE
FFFC00000000000000FFFE
FFFC00000000000000FFFE
FFFC00000000000000FFFE
FFFC00000000000000FFFC
FFFC00000000000001FFFC
FFFC00000000000001FFFC
FFFC00000000000003FFFC
FFFC00000000000007FFFC
FFFC0000000000001FFFF8
FFFC0000000000007FFFF8
FFFC00000000000FFFFFF8
FFFFFFFFFFFFFFFFFFFFF0
FFFFFFFFFFFFFFFFFFFFF0
FFFFFFFFFFFFFFFFFFFFE0
FFFFFFFFFFFFFFFFFFFFE0
FFFFFFFFFFFFFFFFFFFFC0
FFFFFFFFFFFFFFFFFFFF80
FFFFFFFFFFFFFFFFFFFF00
FFFFFFFFFFFFFFFFFFFE00
FFFFFFFFFFFFFFFFFFFC00
FFFFFFFFFFFFFFFFFFF800
FFFFFFFFFFFFFFFFFFE000
FFFFFFFFFFFFFFFFFF8000
FFFFFFFFFFFFFFFFFE0000
FFFFFFFFFFFFFFFFE00000
ENDCHAR
STARTCHAR C
ENCODING 67
SWIDTH 829 0
DWIDTH 92 0
BBX 83 81 5 0
BITMAP
00000000FFFFFFFFFFFFE0
0000001FFFFFFFFFFFFFE0
000000FFFFFFFFFFFFFFE0
000003FFFFFFFFFFFFFFE0
00000FFFFFFFFFFFFFFFE0
00003FFFFFFFFFFFFFFFE0
0000FFFFFFFFFFFFFFFFE0
0001FFFFFFFFFFFFFFFFE0
0007FFFFFFFFFFFFFFFFE0
000FFFFFFFFFFFFFFFFFE0
001FFFFFFFFFFFFFFFFFE0
003FFFFFFFFFFFFFFFFFE0
007FFFFFFFFFFFFFFFFFE0
00FFFFFFFFFFFFFFFFFFE0
00FFFFFFE0000000000000
01FFFFFC00000000000000
03FFFFF000000000000000
03FFFFC000000000000000
07FFFF0000000000000000
0FFFFE0000000000000000
0FFFFC0000000000000000
1FFFF80000000000000000
1FFFF00000000000000000
1FFFE00000000000000000
3FFFC00000000000000000
3FFFC00000000000000000
7FFF800000000000000000
7FFF800000000000000000
7FFF000000000000000000
7FFF000000000000000000
FFFE000000000000000000
FFFE000000000000000000
FFFE000000000000000000
FFFE000000000000000000
FFFC000000000000000000
FFFC000000000000000000
FFFC000000000000000000
FFFC000000000000000000
FFFC000000000000000000
FFFC000000000000000000
FFFC000000000000000000
FFFC000000000000000000
FFFC000000000000000000
FFFC000000000000000000
FFFC000000000000000000
FFFC000000000000000000
FFFC000000000000000000
FFFE000000000000000000
FFFE000000000000000000
7FFE000000000000000000
7FFE000000000000000000
7FFF000000000000000000
7FFF000000000000000000
3FFF800000000000000000
3FFF800000000000000000
3FFFC00000000000000000
1FFFE00000000000000000
1FFFE00000000000000000
0FFFF00000000000000000
0FFFF80000000000000000
07FFFC0000000000000000
07FFFE0000000000000000
03FFFF8000000000000000
03FFFFC000000000000000
01FFFFF000000000000000
00FFFFFC00000000000000
00FFFFFFE0000000000000
007FFFFFFFFFFFFFFFFFE0
003FFFFFFFFFFFFFFFFFE0
001FFFFFFFFFFFFFFFFFE0
000FFFFFFFFFFFFFFFFFE0
0007FFFFFFFFFFFFFFFFE0
0003FFFFFFFFFFFFFFFFE0
0000FFFFFFFFFFFFFFFFE0
00007FFFFFFFFFFFFFFFE0
00001FFFFFFFFFFFFFFFE0
00000FFFFFFFFFFFFFFFE0
000003FFFFFFFFFFFFFFE0
0000007FFFFFFFFFFFFFE0
0000000FFFFFFFFFFFFFE0
00000000FFFFFFFFFFFFE0
ENDCHAR
STARTCHAR D
ENCODING 68
SWIDTH 879 0
DWIDTH 98 0
BBX 86 81 7 0
BITMAP
FFFFFFFFFFFFFC00000000
FFFFFFFFFFFFFFC0000000
FFFFFFFFFFFFFFF8000000
FFFFFFFFFFFFFFFF000000
FFFFFFFFFFFFFFFFC00000
FFFFFFFFFFFFFFFFF00000
FFFFFFFFFFFFFFFFF80000
FFFFFFFFFFFFFFFFFE0000
FFFFFFFFFFFFFFFFFF0000
FFFFFFFFFFFFFFFFFF8000
FFFFFFFFFFFFFFFFFFC000
FFFFFFFFFFFFFFFFFFE000
FFFFFFFFFFFFFFFFFFF000
FFFFFFFFFFFFFFFFFFF800
FFFC000000001FFFFFFC00
FFFC0000000001FFFFFE00
FFFC00000000003FFFFE00
FFFC00000000000FFFFF00
FFFC000000000007FFFF80
FFFC000000000003FFFF80
FFFC000000000000FFFFC0
FFFC0000000000007FFFC0
FFFC0000000000003FFFE0
FFFC0000000000003FFFE0
FFFC0000000000001FFFE0
FFFC0000000000000FFFF0
FFFC0000000000000FFFF0
FFFC00000000000007FFF0
FFFC00000000000007FFF8
FFFC00000000000003FFF8
FFFC00000000000003FFF8
FFFC00000000000001FFF8
FFFC00000000000001FFF8
FFFC00000000000001FFFC
FFFC00000000000001FFFC
FFFC00000000000000FFFC
FFFC00000000000000FFFC
FFFC00000000000000FFFC
FFFC00000000000000FFFC
FFFC00000000000000FFFC
FFFC00000000000000FFFC
FFFC00000000000000FFFC
FFFC00000000000000FFFC
FFFC00000000000000FFFC
FFFC00000000000000FFFC
FFFC00000000000001FFFC
FFFC00000000000001FFFC
FFFC00000000000001FFF8
FFFC00000000000001FFF8
FFFC00000000000001FFF8
FFFC00000000000003FFF8
FFFC00000000000003FFF8
FFFC00000000000007FFF0
FFFC00000000000007FFF0
FFFC0000000000000FFFF0
FFFC0000000000000FFFE0
FFFC0000000000001FFFE0
FFFC0000000000003FFFC0
FFFC0000000000003FFFC0
FFFC0000000000007FFFC0
FFFC000000000000FFFF80
FFFC000000000003FFFF80
FFFC000000000007FFFF00
FFFC00000000001FFFFE00
FFFC00000000003FFFFE00
FFFC0000000001FFFFFC00
FFFC000000001FFFFFF800
FFFFFFFFFFFFFFFFFFF000
FFFFFFFFFFFFFFFFFFE000
FFFFFFFFFFFFFFFFFFE000
FFFFFFFFFFFFFFFFFFC000
FFFFFFFFFFFFFFFFFF8000
FFFFFFFFFFFFFFFFFE0000
FFFFFFFFFFFFFFFFFC0000
FFFFFFFFFFFFFFFFF80000
FFFFFFFFFFFFFFFFE00000
FFFFFFFFFFFFFFFF800000
FFFFFFFFFFFFFFFE000000
FFFFFFFFFFFFFFF8000000
FFFFFFFFFFFFFFC0000000
FFFFFFFFFFFFF800000000
ENDCHAR
STARTCHAR E
ENCODING 69
SWIDTH 759 0
DWIDTH 84 0
BBX 72 81 7 0
BITMAP
FFFFFFFFFFFFFFFFFF
FFFFFFFFFFFFFFFFFF
FFFFFFFFFFFFFFFFFF
FFFFFFFFFFFFFFFFFF
FFFFFFFFFFFFFFFFFF
FFFFFFFFFFFFFFFFFF
FFFFFFFFFFFFFFFFFF
FFFFFFFFFFFFFFFFFF
FFFFFFFFFFFFFFFFFF
FFFFFFFFFFFFFFFFFF
FFFFFFFFFFFFFFFFFF
FFFFFFFFFFFFFFFFFF
FFFFFFFFFFFFFFFFFF
FFFFFFFFFFFFFFFFFF
FFFC00000000000000
FFFC00000000000000
FFFC00000000000000
FFFC00000000000000
FFFC00000000000000
FFFC00000000000000
FFFC00000000000000
FFFC00000000000000
FFFC00000000000000
FFFC00000000000000
FFFC00000000000000
FFFC00000000000000
FFFC00000000000000
FFFC00000000000000
FFFC00000000000000
FFFC00000000000000
FFFC00000000000000
FFFC00000000000000
FFFC00000000000000
FFFC00000000000000
FFFC00FFFFFFFFFFF8
FFFC00FFFFFFFFFFF8
FFFC00FFFFFFFFFFF8
FFFC00FFFFFFFFFFF8
FFFC00FFFFFFFFFFF8
FFFC00FFFFFFFFFFF8
FFFC00FFFFFFFFFFF8
FFFC00FFFFFFFFFFF8
FFFC00FFFFFFFFFFF8
FFFC00FFFFFFFFFFF8
FFFC00FFFFFFFFFFF8
FFFC00FFFFFFFFFFF8
FFFC00000000000000
FFFC00000000000000
FFFC00000000000000
FFFC00000000000000
FFFC00000000000000
FFFC00000000000000
FFFC00000000000000
FFFC00000000000000
FFFC00000000000000
FFFC00000000000000
FFFC00000000000000
FFFC00000000000000
FFFC00000000000000
FFFC00000000000000
FFFC00000000000000
FFFC00000000000000
FFFC00000000000000
FFFC00000000000000
FFFC00000000000000
FFFC00000000000000
FFFC00000000000000
FFFFFFFFFFFFFFFFFF
FFFFFFFFFFFFFFFFFF
FFFFFFFFFFFFFFFFFF
FFFFFFFFFFFFFFFFFF
FFFFFFFFFFFFFFFFFF
FFFFFFFFFFFFFFFFFF
FFFFFFFFFFFFFFFFFF
FFFFFFFFFFFFFFFFFF
FFFFFFFFFFFFFFFFFF
FFFFFFFFFFFFFFFFFF
FFFFFFFFFFFFFFFFFF
FFFFFFFFFFFFFFFFFF
FFFFFFFFFFFFFFFFFF
FFFFFFFFFFFFFFFFFF
ENDCHAR
STARTCHAR F
ENCODING 70
SWIDTH 705 0
DWIDTH 78 0
BBX 68 81 7 0
BITMAP
FFFFFFFFFFFFFFFFF0
FFFFFFFFFFFFFFFFF0
FFFFFFFFFFFFFFFFF0
FFFFFFFFFFFFFFFFF0
FFFFFFFFFFFFFFFFF0
FFFFFFFFFFFFFFFFF0
FFFFFFFFFFFFFFFFF0
FFFFFFFFFFFFFFFFF0
FFFFFFFFFFFFFFFFF0
FFFFFFFFFFFFFFFFF0
FFFFFFFFFFFFFFFFF0
FFFFFFFFFFFFFFFFF0
FFFFFFFFFFFFFFFFF0
FFFFFFFFFFFFFFFFF0
FFFC00000000000000
FFFC00000000000000
FFFC00000000000000
FFFC00000000000000
FFFC00000000000000
FFFC00000000000000
FFFC00000000000000
FFFC00000000000000
FFFC00000000000000
FFFC00000000000000
FFFC00000000000000
FFFC00000000000000
FFFC00000000000000
FFFC00000000000000
FFFC00000000000000
FFFC00000000000000
FFFC00000000000000
FFFC00000000000000
FFFC00000000000000
FFFC00000000000000
FFFC00000000000000
FFFC00FFFFFFFFFF80
FFFC00FFFFFFFFFF80
FFFC00FFFFFFFFFF80
FFFC00FFFFFFFFFF80
FFFC00FFFFFFFFFF80
FFFC00FFFFFFFFFF80
FFFC00FFFFFFFFFF80
FFFC00FFFFFFFFFF80
FFFC00FFFFFFFFFF80
FFFC00FFFFFFFFFF80
FFFC00FFFFFFFFFF80
FFFC00FFFFFFFFFF80
FFFC00000000000000
FFFC00000000000000
FFFC00000000000000
FFFC00000000000000
FFFC00000000000000
FFFC00000000000000
FFFC00000000000000
FFFC00000000000000
FFFC00000000000000
FFFC00000000000000
FFFC00000000000000
FFFC00000000000000
FFFC00000000000000
FFFC00000000000000
FFFC00000000000000
FFFC00000000000000
FFFC00000000000000
FFFC00000000000000
FFFC00000000000000
FFFC00000000000000
FFFC00000000000000
FFFC00000000000000
FFFC00000000000000
FFFC00000000000000
FFFC00000000000000
FFFC00000000000000
FFFC00000000000000
FFFC00000000000000
FFFC00000000000000
FFFC00000000000000
FFFC00000000000000
FFFC00000000000000
FFFC00000000000000
FFFC00000000000000
ENDCHAR
STARTCHAR G
ENCODING 71
SWIDTH 888 0
DWIDTH 99 0
BBX 88 81 5 0
BITMAP
00000000FFFFFFFFFFFFE0
0000001FFFFFFFFFFFFFE0
000000FFFFFFFFFFFFFFE0
000003FFFFFFFFFFFFFFE0
00000FFFFFFFFFFFFFFFE0
00003FFFFFFFFFFFFFFFE0
0000FFFFFFFFFFFFFFFFE0
0001FFFFFFFFFFFFFFFFE0
0007FFFFFFFFFFFFFFFFE0
000FFFFFFFFFFFFFFFFFE0
001FFFFFFFFFFFFFFFFFE0
003FFFFFFFFFFFFFFFFFE0
007FFFFFFFFFFFFFFFFFE0
00FFFFFFFFFFFFFFFFFFE0
00FFFFFFE0000000000000
01FFFFFC00000000000000
03FFFFF000000000000000
03FFFFC000000000000000
07FFFF0000000000000000
0FFFFE0000000000000000
0FFFFC0000000000000000
1FFFF80000000000000000
1FFFF00000000000000000
1FFFE00000000000000000
3FFFC00000000000000000
3FFFC00000000000000000
7FFF800000000000000000
7FFF800000000000000000
7FFF000000000000000000
7FFF000000000000000000
FFFE000000000000000000
FFFE000000000000000000
FFFE000000000000000000
FFFE000000000000000000
FFFC000007FFFFFFFFFFFF
FFFC000007FFFFFFFFFFFF
FFFC000007FFFFFFFFFFFF
FFFC000007FFFFFFFFFFFF
FFFC000007FFFFFFFFFFFF
FFFC000007FFFFFFFFFFFF
FFFC000007FFFFFFFFFFFF
FFFC000007FFFFFFFFFFFF
FFFC000007FFFFFFFFFFFF
FFFC000007FFFFFFFFFFFF
FFFC000007FFFFFFFFFFFF
FFFC000007FFFFFFFFFFFF
FFFC000000000000007FFF
FFFE000000000000007FFF
FFFE000000000000007FFF
7FFE000000000000007FFF
7FFE000000000000007FFF
7FFF000000000000007FFF
7FFF000000000000007FFF
3FFF800000000000007FFF
3FFF800000000000007FFF
3FFFC00000000000007FFF
1FFFE00000000000007FFF
1FFFE00000000000007FFF
0FFFF00000000000007FFF
0FFFF80000000000007FFF
07FFFC0000000000007FFF
07FFFE0000000000007FFF
03FFFF8000000000007FFF
03FFFFC000000000007FFF
01FFFFF000000000007FFF
00FFFFFC00000000007FFF
00FFFFFFE0000000007FFF
007FFFFFFFFFFFFFFFFFFF
003FFFFFFFFFFFFFFFFFFF
001FFFFFFFFFFFFFFFFFFF
000FFFFFFFFFFFFFFFFFFF
0007FFFFFFFFFFFFFFFFFF
0003FFFFFFFFFFFFFFFFFF
0000FFFFFFFFFFFFFFFFFF
00007FFFFFFFFFFFFFFFFF
00001FFFFFFFFFFFFFFFFF
00000FFFFFFFFFFFFFFFFF
000003FFFFFFFFFFFFFFFF
0000007FFFFFFFFFFFFFFF
0000000FFFFFFFFFFFFFFF
00000000FFFFFFFFFFFFFF
ENDCHAR
STARTCHAR H
ENCODING 72
SWIDTH 838 0
DWIDTH 93 0
BBX 79 81 7 0
BITMAP
FFFC0000000000007FFE
FFFC0000000000007FFE
FFFC0000000000007FFE
FFFC0000000000007FFE
FFFC0000000000007FFE
FFFC0000000000007FFE
FFFC0000000000007FFE
FFFC0000000000007FFE
FFFC0000000000007FFE
FFFC0000000000007FFE
FFFC0000000000007FFE
FFFC0000000000007FFE
FFFC0000000000007FFE
FFFC0000000000007FFE
FFFC0000000000007FFE
FFFC0000000000007FFE
FFFC0000000000007FFE
FFFC0000000000007FFE
FFFC0000000000007FFE
FFFC0000000000007FFE
FFFC0000000000007FFE
FFFC0000000000007FFE
FFFC0000000000007FFE
FFFC0000000000007FFE
FFFC0000000000007FFE
FFFC0000000000007FFE
FFFC0000000000007FFE
FFFC0000000000007FFE
FFFC0000000000007FFE
FFFC0000000000007FFE
FFFC0000000000007FFE
FFFC0000000000007FFE
FFFC0000000000007FFE
FFFC00FFFFFFFFFFFFFE
FFFC00FFFFFFFFFFFFFE
FFFC00FFFFFFFFFFFFFE
FFFC00FFFFFFFFFFFFFE
FFFC00FFFFFFFFFFFFFE
FFFC00FFFFFFFFFFFFFE
FFFC00FFFFFFFFFFFFFE
FFFC00FFFFFFFFFFFFFE
FFFC00FFFFFFFFFFFFFE
FFFC00FFFFFFFFFFFFFE
FFFC00FFFFFFFFFFFFFE
FFFC00FFFFFFFFFFFFFE
FFFC00FFFFFFFFFFFFFE
FFFC0000000000007FFE
FFFC0000000000007FFE
FFFC0000000000007FFE
FFFC0000000000007FFE
FFFC0000000000007FFE
FFFC0000000000007FFE
FFFC0000000000007FFE
FFFC0000000000007FFE
FFFC0000000000007FFE
FFFC0000000000007FFE
FFFC0000000000007FFE
FFFC0000000000007FFE
FFFC0000000000007FFE
FFFC0000000000007FFE
FFFC0000000000007FFE
FFFC0000000000007FFE
FFFC0000000000007FFE
FFFC0000000000007FFE
FFFC0000000000007FFE
FFFC0000000000007FFE
FFFC0000000000007FFE
FFFC0000000000007FFE
FFFC0000000000007FFE
FFFC0000000000007FFE
FFFC0000000000007FFE
FFFC0000000000007FFE
FFFC0000000000007FFE
FFFC0000000000007FFE
FFFC0000000000007FFE
FFFC0000000000007FFE
FFFC0000000000007FFE
FFFC0000000000007FFE
FFFC0000000000007FFE
FFFC0000000000007FFE
FFFC0000000000007FFE
ENDCHAR
STARTCHAR I
ENCODING 73
SWIDTH 267 0
DWIDTH 30 0
BBX 14 81 8 0
BITMAP
FFFC
FFFC
FFFC
FFFC
FFFC
FFFC
FFFC
FFFC
FFFC
FFFC
FFFC
FFFC
FFFC
FFFC
FFFC
FFFC
FFFC
FFFC
FFFC
FFFC
FFFC
FFFC
FFFC
FFFC
FFFC
FFFC
FFFC
FFFC
FFFC
FFFC
FFFC
FFFC
FFFC
FFFC
FFFC
FFFC
FFFC
FFFC
FFFC
FFFC
FFFC
FFFC
FFFC
FFFC
FFFC
FFFC
FFFC
FFFC
FFFC
FFFC
FFFC
FFFC
FFFC
FFFC
FFFC
FFFC
FFFC
FFFC
FFFC
FFFC
FFFC
FFFC
FFFC
FFFC
FFFC
FFFC
FFFC
FFFC
FFFC
FFFC
FFFC
FFFC
FFFC
FFFC
FFFC
FFFC
FFFC
FFFC
FFFC
FFFC
FFFC
ENDCHAR
STARTCHAR J
ENCODING 74
SWIDTH 708 0
DWIDTH 79 0
BBX 70 81 3 0
BITMAP
00000000000000FFFC
00000000000000FFFC
00000000000000FFFC
00000000000000FFFC
00000000000000FFFC
00000000000000FFFC
00000000000000FFFC
00000000000000FFFC
00000000000000FFFC
00000000000000FFFC
00000000000000FFFC
00000000000000FFFC
00000000000000FFFC
00000000000000FFFC
00000000000000FFFC
00000000000000FFFC
00000000000000FFFC
00000000000000FFFC
00000000000000FFFC
00000000000000FFFC
00000000000000FFFC
00000000000000FFFC
00000000000000FFFC
00000000000000FFFC
00000000000000FFFC
00000000000000FFFC
00000000000000FFFC
00000000000000FFFC
00000000000000FFFC
00000000000000FFFC
00000000000000FFFC
00000000000000FFFC
00000000000000FFFC
00000000000000FFFC
00000000000000FFFC
00000000000000FFFC
00000000000000FFFC
00000000000000FFFC
00000000000000FFFC
00000000000000FFFC
00000000000000FFFC
00000000000000FFFC
00000000000000FFFC
00000000000000FFFC
00000000000000FFFC
00000000000000FFFC
00000000000000FFFC
00000000000000FFFC
00000000000001FFFC
00000000000001FFFC
00000000000001FFF8
00000000000001FFF8
00000000000001FFF8
00000000000003FFF8
00000000000003FFF8
00000000000003FFF8
00000000000007FFF8
00000000000007FFF0
0000000000000FFFF0
0000000000001FFFF0
0000000000003FFFE0
0000000000007FFFE0
000000000000FFFFE0
000000000003FFFFC0
00000000000FFFFFC0
00000000007FFFFF80
000000000FFFFFFF80
FFFFFFFFFFFFFFFF00
FFFFFFFFFFFFFFFE00
FFFFFFFFFFFFFFFC00
FFFFFFFFFFFFFFFC00
FFFFFFFFFFFFFFF800
FFFFFFFFFFFFFFF000
FFFFFFFFFFFFFFC000
FFFFFFFFFFFFFF8000
FFFFFFFFFFFFFE0000
FFFFFFFFFFFFF80000
FFFFFFFFFFFFE00000
FFFFFFFFFFFF000000
FFFFFFFFFFF0000000
FFFFFFFFFE00000000
ENDCHAR
STARTCHAR K
ENCODING 75
SWIDTH 875 0
DWIDTH 97 0
BBX 88 81 7 0
BITMAP
FFFC000000000000FFFFFC
FFFC000000000001FFFFF0
FFFC000000000007FFFFE0
FFFC00000000000FFFFFC0
FFFC00000000001FFFFF00
FFFC00000000003FFFFE00
FFFC0000000000FFFFFC00
FFFC0000000001FFFFF000
FFFC0000000003FFFFE000
FFFC000000000FFFFFC000
FFFC000000001FFFFF0000
FFFC000000003FFFFE0000
FFFC00000000FFFFFC0000
FFFC00000001FFFFF00000
FFFC00000003FFFFE00000
FFFC00000007FFFFC00000
FFFC0000001FFFFF000000
FFFC0000003FFFFE000000
FFFC0000007FFFFC000000
FFFC000001FFFFF0000000
FFFC000003FFFFE0000000
FFFC000007FFFFC0000000
FFFC00000FFFFF00000000
FFFC00003FFFFE00000000
FFFC00007FFFFC00000000
FFFC0000FFFFF000000000
FFFC0003FFFFE000000000
FFFC0007FFFFC000000000
FFFC000FFFFF0000000000
FFFC003FFFFE0000000000
FFFC007FFFFC0000000000
FFFC00FFFFF00000000000
FFFC01FFFFE00000000000
FFFC07FFFFC00000000000
FFFC0FFFFF000000000000
FFFC1FFFFE000000000000
FFFC1FFFFC000000000000
FFFC1FFFF0000000000000
FFFC3FFFE0000000000000
FFFC3FFFC0000000000000
FFFC3FFFE0000000000000
FFFC1FFFF0000000000000
FFFC1FFFF8000000000000
FFFC1FFFFE000000000000
FFFC0FFFFF000000000000
FFFC07FFFF800000000000
FFFC01FFFFE00000000000
FFFC00FFFFF00000000000
FFFC007FFFF80000000000
FFFC001FFFFE0000000000
FFFC000FFFFF0000000000
FFFC0007FFFF8000000000
FFFC0003FFFFE000000000
FFFC0000FFFFF000000000
FFFC00007FFFF800000000
FFFC00003FFFFE00000000
FFFC00001FFFFF00000000
FFFC000007FFFF80000000
FFFC000003FFFFC0000000
FFFC000001FFFFF0000000
FFFC000000FFFFF8000000
FFFC0000003FFFFC000000
FFFC0000001FFFFF000000
FFFC0000000FFFFF800000
FFFC00000003FFFFC00000
FFFC00000001FFFFF00000
FFFC00000000FFFFF80000
FFFC000000007FFFFC0000
FFFC000000001FFFFF0000
FFFC000000000FFFFF8000
FFFC0000000007FFFFC000
FFFC0000000003FFFFF000
FFFC0000000000FFFFF800
FFFC00000000007FFFFC00
FFFC00000000003FFFFE00
FFFC00000000000FFFFF80
FFFC000000000007FFFFC0
FFFC000000000003FFFFE0
FFFC000000000001FFFFF8
FFFC0000000000007FFFFC
FFFC0000000000003FFFFF
ENDCHAR
STARTCHAR L
ENCODING 76
SWIDTH 707 0
DWIDTH 78 0
BBX 68 81 7 0
BITMAP
FFFC00000000000000
FFFC00000000000000
FFFC00000000000000
FFFC00000000000000
FFFC00000000000000
FFFC00000000000000
FFFC00000000000000
FFFC00000000000000
FFFC00000000000000
FFFC00000000000000
FFFC00000000000000
FFFC00000000000000
FFFC00000000000000
FFFC00000000000000
FFFC00000000000000
FFFC00000000000000
FFFC00000000000000
FFFC00000000000000
FFFC00000000000000
FFFC00000000000000
FFFC00000000000000
FFFC00000000000000
FFFC00000000000000
FFFC00000000000000
FFFC00000000000000
FFFC00000000000000
FFFC00000000000000
FFFC00000000000000
FFFC00000000000000
FFFC00000000000000
FFFC00000000000000
FFFC00000000000000
FFFC00000000000000
FFFC00000000000000
FFFC00000000000000
FFFC00000000000000
FFFC00000000000000
FFFC00000000000000
FFFC00000000000000
FFFC00000000000000
FFFC00000000000000
FFFC00000000000000
FFFC00000000000000
FFFC00000000000000
FFFC00000000000000
FFFC00000000000000
FFFC00000000000000
FFFC00000000000000
FFFC00000000000000
FFFC00000000000000
FFFC00000000000000
FFFC00000000000000
FFFC00000000000000
FFFC00000000000000
FFFC00000000000000
FFFC00000000000000
FFFC00000000000000
FFFC00000000000000
FFFC00000000000000
FFFC00000000000000
FFFC00000000000000
FFFC00000000000000
FFFC00000000000000
FFFC00000000000000
FFFC00000000000000
FFFC00000000000000
FFFC00000000000000
FFFFFFFFFFFFFFFFF0
FFFFFFFFFFFFFFFFF0
FFFFFFFFFFFFFFFFF0
FFFFFFFFFFFFFFFFF0
FFFFFFFFFFFFFFFFF0
FFFFFFFFFFFFFFFFF0
FFFFFFFFFFFFFFFFF0
FFFFFFFFFFFFFFFFF0
FFFFFFFFFFFFFFFFF0
FFFFFFFFFFFFFFFFF0
FFFFFFFFFFFFFFFFF0
FFFFFFFFFFFFFFFFF0
FFFFFFFFFFFFFFFFF0
FFFFFFFFFFFFFFFFF0
ENDCHAR
STARTCHAR M
ENCODING 77
SWIDTH 1115 0
DWIDTH 124 0
BBX 118 82 3 -1
BITMAP
0000007C00000000000000FC000000
000001FF00000000000001FE000000
000003FF80000000000003FF000000
000007FFC0000000000007FF800000
000007FFC000000000000FFF800000
00000FFFE000000000000FFFC00000
00000FFFE000000000001FFFC00000
00000FFFF000000000001FFFC00000
00000FFFF000000000001FFFE00000
00001FFFF800000000003FFFE00000
00001FFFF800000000003FFFE00000
00001FFFF800000000007FFFE00000
00001FFFFC00000000007FFFF00000
00003FFFFC0000000000FFFFF00000
00003FFFFE0000000000FFFFF00000
00003FFFFE0000000000FFFFF00000
00007FFFFF0000000001FFFFF80000
00007FFFFF0000000001FFFFF80000
00007FFFFF8000000003FFFFF80000
00007FFFFF8000000003FFFFFC0000
0000FFFFFF8000000007FFFFFC0000
0000FFFFFFC000000007FFFFFC0000
0000FFFFFFC00000000FFFFFFC0000
0000FFFFFFE00000000FFFFFFE0000
0001FFFFFFE00000000FFFFFFE0000
0001FFFFFFF00000001FFFFFFE0000
0001FFFBFFF00000001FFF7FFE0000
0003FFF3FFF80000003FFF3FFF0000
0003FFF1FFF80000003FFE3FFF0000
0003FFF1FFF80000007FFE3FFF0000
0003FFE1FFFC0000007FFE1FFF8000
0007FFE0FFFC000000FFFC1FFF8000
0007FFE0FFFE000000FFFC1FFF8000
0007FFE07FFE000000FFF81FFF8000
000FFFC07FFF000001FFF80FFFC000
000FFFC03FFF000001FFF00FFFC000
000FFFC03FFF000003FFF00FFFC000
000FFFC03FFF800003FFF00FFFE000
001FFF801FFF800007FFE007FFE000
001FFF801FFFC00007FFE007FFE000
001FFF800FFFC00007FFC007FFE000
001FFF000FFFE0000FFFC003FFF000
003FFF0007FFE0000FFF8003FFF000
003FFF0007FFF0001FFF8003FFF000
003FFF0003FFF0001FFF0003FFF000
007FFE0003FFF0003FFF0001FFF800
007FFE0003FFF8003FFF0001FFF800
007FFE0001FFF8007FFE0001FFF800
007FFC0001FFFC007FFE0001FFFC00
00FFFC0000FFFC007FFC0000FFFC00
00FFFC0000FFFE00FFFC0000FFFC00
00FFFC00007FFE00FFF80000FFFC00
00FFF800007FFE01FFF800007FFE00
01FFF800003FFF01FFF000007FFE00
01FFF800003FFF03FFF000007FFE00
01FFF800003FFF83FFF000007FFE00
03FFF000001FFF83FFE000003FFF00
03FFF000001FFFC7FFE000003FFF00
03FFF000000FFFC7FFC000003FFF00
03FFE000000FFFEFFFC000001FFF80
07FFE0000007FFEFFF8000001FFF80
07FFE0000007FFFFFF8000001FFF80
07FFE0000007FFFFFF0000001FFF80
0FFFC0000003FFFFFF0000000FFFC0
0FFFC0000003FFFFFF0000000FFFC0
0FFFC0000001FFFFFE0000000FFFC0
0FFFC0000001FFFFFE0000000FFFC0
1FFF80000000FFFFFC00000007FFE0
1FFF80000000FFFFFC00000007FFE0
1FFF800000007FFFF800000007FFE0
1FFF000000007FFFF800000003FFF0
3FFF000000007FFFF000000003FFF0
3FFF000000003FFFF000000003FFF0
3FFF000000003FFFF000000003FFF0
7FFE000000001FFFE000000001FFF8
7FFE000000001FFFE000000001FFF8
7FFE000000000FFFC000000001FFF8
7FFE000000000FFFC000000001FFF8
FFFC0000000007FF8000000000FFFC
FFFC0000000007FF0000000000FFFC
FFFC0000000003FE0000000000FFFC
00000000000000FC00000000000000
ENDCHAR
STARTCHAR N
ENCODING 78
SWIDTH 873 0
DWIDTH 97 0
BBX 83 81 7 0
BITMAP
0F8000000000000003FFE0
3FE000000000000003FFE0
7FF800000000000003FFE0
7FFC00000000000003FFE0
FFFE00000000000003FFE0
FFFF00000000000003FFE0
FFFF80000000000003FFE0
FFFFC0000000000003FFE0
FFFFE0000000000003FFE0
FFFFF0000000000003FFE0
FFFFF8000000000003FFE0
FFFFFC000000000003FFE0
FFFFFE000000000003FFE0
FFFFFF000000000003FFE0
FFFFFF800000000003FFE0
FFFFFFC00000000003FFE0
FFFFFFE00000000003FFE0
FFFFFFF00000000003FFE0
FFFFFFF80000000003FFE0
FFFFFFFC0000000003FFE0
FFFFFFFE0000000003FFE0
FFFFFFFF0000000003FFE0
FFFFFFFF8000000003FFE0
FFFBFFFFC000000003FFE0
FFF9FFFFE000000003FFE0
FFF8FFFFF000000003FFE0
FFF87FFFF800000003FFE0
FFF83FFFFC00000003FFE0
FFF81FFFFE00000003FFE0
FFF80FFFFF00000003FFE0
FFF807FFFF80000003FFE0
FFF803FFFFC0000003FFE0
FFF801FFFFE0000003FFE0
FFF800FFFFF0000003FFE0
FFF8007FFFF8000003FFE0
FFF8003FFFFC000003FFE0
FFF8001FFFFE000003FFE0
FFF8000FFFFF000003FFE0
FFF80007FFFF800003FFE0
FFF80003FFFFC00003FFE0
FFF80001FFFFE00003FFE0
FFF80000FFFFF00003FFE0
FFF800007FFFF80003FFE0
FFF800003FFFFC0003FFE0
FFF800001FFFFE0003FFE0
FFF800000FFFFF0003FFE0
FFF8000007FFFF8003FFE0
FFF8000001FFFFC003FFE0
FFF8000000FFFFE003FFE0
FFF80000007FFFF003FFE0
FFF80000003FFFF803FFE0
FFF80000001FFFFC03FFE0
FFF80000000FFFFE03FFE0
FFF800000007FFFF03FFE0
FFF800000003FFFF83FFE0
FFF800000001FFFFC3FFE0
FFF800000000FFFFE3FFE0
FFF8000000007FFFF3FFE0
FFF8000000003FFFFBFFE0
FFF8000000001FFFFFFFE0
FFF8000000000FFFFFFFE0
FFF80000000007FFFFFFE0
FFF80000000003FFFFFFE0
FFF80000000001FFFFFFE0
FFF80000000000FFFFFFE0
FFF800000000007FFFFFE0
FFF800000000003FFFFFE0
FFF800000000001FFFFFE0
FFF800000000000FFFFFE0
FFF8000000000007FFFFE0
FFF8000000000003FFFFE0
FFF8000000000001FFFFE0
FFF8000000000000FFFFE0
FFF80000000000007FFFE0
FFF80000000000003FFFE0
FFF80000000000001FFFE0
FFF80000000000000FFFE0
FFF800000000000007FFC0
FFF800000000000003FFC0
FFF800000000000000FF80
FFF8000000000000007E00
ENDCHAR
STARTCHAR O
ENCODING 79
SWIDTH 968 0
DWIDTH 107 0
BBX 98 81 5 0
BITMAP
00000000FFFFFFFFC000000000
0000001FFFFFFFFFFC00000000
000000FFFFFFFFFFFF80000000
000003FFFFFFFFFFFFF0000000
00000FFFFFFFFFFFFFFC000000
00003FFFFFFFFFFFFFFF000000
0000FFFFFFFFFFFFFFFF800000
0001FFFFFFFFFFFFFFFFE00000
0007FFFFFFFFFFFFFFFFF00000
000FFFFFFFFFFFFFFFFFF80000
001FFFFFFFFFFFFFFFFFFC0000
003FFFFFFFFFFFFFFFFFFE0000
007FFFFFFFFFFFFFFFFFFF0000
00FFFFFFFFFFFFFFFFFFFF8000
00FFFFFFE0000001FFFFFFC000
01FFFFFC000000001FFFFFE000
03FFFFF00000000003FFFFE000
03FFFFC00000000001FFFFF000
07FFFF0000000000007FFFF800
0FFFFE0000000000003FFFF800
0FFFFC0000000000000FFFFC00
1FFFF800000000000007FFFC00
1FFFF000000000000003FFFE00
1FFFE000000000000003FFFE00
3FFFC000000000000001FFFE00
3FFFC000000000000000FFFF00
7FFF8000000000000000FFFF00
7FFF80000000000000007FFF00
7FFF00000000000000007FFF80
7FFF00000000000000003FFF80
FFFE00000000000000003FFF80
FFFE00000000000000001FFF80
FFFE00000000000000001FFF80
FFFE00000000000000001FFFC0
FFFC00000000000000001FFFC0
FFFC00000000000000000FFFC0
FFFC00000000000000000FFFC0
FFFC00000000000000000FFFC0
FFFC00000000000000000FFFC0
FFFC00000000000000000FFFC0
FFFC00000000000000000FFFC0
FFFC00000000000000000FFFC0
FFFC00000000000000000FFFC0
FFFC00000000000000000FFFC0
FFFC00000000000000000FFFC0
FFFC00000000000000001FFFC0
FFFC00000000000000001FFFC0
FFFE00000000000000001FFF80
FFFE00000000000000001FFF80
7FFE00000000000000003FFF80
7FFE00000000000000003FFF80
7FFF00000000000000003FFF80
7FFF00000000000000007FFF00
3FFF80000000000000007FFF00
3FFF8000000000000000FFFF00
3FFFC000000000000000FFFE00
1FFFE000000000000001FFFE00
1FFFE000000000000003FFFC00
0FFFF000000000000003FFFC00
0FFFF800000000000007FFFC00
07FFFC0000000000000FFFF800
07FFFE0000000000003FFFF000
03FFFF8000000000007FFFF000
03FFFFC00000000001FFFFE000
01FFFFF00000000007FFFFE000
00FFFFFC000000001FFFFFC000
00FFFFFFE0000001FFFFFF8000
007FFFFFFFFFFFFFFFFFFF0000
003FFFFFFFFFFFFFFFFFFE0000
001FFFFFFFFFFFFFFFFFFC0000
000FFFFFFFFFFFFFFFFFFC0000
0007FFFFFFFFFFFFFFFFF00000
0003FFFFFFFFFFFFFFFFE00000
0000FFFFFFFFFFFFFFFFC00000
00007FFFFFFFFFFFFFFF000000
00001FFFFFFFFFFFFFFE000000
00000FFFFFFFFFFFFFF8000000
000003FFFFFFFFFFFFE0000000
0000007FFFFFFFFFFF80000000
0000000FFFFFFFFFFC00000000
00000000FFFFFFFF8000000000
ENDCHAR
STARTCHAR P
ENCODING 80
SWIDTH 867 0
DWIDTH 96 0
BBX 86 81 7 0
BITMAP
FFFFFFFFFFFFFFFE000000
FFFFFFFFFFFFFFFFE00000
FFFFFFFFFFFFFFFFFC0000
FFFFFFFFFFFFFFFFFF0000
FFFFFFFFFFFFFFFFFFC000
FFFFFFFFFFFFFFFFFFF000
FFFFFFFFFFFFFFFFFFF800
FFFFFFFFFFFFFFFFFFFC00
FFFFFFFFFFFFFFFFFFFE00
FFFFFFFFFFFFFFFFFFFF00
FFFFFFFFFFFFFFFFFFFF80
FFFFFFFFFFFFFFFFFFFF80
FFFFFFFFFFFFFFFFFFFFC0
FFFFFFFFFFFFFFFFFFFFE0
FFFC000000000007FFFFE0
FFFC000000000000FFFFF0
FFFC0000000000003FFFF0
FFFC0000000000001FFFF0
FFFC0000000000000FFFF8
FFFC00000000000007FFF8
FFFC00000000000003FFF8
FFFC00000000000001FFF8
FFFC00000000000001FFFC
FFFC00000000000000FFFC
FFFC00000000000000FFFC
FFFC00000000000000FFFC
FFFC00000000000000FFFC
FFFC00000000000000FFFC
FFFC00000000000000FFFC
FFFC00000000000000FFFC
FFFC00000000000000FFFC
FFFC00000000000000FFFC
FFFC00000000000000FFFC
FFFC00000000000000FFFC
FFFC00000000000000FFFC
FFFC00000000000000FFFC
FFFC00000000000001FFFC
FFFC00000000000001FFF8
FFFC00000000000003FFF8
FFFC00000000000007FFF8
FFFC00000000000007FFF8
FFFC0000000000001FFFF0
FFFC0000000000003FFFF0
FFFC000000000000FFFFE0
FFFC000000000007FFFFE0
FFFC00FFFFFFFFFFFFFFC0
FFFC00FFFFFFFFFFFFFFC0
FFFC00FFFFFFFFFFFFFF80
FFFC00FFFFFFFFFFFFFF00
FFFC00FFFFFFFFFFFFFF00
FFFC00FFFFFFFFFFFFFE00
FFFC00FFFFFFFFFFFFFC00
FFFC00FFFFFFFFFFFFF800
FFFC00FFFFFFFFFFFFE000
FFFC00FFFFFFFFFFFFC000
FFFC00FFFFFFFFFFFF0000
FFFC00FFFFFFFFFFFC0000
FFFC00FFFFFFFFFFF00000
FFFC00FFFFFFFFFF000000
FFFC000000000000000000
FFFC000000000000000000
FFFC000000000000000000
FFFC000000000000000000
FFFC000000000000000000
FFFC000000000000000000
FFFC000000000000000000
FFFC000000000000000000
FFFC000000000000000000
FFFC000000000000000000
FFFC000000000000000000
FFFC000000000000000000
FFFC000000000000000000
FFFC000000000000000000
FFFC000000000000000000
FFFC000000000000000000
FFFC000000000000000000
FFFC000000000000000000
FFFC000000000000000000
FFFC000000000000000000
FFFC000000000000000000
FFFC000000000000000000
ENDCHAR
STARTCHAR Q
ENCODING 81
SWIDTH 968 0
DWIDTH 107 0
BBX 102 81 5 0
BITMAP
00000000FFFFFFFFC000000000
0000001FFFFFFFFFFC00000000
000000FFFFFFFFFFFF80000000
000003FFFFFFFFFFFFF0000000
00000FFFFFFFFFFFFFFC000000
00003FFFFFFFFFFFFFFF000000
0000FFFFFFFFFFFFFFFF800000
0001FFFFFFFFFFFFFFFFE00000
0007FFFFFFFFFFFFFFFFF00000
000FFFFFFFFFFFFFFFFFF80000
001FFFFFFFFFFFFFFFFFFC0000
003FFFFFFFFFFFFFFFFFFE0000
007FFFFFFFFFFFFFFFFFFF0000
00FFFFFFFFFFFFFFFFFFFF8000
00FFFFFFE0000001FFFFFFC000
01FFFFFC000000001FFFFFE000
03FFFFF00000000003FFFFE000
03FFFFC00000000001FFFFF000
07FFFF0000000000007FFFF800
0FFFFE0000000000003FFFF800
0FFFFC0000000000000FFFFC00
1FFFF800000000000007FFFC00
1FFFF000000000000003FFFE00
1FFFE000000000000003FFFE00
3FFFC000000000000001FFFE00
3FFFC000000000000000FFFF00
7FFF8000000000000000FFFF00
7FFF80000000000000007FFF00
7FFF00000000000000007FFF80
7FFF00000000000000003FFF80
FFFE00000000000000003FFF80
FFFE00000000000000001FFF80
FFFE00000000000000001FFF80
FFFE00000000000000001FFFC0
FFFC00000000000000001FFFC0
FFFC00000000000000000FFFC0
FFFC00000000000000000FFFC0
FFFC00000000000000000FFFC0
FFFC00000000000000000FFFC0
FFFC00000000000000000FFFC0
FFFC00000000000000000FFFC0
FFFC00000000000000000FFFC0
FFFC00000000000000000FFFC0
FFFC00000000000000000FFFC0
FFFC00000000000000000FFFC0
FFFC00000000000000001FFFC0
FFFC00000000000000001FFFC0
FFFE00000020000000001FFF80
FFFE0000001FFFFC00001FFF80
7FFE00000007FFFE00003FFF80
7FFE00000003FFFF00003FFF80
7FFF00000001FFFF80003FFF80
7FFF00000000FFFFE0007FFF00
3FFF800000003FFFF0007FFF00
3FFF800000001FFFF800FFFF00
3FFFC00000000FFFFC00FFFE00
1FFFE000000007FFFE01FFFE00
1FFFE000000001FFFF83FFFC00
0FFFF000000000FFFFC7FFFC00
0FFFF8000000007FFFE7FFFC00
07FFFC000000001FFFFFFFF800
07FFFE000000000FFFFFFFF000
03FFFF8000000007FFFFFFF000
03FFFFC000000003FFFFFFE000
01FFFFF000000000FFFFFFE000
00FFFFFC000000007FFFFFC000
00FFFFFFE0000001FFFFFF8000
007FFFFFFFFFFFFFFFFFFF0000
003FFFFFFFFFFFFFFFFFFE0000
001FFFFFFFFFFFFFFFFFFE0000
000FFFFFFFFFFFFFFFFFFF0000
0007FFFFFFFFFFFFFFFFFFC000
0003FFFFFFFFFFFFFFFFFFE000
0000FFFFFFFFFFFFFFFFFFF000
00007FFFFFFFFFFFFFFFFFFC00
00001FFFFFFFFFFFFFFFFFFE00
00000FFFFFFFFFFFFFFBFFFF00
000003FFFFFFFFFFFFE1FFFFC0
0000007FFFFFFFFFFF80FFFFE0
0000000FFFFFFFFFFC007FFFF0
00000000FFFFFFFF80001FFFFC
ENDCHAR
STARTCHAR R
ENCODING 82
SWIDTH 921 0
DWIDTH 102 0
BBX 95 81 7 0
BITMAP
FFFFFFFFFFFFFFFF00000000
FFFFFFFFFFFFFFFFF8000000
FFFFFFFFFFFFFFFFFE000000
FFFFFFFFFFFFFFFFFF800000
FFFFFFFFFFFFFFFFFFE00000
FFFFFFFFFFFFFFFFFFF80000
FFFFFFFFFFFFFFFFFFFC0000
FFFFFFFFFFFFFFFFFFFE0000
FFFFFFFFFFFFFFFFFFFF0000
FFFFFFFFFFFFFFFFFFFF8000
FFFFFFFFFFFFFFFFFFFFC000
FFFFFFFFFFFFFFFFFFFFC000
FFFFFFFFFFFFFFFFFFFFE000
FFFFFFFFFFFFFFFFFFFFF000
FFFC000000000003FFFFF000
FFFC0000000000007FFFF800
FFFC0000000000001FFFF800
FFFC00000000000007FFF800
FFFC00000000000003FFFC00
FFFC00000000000001FFFC00
FFFC00000000000001FFFC00
FFFC00000000000000FFFC00
FFFC00000000000000FFFE00
FFFC000000000000007FFE00
FFFC000000000000007FFE00
FFFC000000000000007FFE00
FFFC000000000000007FFE00
FFFC000000000000007FFE00
FFFC000000000000007FFE00
FFFC000000000000007FFE00
FFFC000000000000007FFE00
FFFC000000000000007FFE00
FFFC000000000000007FFE00
FFFC000000000000007FFE00
FFFC000000000000007FFE00
FFFC000000000000007FFE00
FFFC00000000000000FFFE00
FFFC00000000000000FFFC00
FFFC00000000000000FFFC00
FFFC00000000000001FFFC00
FFFC00000000000001FFFC00
FFFC00000000000003FFF800
FFFC00000000000007FFF800
FFFC0000000000000FFFF000
FFFC0000000000003FFFF000
FFFC000000000001FFFFE000
FFFC00FFFFFFFFFFFFFFE000
FFFC00FFFFFFFFFFFFFFC000
FFFC00FFFFFFFFFFFFFF8000
FFFC00FFFFFFFFFFFFFF0000
FFFC00FFFFFFFFFFFFFE0000
FFFC00FFFFFFFFFFFFFC0000
FFFC00FFFFFFFFFFFFF80000
FFFC00FFFFFFFFFFFFF00000
FFFC00FFFFFFFFFFFFC00000
FFFC00FFFFFFFFFFFF000000
FFFC00FFFFFFFFFFFE000000
FFFC00FFFFFFFFFFFF000000
FFFC0000000001FFFF800000
FFFC0000000000FFFFC00000
FFFC00000000007FFFE00000
FFFC00000000003FFFF00000
FFFC00000000001FFFF80000
FFFC00000000001FFFFC0000
FFFC00000000000FFFFE0000
FFFC000000000007FFFF0000
FFFC000000000003FFFF8000
FFFC000000000001FFFFC000
FFFC000000000000FFFFE000
FFFC0000000000007FFFF000
FFFC0000000000003FFFF800
FFFC0000000000003FFFFC00
FFFC0000000000001FFFFE00
FFFC0000000000000FFFFF00
FFFC00000000000007FFFF80
FFFC00000000000003FFFFC0
FFFC00000000000001FFFFE0
FFFC00000000000000FFFFF0
FFFC000000000000007FFFF0
FFFC000000000000003FFFF8
FFFC000000000000003FFFFE
ENDCHAR
STARTCHAR S
ENCODING 83
SWIDTH 880 0
DWIDTH 98 0
BBX 87 81 6 0
BITMAP
00001FFFFFFFFFFFFFFFE0
0001FFFFFFFFFFFFFFFFE0
000FFFFFFFFFFFFFFFFFE0
003FFFFFFFFFFFFFFFFFE0
007FFFFFFFFFFFFFFFFFE0
01FFFFFFFFFFFFFFFFFFE0
03FFFFFFFFFFFFFFFFFFE0
07FFFFFFFFFFFFFFFFFFE0
0FFFFFFFFFFFFFFFFFFFE0
0FFFFFFFFFFFFFFFFFFFE0
1FFFFFFFFFFFFFFFFFFFE0
3FFFFFFFFFFFFFFFFFFFE0
3FFFFFFFFFFFFFFFFFFFE0
7FFFFFFFFFFFFFFFFFFFE0
7FFFF80000000000000000
7FFFE00000000000000000
FFFF800000000000000000
FFFF000000000000000000
FFFF000000000000000000
FFFE000000000000000000
FFFE000000000000000000
FFFE000000000000000000
FFFE000000000000000000
FFFC000000000000000000
FFFC000000000000000000
FFFC000000000000000000
FFFE000000000000000000
FFFE000000000000000000
FFFE000000000000000000
7FFF000000000000000000
7FFF000000000000000000
7FFF800000000000000000
3FFFE00000000000000000
3FFFF80000000000000000
1FFFFFFFFFFFFFFFF00000
1FFFFFFFFFFFFFFFFF8000
0FFFFFFFFFFFFFFFFFE000
07FFFFFFFFFFFFFFFFF800
07FFFFFFFFFFFFFFFFFE00
03FFFFFFFFFFFFFFFFFF00
00FFFFFFFFFFFFFFFFFF80
007FFFFFFFFFFFFFFFFFC0
003FFFFFFFFFFFFFFFFFE0
000FFFFFFFFFFFFFFFFFE0
0001FFFFFFFFFFFFFFFFF0
00003FFFFFFFFFFFFFFFF0
00000000000000003FFFF8
000000000000000007FFF8
000000000000000003FFF8
000000000000000001FFFC
000000000000000000FFFC
000000000000000000FFFC
0000000000000000007FFC
0000000000000000007FFC
0000000000000000007FFC
0000000000000000007FFE
0000000000000000007FFE
0000000000000000007FFE
0000000000000000007FFE
0000000000000000007FFE
0000000000000000007FFC
000000000000000000FFFC
000000000000000001FFFC
000000000000000001FFFC
000000000000000003FFFC
00000000000000000FFFF8
00000000000000007FFFF8
7FFFFFFFFFFFFFFFFFFFF8
7FFFFFFFFFFFFFFFFFFFF0
7FFFFFFFFFFFFFFFFFFFF0
7FFFFFFFFFFFFFFFFFFFE0
7FFFFFFFFFFFFFFFFFFFE0
7FFFFFFFFFFFFFFFFFFFC0
7FFFFFFFFFFFFFFFFFFF80
7FFFFFFFFFFFFFFFFFFF00
7FFFFFFFFFFFFFFFFFFE00
7FFFFFFFFFFFFFFFFFFC00
7FFFFFFFFFFFFFFFFFF000
7FFFFFFFFFFFFFFFFFC000
7FFFFFFFFFFFFFFFFF0000
7FFFFFFFFFFFFFFFF00000
ENDCHAR
STARTCHAR T
ENCODING 84
SWIDTH 720 0
DWIDTH 80 0
BBX 76 81 2 0
BITMAP
FFFFFFFFFFFFFFFFFFF0
FFFFFFFFFFFFFFFFFFF0
FFFFFFFFFFFFFFFFFFF0
FFFFFFFFFFFFFFFFFFF0
FFFFFFFFFFFFFFFFFFF0
FFFFFFFFFFFFFFFFFFF0
FFFFFFFFFFFFFFFFFFF0
FFFFFFFFFFFFFFFFFFF0
FFFFFFFFFFFFFFFFFFF0
FFFFFFFFFFFFFFFFFFF0
FFFFFFFFFFFFFFFFFFF0
FFFFFFFFFFFFFFFFFFF0
FFFFFFFFFFFFFFFFFFF0
FFFFFFFFFFFFFFFFFFF0
00000001FFF800000000
00000001FFF800000000
00000001FFF800000000
00000001FFF800000000
00000001FFF800000000
00000001FFF800000000
00000001FFF800000000
00000001FFF800000000
00000001FFF800000000
00000001FFF800000000
00000001FFF800000000
00000001FFF800000000
00000001FFF800000000
00000001FFF800000000
00000001FFF800000000
00000001FFF800000000
00000001FFF800000000
00000001FFF800000000
00000001FFF800000000
00000001FFF800000000
00000001FFF800000000
00000001FFF800000000
00000001FFF800000000
00000001FFF800000000
00000001FFF800000000
00000001FFF800000000
00000001FFF800000000
00000001FFF800000000
00000001FFF800000000
00000001FFF800000000
00000001FFF800000000
00000001FFF800000000
00000001FFF800000000
00000001FFF800000000
00000001FFF800000000
00000001FFF800000000
00000001FFF800000000
00000001FFF800000000
00000001FFF800000000
00000001FFF800000000
00000001FFF800000000
00000001FFF800000000
00000001FFF800000000
00000001FFF800000000
00000001FFF800000000
00000001FFF800000000
00000001FFF800000000
00000001FFF800000000
00000001FFF800000000
00000001FFF800000000
00000001FFF800000000
00000001FFF800000000
00000001FFF800000000
00000001FFF800000000
00000001FFF800000000
00000001FFF800000000
00000001FFF800000000
00000001FFF800000000
00000001FFF800000000
00000001FFF800000000
00000001FFF800000000
00000001FFF800000000
00000001FFF800000000
00000001FFF800000000
00000001FFF800000000
00000001FFF800000000
00000001FFF800000000
ENDCHAR
STARTCHAR U
ENCODING 85
SWIDTH 889 0
DWIDTH 99 0
BBX 87 82 6 -1
BITMAP
FFFC000000000000007FFE
FFFC000000000000007FFE
FFFC000000000000007FFE
FFFC000000000000007FFE
FFFC000000000000007FFE
FFFC000000000000007FFE
FFFC000000000000007FFE
FFFC000000000000007FFE
FFFC000000000000007FFE
FFFC000000000000007FFE
FFFC000000000000007FFE
FFFC000000000000007FFE
FFFC000000000000007FFE
FFFC000000000000007FFE
FFFC000000000000007FFE
FFFC000000000000007FFE
FFFC000000000000007FFE
FFFC000000000000007FFE
FFFC000000000000007FFE
FFFC000000000000007FFE
FFFC000000000000007FFE
FFFC000000000000007FFE
FFFC000000000000007FFE
FFFC000000000000007FFE
FFFC000000000000007FFE
FFFC000000000000007FFE
FFFC000000000000007FFE
FFFC000000000000007FFE
FFFC000000000000007FFE
FFFC000000000000007FFE
FFFC000000000000007FFE
FFFC000000000000007FFE
FFFC000000000000007FFE
FFFC000000000000007FFE
FFFC000000000000007FFE
FFFC000000000000007FFE
FFFC000000000000007FFE
FFFC000000000000007FFE
FFFC000000000000007FFE
FFFC000000000000007FFE
FFFC000000000000007FFE
FFFC000000000000007FFE
FFFC000000000000007FFE
FFFC000000000000007FFE
FFFC000000000000007FFE
FFFC000000000000007FFE
FFFC000000000000007FFE
FFFC000000000000007FFE
FFFC000000000000007FFE
FFFE000000000000007FFE
FFFE000000000000007FFE
FFFE000000000000007FFE
FFFE00000000000000FFFC
FFFE00000000000000FFFC
FFFE00000000000000FFFC
7FFF00000000000000FFFC
7FFF00000000000001FFFC
7FFF80000000000001FFFC
7FFF80000000000003FFF8
3FFFC0000000000003FFF8
3FFFE0000000000007FFF8
3FFFE000000000000FFFF0
1FFFF000000000001FFFF0
1FFFFC00000000003FFFF0
1FFFFF0000000000FFFFE0
0FFFFFC000000003FFFFE0
0FFFFFF80000001FFFFFC0
07FFFFFFE00007FFFFFFC0
03FFFFFFFFFFFFFFFFFF80
03FFFFFFFFFFFFFFFFFF00
01FFFFFFFFFFFFFFFFFE00
00FFFFFFFFFFFFFFFFFC00
007FFFFFFFFFFFFFFFF800
003FFFFFFFFFFFFFFFF000
000FFFFFFFFFFFFFFFE000
0007FFFFFFFFFFFFFFC000
0001FFFFFFFFFFFFFF0000
00007FFFFFFFFFFFFC0000
00001FFFFFFFFFFFF00000
000003FFFFFFFFFF800000
0000003FFFFFFFF8000000
00000001FFFFFE00000000
ENDCHAR
STARTCHAR V
ENCODING 86
SWIDTH 989 0
DWIDTH 110 0
BBX 106 82 2 -1
BITMAP
FFFF8000000000000000003FFFC0
FFFFC000000000000000007FFF80
7FFFC00000000000000000FFFF80
3FFFE00000000000000000FFFF00
3FFFE00000000000000001FFFE00
1FFFF00000000000000001FFFE00
1FFFF80000000000000003FFFC00
0FFFF80000000000000003FFFC00
07FFFC0000000000000007FFF800
07FFFC000000000000000FFFF000
03FFFE000000000000000FFFF000
03FFFF000000000000001FFFE000
01FFFF000000000000001FFFE000
00FFFF800000000000003FFFC000
00FFFF800000000000007FFF8000
007FFFC00000000000007FFF8000
007FFFC0000000000000FFFF0000
003FFFE0000000000000FFFF0000
001FFFF0000000000001FFFE0000
001FFFF0000000000001FFFC0000
000FFFF8000000000003FFFC0000
000FFFF8000000000007FFF80000
0007FFFC000000000007FFF80000
0003FFFE00000000000FFFF00000
0003FFFE00000000000FFFE00000
0001FFFF00000000001FFFE00000
0001FFFF00000000003FFFC00000
0000FFFF80000000003FFFC00000
00007FFF80000000007FFF800000
00007FFFC0000000007FFF000000
00003FFFE000000000FFFF000000
00003FFFE000000000FFFE000000
00001FFFF000000001FFFE000000
00000FFFF000000003FFFC000000
00000FFFF800000003FFF8000000
000007FFFC00000007FFF8000000
000007FFFC00000007FFF0000000
000003FFFE0000000FFFF0000000
000001FFFE0000001FFFE0000000
000001FFFF0000001FFFC0000000
000000FFFF0000003FFFC0000000
000000FFFF8000003FFF80000000
0000007FFFC000007FFF80000000
0000003FFFC000007FFF00000000
0000003FFFE00000FFFE00000000
0000001FFFE00001FFFE00000000
0000001FFFF00001FFFC00000000
0000000FFFF80003FFFC00000000
00000007FFF80003FFF800000000
00000007FFFC0007FFF000000000
00000003FFFC000FFFF000000000
00000003FFFE000FFFE000000000
00000001FFFE001FFFE000000000
00000000FFFF001FFFC000000000
00000000FFFF803FFF8000000000
000000007FFF803FFF8000000000
000000007FFFC07FFF0000000000
000000003FFFC0FFFF0000000000
000000001FFFE0FFFE0000000000
000000001FFFF1FFFC0000000000
000000000FFFF1FFFC0000000000
000000000FFFFBFFF80000000000
0000000007FFFFFFF80000000000
0000000003FFFFFFF00000000000
0000000003FFFFFFE00000000000
0000000001FFFFFFE00000000000
0000000001FFFFFFC00000000000
0000000000FFFFFFC00000000000
00000000007FFFFF800000000000
00000000007FFFFF000000000000
00000000003FFFFF000000000000
00000000003FFFFE000000000000
00000000001FFFFE000000000000
00000000000FFFFC000000000000
00000000000FFFF8000000000000
000000000007FFF8000000000000
000000000007FFF0000000000000
000000000003FFF0000000000000
000000000001FFE0000000000000
000000000001FFC0000000000000
000000000000FF80000000000000
0000000000003E00000000000000
ENDCHAR
STARTCHAR W
ENCODING 87
SWIDTH 1268 0
DWIDTH 141 0
BBX 137 82 2 -1
BITMAP
FFFF800000FFFFC0000000000000007FFF80
FFFF8000007FFFC0000000000000007FFF00
7FFFC000003FFFE000000000000000FFFF00
7FFFC000003FFFE000000000000001FFFE00
3FFFE000001FFFF000000000000001FFFE00
1FFFE000001FFFF000000000000003FFFC00
1FFFF000000FFFF800000000000003FFFC00
0FFFF000000FFFF800000000000007FFF800
0FFFF8000007FFFC00000000000007FFF800
07FFF8000007FFFC0000000000000FFFF000
07FFFC000003FFFE0000000000000FFFE000
03FFFC000003FFFE0000000000001FFFE000
03FFFE000001FFFF0000000000001FFFC000
01FFFE000001FFFF0000000000003FFFC000
01FFFF000000FFFF8000000000003FFF8000
00FFFF800000FFFF8000000000007FFF8000
00FFFF8000007FFFC000000000007FFF0000
007FFFC000007FFFC00000000000FFFF0000
003FFFC000003FFFE00000000000FFFE0000
003FFFE000003FFFE00000000001FFFE0000
001FFFE000001FFFF00000000001FFFC0000
001FFFF000001FFFF00000000003FFFC0000
000FFFF000000FFFF80000000007FFF80000
000FFFF800000FFFF80000000007FFF00000
0007FFF8000007FFFC000000000FFFF00000
0007FFFC000007FFFC000000000FFFE00000
0003FFFC000003FFFE000000001FFFE00000
0003FFFE000003FFFE000000001FFFC00000
0001FFFE000001FFFF000000003FFFC00000
0001FFFF000001FFFF000000003FFF800000
0000FFFF000000FFFF800000007FFF800000
0000FFFF800000FFFF800000007FFF000000
00007FFF8000007FFFC0000000FFFF000000
00003FFFC000003FFFC0000000FFFE000000
00003FFFC000003FFFE0000001FFFE000000
00001FFFE000001FFFE0000001FFFC000000
00001FFFE000001FFFF0000003FFF8000000
00000FFFF000000FFFF0000003FFF8000000
00000FFFF800000FFFF8000007FFF0000000
000007FFF8000007FFF8000007FFF0000000
000007FFFC000007FFF800000FFFE0000000
000003FFFC000007FFFC00001FFFE0000000
000003FFFE00000FFFFC00001FFFC0000000
000001FFFE00000FFFFE00003FFFC0000000
000001FFFF00001FFFFE00003FFF80000000
000000FFFF00001FFFFF00007FFF80000000
0000007FFF80003FFFFF00007FFF00000000
0000007FFF80007FFFFF8000FFFF00000000
0000003FFFC0007FFFFF8000FFFE00000000
0000003FFFC000FFFFFFC001FFFC00000000
0000001FFFE000FFFFFFC001FFFC00000000
0000001FFFE001FFFFFFE003FFF800000000
0000000FFFF001FFFFFFE003FFF800000000
0000000FFFF003FFFFFFF007FFF000000000
00000007FFF803FFFFFFF007FFF000000000
00000007FFF807FFF7FFF80FFFE000000000
00000003FFFC0FFFE3FFF80FFFE000000000
00000003FFFC0FFFE3FFFC1FFFC000000000
00000001FFFE1FFFC1FFFC1FFFC000000000
00000000FFFF1FFFC1FFFE3FFF8000000000
00000000FFFF3FFF80FFFE3FFF8000000000
000000007FFFBFFF80FFFF7FFF0000000000
000000007FFFFFFF007FFFFFFE0000000000
000000003FFFFFFE007FFFFFFE0000000000
000000003FFFFFFE003FFFFFFC0000000000
000000001FFFFFFC003FFFFFFC0000000000
000000001FFFFFFC001FFFFFF80000000000
000000000FFFFFF8001FFFFFF80000000000
000000000FFFFFF8000FFFFFF00000000000
0000000007FFFFF0000FFFFFF00000000000
0000000007FFFFF00007FFFFE00000000000
0000000003FFFFE00003FFFFE00000000000
0000000001FFFFE00003FFFFC00000000000
0000000001FFFFC00001FFFFC00000000000
0000000000FFFFC00001FFFF800000000000
0000000000FFFF800000FFFF000000000000
00000000007FFF000000FFFF000000000000
00000000007FFF0000007FFE000000000000
00000000003FFE0000007FFE000000000000
00000000001FFC0000003FFC000000000000
00000000000FF80000001FF8000000000000
000000000003E000000007E0000000000000
ENDCHAR
STARTCHAR X
ENCODING 88
SWIDTH 1000 0
DWIDTH 111 0
BBX 106 81 2 0
BITMAP
0FFFFE000000000000000FFFFC00
07FFFF800000000000003FFFF800
03FFFFC00000000000007FFFF000
01FFFFE0000000000000FFFFE000
00FFFFF0000000000001FFFFC000
007FFFF8000000000003FFFF8000
003FFFFC000000000007FFFF0000
001FFFFE00000000000FFFFE0000
000FFFFF00000000001FFFFC0000
0007FFFF80000000003FFFF80000
0003FFFFC0000000007FFFF00000
0001FFFFE000000000FFFFC00000
0000FFFFF000000001FFFF800000
00007FFFF800000003FFFF000000
00001FFFFC00000007FFFE000000
00000FFFFE0000000FFFFC000000
000007FFFF0000001FFFF8000000
000003FFFF8000003FFFF0000000
000001FFFFC000007FFFE0000000
000000FFFFE00000FFFFC0000000
0000007FFFF00001FFFF80000000
0000003FFFF80003FFFF00000000
0000001FFFFC0007FFFE00000000
0000000FFFFE000FFFFC00000000
00000007FFFF001FFFF800000000
00000003FFFF803FFFF000000000
00000001FFFFC07FFFE000000000
00000000FFFFE0FFFFC000000000
000000007FFFF1FFFF8000000000
000000003FFFFBFFFF0000000000
000000001FFFFFFFFE0000000000
000000000FFFFFFFFC0000000000
0000000007FFFFFFF80000000000
0000000003FFFFFFF00000000000
0000000001FFFFFFE00000000000
0000000000FFFFFFC00000000000
00000000007FFFFF800000000000
00000000003FFFFF000000000000
00000000001FFFFE000000000000
00000000001FFFFE000000000000
00000000003FFFFF000000000000
00000000007FFFFF800000000000
0000000000FFFFFFC00000000000
0000000001FFFFFFE00000000000
0000000003FFFFFFF00000000000
0000000007FFFFFFF80000000000
000000000FFFFFFFFC0000000000
000000001FFFFFFFFE0000000000
000000003FFFF7FFFF0000000000
000000007FFFE3FFFF8000000000
00000000FFFFC1FFFFC000000000
00000001FFFF80FFFFE000000000
00000003FFFF007FFFF000000000
00000007FFFE003FFFF800000000
0000000FFFFC001FFFFC00000000
0000001FFFF8000FFFFE00000000
0000003FFFF00007FFFF00000000
0000007FFFE00003FFFFC0000000
000000FFFFC00001FFFFE0000000
000001FFFF800000FFFFF0000000
000003FFFF0000007FFFF8000000
00000FFFFE0000003FFFFC000000
00001FFFFC0000001FFFFE000000
00003FFFF00000000FFFFF000000
00007FFFE000000007FFFF800000
0000FFFFC000000003FFFFC00000
0001FFFF8000000001FFFFE00000
0003FFFF0000000000FFFFF00000
0007FFFE00000000007FFFF80000
000FFFFC00000000003FFFFC0000
001FFFF800000000001FFFFE0000
003FFFF000000000000FFFFF0000
007FFFE0000000000007FFFF8000
00FFFFC0000000000003FFFFC000
01FFFF80000000000001FFFFE000
03FFFF00000000000000FFFFF000
07FFFE000000000000003FFFF800
0FFFFC000000000000001FFFFC00
1FFFF8000000000000000FFFFE00
3FFFF00000000000000007FFFF00
FFFFE00000000000000003FFFFC0
ENDCHAR
STARTCHAR Y
ENCODING 89
SWIDTH 926 0
DWIDTH 103 0
BBX 100 81 1 0
BITMAP
FFFFF0000000000000003FFFF0
3FFFF8000000000000007FFFE0
1FFFFC00000000000000FFFFC0
1FFFFC00000000000001FFFF80
0FFFFE00000000000001FFFF80
07FFFF00000000000003FFFF00
03FFFF80000000000007FFFE00
01FFFFC000000000000FFFFC00
00FFFFE000000000001FFFF800
007FFFE000000000003FFFF000
007FFFF000000000007FFFE000
003FFFF800000000007FFFE000
001FFFFC0000000000FFFFC000
000FFFFE0000000001FFFF8000
0007FFFF0000000003FFFF0000
0003FFFF0000000007FFFE0000
0003FFFF800000000FFFFC0000
0001FFFFC00000000FFFF80000
0000FFFFE00000001FFFF80000
00007FFFF00000003FFFF00000
00003FFFF80000007FFFE00000
00001FFFFC000000FFFFC00000
00000FFFFC000001FFFF800000
00000FFFFE000001FFFF000000
000007FFFF000003FFFE000000
000003FFFF800007FFFE000000
000001FFFFC0000FFFFC000000
000000FFFFE0001FFFF8000000
0000007FFFE0003FFFF0000000
0000003FFFF0007FFFE0000000
0000003FFFF8007FFFC0000000
0000001FFFFC00FFFF80000000
0000000FFFFE01FFFF80000000
00000007FFFF03FFFF00000000
00000003FFFF07FFFE00000000
00000001FFFF8FFFFC00000000
00000000FFFFCFFFF800000000
00000000FFFFFFFFF000000000
000000007FFFFFFFE000000000
000000003FFFFFFFE000000000
000000001FFFFFFFC000000000
000000000FFFFFFF8000000000
0000000007FFFFFF0000000000
0000000003FFFFFE0000000000
0000000003FFFFFC0000000000
0000000001FFFFF80000000000
0000000000FFFFF80000000000
00000000007FFFF00000000000
00000000003FFFE00000000000
00000000001FFFC00000000000
00000000001FFF800000000000
00000000001FFF800000000000
00000000001FFF800000000000
00000000001FFF800000000000
00000000001FFF800000000000
00000000001FFF800000000000
00000000001FFF800000000000
00000000001FFF800000000000
00000000001FFF800000000000
00000000001FFF800000000000
00000000001FFF800000000000
00000000001FFF800000000000
00000000001FFF800000000000
00000000001FFF800000000000
00000000001FFF800000000000
00000000001FFF800000000000
00000000001FFF800000000000
00000000001FFF800000000000
00000000001FFF800000000000
00000000001FFF800000000000
00000000001FFF800000000000
00000000001FFF800000000000
00000000001FFF800000000000
00000000001FFF800000000000
00000000001FFF800000000000
00000000001FFF800000000000
00000000001FFF800000000000
00000000001FFF800000000000
00000000001FFF800000000000
00000000001FFF800000000000
00000000001FFF800000000000
ENDCHAR
STARTCHAR Z
ENCODING 90
SWIDTH 802 0
DWIDTH 89 0
BBX 80 81 4 0
BITMAP
7FFFFFFFFFFFFFFFFFE0
7FFFFFFFFFFFFFFFFFF8
7FFFFFFFFFFFFFFFFFFC
7FFFFFFFFFFFFFFFFFFE
7FFFFFFFFFFFFFFFFFFF
7FFFFFFFFFFFFFFFFFFF
7FFFFFFFFFFFFFFFFFFF
7FFFFFFFFFFFFFFFFFFF
7FFFFFFFFFFFFFFFFFFF
7FFFFFFFFFFFFFFFFFFF
7FFFFFFFFFFFFFFFFFFE
7FFFFFFFFFFFFFFFFFFE
7FFFFFFFFFFFFFFFFFFC
00000000000000FFFFF8
00000000000001FFFFF0
00000000000003FFFFE0
00000000000007FFFFC0
00000000000007FFFF80
0000000000000FFFFF00
0000000000001FFFFE00
0000000000003FFFFC00
0000000000007FFFF800
000000000000FFFFF000
000000000001FFFFE000
000000000003FFFFC000
000000000007FFFF8000
00000000000FFFFF0000
00000000001FFFFE0000
00000000003FFFFC0000
00000000007FFFF80000
0000000000FFFFF00000
0000000001FFFFE00000
0000000003FFFFC00000
0000000007FFFF800000
000000000FFFFF000000
000000001FFFFE000000
000000003FFFFC000000
000000007FFFF8000000
00000000FFFFF0000000
00000001FFFFF0000000
00000003FFFFE0000000
00000007FFFFC0000000
0000000FFFFF80000000
0000001FFFFF00000000
0000003FFFFE00000000
0000007FFFFC00000000
000000FFFFF800000000
000001FFFFF000000000
000003FFFFE000000000
000007FFFFC000000000
00000FFFFF8000000000
00001FFFFF0000000000
00003FFFFE0000000000
00007FFFFC0000000000
0000FFFFF80000000000
0001FFFFF00000000000
0003FFFFE00000000000
0007FFFFC00000000000
000FFFFF800000000000
001FFFFF000000000000
003FFFFE000000000000
007FFFFC000000000000
00FFFFF8000000000000
01FFFFF0000000000000
03FFFFE0000000000000
07FFFFC0000000000000
0FFFFF80000000000000
1FFFFF00000000000000
1FFFFFFFFFFFFFFFFFFF
3FFFFFFFFFFFFFFFFFFF
7FFFFFFFFFFFFFFFFFFF
7FFFFFFFFFFFFFFFFFFF
7FFFFFFFFFFFFFFFFFFF
FFFFFFFFFFFFFFFFFFFF
FFFFFFFFFFFFFFFFFFFF
7FFFFFFFFFFFFFFFFFFF
7FFFFFFFFFFFFFFFFFFF
7FFFFFFFFFFFFFFFFFFF
3FFFFFFFFFFFFFFFFFFF
1FFFFFFFFFFFFFFFFFFF
07FFFFFFFFFFFFFFFFFF
ENDCHAR
STARTCHAR bracketleft
ENCODING 91
SWIDTH 333 0
DWIDTH 37 0
BBX 19 102 11 -10
BITMAP
FFFFE0
FFFFE0
FFFFE0
FFFFE0
FFFFE0
FFFFE0
FFFFE0
FFFFE0
FFFFE0
FF8000
FF8000
FF8000
FF8000
FF8000
FF8000
FF8000
FF8000
FF8000
FF8000
FF8000
FF8000
FF8000
FF8000
FF8000
FF8000
FF8000
FF8000
FF8000
FF8000
FF8000
FF8000
FF8000
FF8000
FF8000
FF8000
FF8000
FF8000
FF8000
FF8000
FF8000
FF8000
FF8000
FF8000
FF8000
FF8000
FF8000
FF8000
FF8000
FF8000
FF8000
FF8000
FF8000
FF8000
FF8000
FF8000
FF8000
FF8000
FF8000
FF8000
FF8000
FF8000
FF8000
FF8000
FF8000
FF8000
FF8000
FF8000
FF8000
FF8000
FF8000
FF8000
FF8000
FF8000
FF8000
FF8000
FF8000
FF8000
FF8000
FF8000
FF8000
FF8000
FF8000
FF8000
FF8000
FF8000
FF8000
FF8000
FF8000
FF8000
FF8000
FF8000
FF8000
FF8000
FFFFE0
FFFFE0
FFFFE0
FFFFE0
FFFFE0
FFFFE0
FFFFE0
FFFFE0
FFFFE0
ENDCHAR
STARTCHAR backslash
ENCODING 92
SWIDTH 445 0
DWIDTH 49 0
BBX 47 81 1 0
BITMAP
FFC000000000
7FC000000000
7FE000000000
3FE000000000
3FF000000000
1FF000000000
1FF000000000
0FF800000000
0FF800000000
0FFC00000000
07FC00000000
07FE00000000
03FE00000000
03FF00000000
01FF00000000
01FF80000000
00FF80000000
00FFC0000000
007FC0000000
007FE0000000
003FE0000000
003FE0000000
003FF0000000
001FF0000000
001FF8000000
000FF8000000
000FFC000000
0007FC000000
0007FE000000
0003FE000000
0003FF000000
0001FF000000
0001FF800000
0000FF800000
0000FFC00000
0000FFC00000
00007FC00000
00007FE00000
00003FE00000
00003FF00000
00001FF00000
00001FF80000
00000FF80000
00000FFC0000
000007FC0000
000007FE0000
000003FE0000
000003FF0000
000003FF0000
000001FF8000
000001FF8000
000000FFC000
000000FFC000
0000007FC000
0000007FE000
0000003FE000
0000003FF000
0000001FF000
0000001FF800
0000000FF800
0000000FFC00
00000007FC00
00000007FE00
00000007FE00
00000003FF00
00000003FF00
00000001FF80
00000001FF80
00000000FF80
00000000FFC0
000000007FC0
000000007FE0
000000003FE0
000000003FF0
000000001FF0
000000001FF8
000000001FF8
000000000FFC
000000000FFC
0000000007FE
0000000007FE
ENDCHAR
STARTCHAR bracketright
ENCODING 93
SWIDTH 333 0
DWIDTH 37 0
BBX 19 102 7 -10
BITMAP
FFFFE0
FFFFE0
FFFFE0
FFFFE0
FFFFE0
FFFFE0
FFFFE0
FFFFE0
FFFFE0
003FE0
003FE0
003FE0
003FE0
003FE0
003FE0
003FE0
003FE0
003FE0
003FE0
003FE0
003FE0
003FE0
003FE0
003FE0
003FE0
003FE0
003FE0
003FE0
003FE0
003FE0
003FE0
003FE0
003FE0
003FE0
003FE0
003FE0
003FE0
003FE0
003FE0
003FE0
003FE0
003FE0
003FE0
003FE0
003FE0
003FE0
003FE0
003FE0
003FE0
003FE0
003FE0
003FE0
003FE0
003FE0
003FE0
003FE0
003FE0
003FE0
003FE0
003FE0
003FE0
003FE0
003FE0
003FE0
003FE0
003FE0
003FE0
003FE0
003FE0
003FE0
003FE0
003FE0
003FE0
003FE0
003FE0
003FE0
003FE0
003FE0
003FE0
003FE0
003FE0
003FE0
003FE0
003FE0
003FE0
003FE0
003FE0
003FE0
003FE0
003FE0
003FE0
003FE0
003FE0
FFFFE0
FFFFE0
FFFFE0
FFFFE0
FFFFE0
FFFFE0
FFFFE0
FFFFE0
FFFFE0
ENDCHAR
STARTCHAR asciicircum
ENCODING 94
SWIDTH 559 0
DWIDTH 62 0
BBX 48 49 7 32
BITMAP
000003C00000
00000FF00000
00000FF80000
00001FF80000
00001FFC0000
00003FFC0000
00003FFE0000
00007FFE0000
00007FFE0000
00007FFF0000
0000FFFF0000
0000FFFF8000
0001FFFF8000
0001FF7F8000
0003FE7FC000
0003FE7FC000
0003FC3FE000
0007FC3FE000
0007FC1FF000
000FF81FF000
000FF81FF000
001FF00FF800
001FF00FF800
001FF007FC00
003FE007FC00
003FE007FC00
007FC003FE00
007FC003FE00
00FFC001FF00
00FF8001FF00
00FF8001FF80
01FF0000FF80
01FF0000FF80
03FF00007FC0
03FE00007FC0
07FE00007FE0
07FC00003FE0
07FC00003FE0
0FFC00001FF0
0FF800001FF0
1FF800001FF8
1FF000000FF8
1FF000000FFC
3FE0000007FC
3FE0000007FC
7FE0000007FE
7FC0000003FE
FFC0000003FF
FF80000001FF
ENDCHAR
STARTCHAR underscore
ENCODING 95
SWIDTH 668 0
DWIDTH 74 0
BBX 75 7 0 -18
BITMAP
FFFFFFFFFFFFFFFFFFE0
FFFFFFFFFFFFFFFFFFE0
FFFFFFFFFFFFFFFFFFE0
FFFFFFFFFFFFFFFFFFE0
FFFFFFFFFFFFFFFFFFE0
FFFFFFFFFFFFFFFFFFE0
FFFFFFFFFFFFFFFFFFE0
ENDCHAR
STARTCHAR grave
ENCODING 96
SWIDTH 362 0
DWIDTH 40 0
BBX 28 15 6 86
BITMAP
80000000
F8000000
FF000000
FFE00000
FFFE0000
FFFFC000
FFFFF800
FFFFFF80
FFFFFFF0
1FFFFFF0
01FFFFF0
000FFFF0
00007FF0
000007F0
00000030
ENDCHAR
STARTCHAR a
ENCODING 97
SWIDTH 989 0
DWIDTH 110 0
BBX 106 82 2 0
BITMAP
0000000000003E00000000000000
000000000000FF80000000000000
000000000001FFC0000000000000
000000000001FFE0000000000000
000000000003FFF0000000000000
000000000007FFF0000000000000
000000000007FFF8000000000000
00000000000FFFF8000000000000
00000000000FFFFC000000000000
00000000001FFFFE000000000000
00000000003FFFFE000000000000
00000000003FFFFF000000000000
00000000007FFFFF000000000000
00000000007FFFFF800000000000
0000000000FFFFFFC00000000000
0000000001FFFFFFC00000000000
0000000001FFFFFFE00000000000
0000000003FFFFFFE00000000000
0000000003FFFFFFF00000000000
0000000007FFFFFFF80000000000
000000000FFFFFFFF80000000000
000000000FFFF7FFFC0000000000
000000001FFFE3FFFC0000000000
000000001FFFC3FFFE0000000000
000000003FFFC1FFFF0000000000
000000007FFF80FFFF0000000000
000000007FFF80FFFF8000000000
00000000FFFF007FFF8000000000
00000000FFFE007FFFC000000000
00000001FFFE003FFFE000000000
00000003FFFC001FFFE000000000
00000003FFFC001FFFF000000000
00000007FFF8000FFFF000000000
00000007FFF0000FFFF800000000
0000000FFFF00007FFFC00000000
0000001FFFE00003FFFC00000000
0000001FFFE00003FFFE00000000
0000003FFFC00001FFFE00000000
0000003FFF800001FFFF00000000
0000007FFF800000FFFF80000000
000000FFFF0000007FFF80000000
000000FFFF0000007FFFC0000000
000001FFFE0000003FFFC0000000
000001FFFC0000003FFFE0000000
000003FFFC0000001FFFF0000000
000007FFF80000000FFFF0000000
000007FFF80000000FFFF8000000
00000FFFF000000007FFF8000000
00000FFFF000000007FFFC000000
00001FFFE000000003FFFE000000
00003FFFC007FFFFFFFFFE000000
00003FFFC007FFFFFFFFFF000000
00007FFF800FFFFFFFFFFF000000
00007FFF801FFFFFFFFFFF800000
0000FFFF001FFFFFFFFFFFC00000
0001FFFE003FFFFFFFFFFFC00000
0001FFFE003FFFFFFFFFFFE00000
0003FFFC007FFFFFFFFFFFE00000
0003FFFC00FFFFFFFFFFFFF00000
0007FFF800FFFFFFFFFFFFF80000
000FFFF001FFFFFFFFFFFFF80000
000FFFF0000000000007FFFC0000
001FFFE0000000000003FFFC0000
001FFFE0000000000003FFFE0000
003FFFC0000000000001FFFF0000
007FFF80000000000000FFFF0000
007FFF80000000000000FFFF8000
00FFFF000000000000007FFF8000
00FFFF000000000000007FFFC000
01FFFE000000000000003FFFE000
03FFFC000000000000001FFFE000
03FFFC000000000000001FFFF000
07FFF8000000000000000FFFF000
07FFF8000000000000000FFFF800
0FFFF00000000000000007FFFC00
1FFFF00000000000000007FFFC00
1FFFE00000000000000003FFFE00
3FFFC00000000000000001FFFE00
3FFFC00000000000000001FFFF00
7FFF800000000000000000FFFF80
FFFF800000000000000000FFFF80
FFFF0000000000000000007FFFC0
ENDCHAR
STARTCHAR b
ENCODING 98
SWIDTH 891 0
DWIDTH 99 0
BBX 87 81 7 0
BITMAP
FFFFFFFFFFFFFFFFC00000
FFFFFFFFFFFFFFFFFC0000
FFFFFFFFFFFFFFFFFF8000
FFFFFFFFFFFFFFFFFFE000
FFFFFFFFFFFFFFFFFFF800
FFFFFFFFFFFFFFFFFFFC00
FFFFFFFFFFFFFFFFFFFE00
FFFFFFFFFFFFFFFFFFFF00
FFFFFFFFFFFFFFFFFFFF80
FFFFFFFFFFFFFFFFFFFFC0
FFFFFFFFFFFFFFFFFFFFC0
FFFFFFFFFFFFFFFFFFFFE0
FFFFFFFFFFFFFFFFFFFFE0
FFFFFFFFFFFFFFFFFFFFF0
FFFC000000000007FFFFF0
FFFC0000000000007FFFF0
FFFC0000000000001FFFF8
FFFC0000000000000FFFF8
FFFC00000000000007FFF8
FFFC00000000000003FFF8
FFFC00000000000003FFF8
FFFC00000000000001FFF8
FFFC00000000000001FFF8
FFFC00000000000001FFF8
FFFC00000000000001FFF8
FFFC00000000000001FFF8
FFFC00000000000001FFF8
FFFC00000000000003FFF0
FFFC00000000000003FFF0
FFFC00000000000003FFF0
FFFC00000000000007FFE0
FFFC0000000000000FFFE0
FFFC0000000000001FFFC0
FFFC000000000000FFFF80
FFFC00FFFFFFFFFFFFFF00
FFFC00FFFFFFFFFFFFFE00
FFFC00FFFFFFFFFFFFFC00
FFFC00FFFFFFFFFFFFF000
FFFC00FFFFFFFFFFFFC000
FFFC00FFFFFFFFFFFFF800
FFFC00FFFFFFFFFFFFFC00
FFFC00FFFFFFFFFFFFFF00
FFFC00FFFFFFFFFFFFFF80
FFFC00FFFFFFFFFFFFFFC0
FFFC00FFFFFFFFFFFFFFE0
FFFC00FFFFFFFFFFFFFFE0
FFFC0000000000007FFFF0
FFFC0000000000001FFFF8
FFFC00000000000007FFF8
FFFC00000000000003FFF8
FFFC00000000000001FFFC
FFFC00000000000001FFFC
FFFC00000000000000FFFC
FFFC00000000000000FFFC
FFFC00000000000000FFFC
FFFC00000000000000FFFE
FFFC00000000000000FFFE
FFFC00000000000000FFFE
FFFC00000000000000FFFE
FFFC00000000000000FFFC
FFFC00000000000001FFFC
FFFC00000000000001FFFC
FFFC00000000000003FFFC
FFFC00000000000007FFFC
FFFC0000000000001FFFF8
FFFC0000000000007FFFF8
FFFC00000000000FFFFFF8
FFFFFFFFFFFFFFFFFFFFF0
FFFFFFFFFFFFFFFFFFFFF0
FFFFFFFFFFFFFFFFFFFFE0
FFFFFFFFFFFFFFFFFFFFE0
FFFFFFFFFFFFFFFFFFFFC0
FFFFFFFFFFFFFFFFFFFF80
FFFFFFFFFFFFFFFFFFFF00
FFFFFFFFFFFFFFFFFFFE00
FFFFFFFFFFFFFFFFFFFC00
FFFFFFFFFFFFFFFFFFF800
FFFFFFFFFFFFFFFFFFE000
FFFFFFFFFFFFFFFFFF8000
FFFFFFFFFFFFFFFFFE0000
FFFFFFFFFFFFFFFFE00000
ENDCHAR
STARTCHAR c
ENCODING 99
SWIDTH 829 0
DWIDTH 92 0
BBX 83 81 5 0
BITMAP
00000000FFFFFFFFFFFFE0
0000001FFFFFFFFFFFFFE0
000000FFFFFFFFFFFFFFE0
000003FFFFFFFFFFFFFFE0
00000FFFFFFFFFFFFFFFE0
00003FFFFFFFFFFFFFFFE0
0000FFFFFFFFFFFFFFFFE0
0001FFFFFFFFFFFFFFFFE0
0007FFFFFFFFFFFFFFFFE0
000FFFFFFFFFFFFFFFFFE0
001FFFFFFFFFFFFFFFFFE0
003FFFFFFFFFFFFFFFFFE0
007FFFFFFFFFFFFFFFFFE0
00FFFFFFFFFFFFFFFFFFE0
00FFFFFFE0000000000000
01FFFFFC00000000000000
03FFFFF000000000000000
03FFFFC000000000000000
07FFFF0000000000000000
0FFFFE0000000000000000
0FFFFC0000000000000000
1FFFF80000000000000000
1FFFF00000000000000000
1FFFE00000000000000000
3FFFC00000000000000000
3FFFC00000000000000000
7FFF800000000000000000
7FFF800000000000000000
7FFF000000000000000000
7FFF000000000000000000
FFFE000000000000000000
FFFE000000000000000000
FFFE000000000000000000
FFFE000000000000000000
FFFC000000000000000000
FFFC000000000000000000
FFFC000000000000000000
FFFC000000000000000000
FFFC000000000000000000
FFFC000000000000000000
FFFC000000000000000000
FFFC000000000000000000
FFFC000000000000000000
FFFC000000000000000000
FFFC000000000000000000
FFFC000000000000000000
FFFC000000000000000000
FFFE000000000000000000
FFFE000000000000000000
7FFE000000000000000000
7FFE000000000000000000
7FFF000000000000000000
7FFF000000000000000000
3FFF800000000000000000
3FFF800000000000000000
3FFFC00000000000000000
1FFFE00000000000000000
1FFFE00000000000000000
0FFFF00000000000000000
0FFFF80000000000000000
07FFFC0000000000000000
07FFFE0000000000000000
03FFFF8000000000000000
03FFFFC000000000000000
01FFFFF000000000000000
00FFFFFC00000000000000
00FFFFFFE0000000000000
007FFFFFFFFFFFFFFFFFE0
003FFFFFFFFFFFFFFFFFE0
001FFFFFFFFFFFFFFFFFE0
000FFFFFFFFFFFFFFFFFE0
0007FFFFFFFFFFFFFFFFE0
0003FFFFFFFFFFFFFFFFE0
0000FFFFFFFFFFFFFFFFE0
00007FFFFFFFFFFFFFFFE0
00001FFFFFFFFFFFFFFFE0
00000FFFFFFFFFFFFFFFE0
000003FFFFFFFFFFFFFFE0
0000007FFFFFFFFFFFFFE0
0000000FFFFFFFFFFFFFE0
00000000FFFFFFFFFFFFE0
ENDCHAR
STARTCHAR d
ENCODING 100
SWIDTH 879 0
DWIDTH 98 0
BBX 86 81 7 0
BITMAP
FFFFFFFFFFFFFC00000000
FFFFFFFFFFFFFFC0000000
FFFFFFFFFFFFFFF8000000
FFFFFFFFFFFFFFFF000000
FFFFFFFFFFFFFFFFC00000
FFFFFFFFFFFFFFFFF00000
FFFFFFFFFFFFFFFFF80000
FFFFFFFFFFFFFFFFFE0000
FFFFFFFFFFFFFFFFFF0000
FFFFFFFFFFFFFFFFFF8000
FFFFFFFFFFFFFFFFFFC000
FFFFFFFFFFFFFFFFFFE000
FFFFFFFFFFFFFFFFFFF000
FFFFFFFFFFFFFFFFFFF800
FFFC000000001FFFFFFC00
FFFC0000000001FFFFFE00
FFFC00000000003FFFFE00
FFFC00000000000FFFFF00
FFFC000000000007FFFF80
FFFC000000000003FFFF80
FFFC000000000000FFFFC0
FFFC0000000000007FFFC0
FFFC0000000000003FFFE0
FFFC0000000000003FFFE0
FFFC0000000000001FFFE0
FFFC0000000000000FFFF0
FFFC0000000000000FFFF0
FFFC00000000000007FFF0
FFFC00000000000007FFF8
FFFC00000000000003FFF8
FFFC00000000000003FFF8
FFFC00000000000001FFF8
FFFC00000000000001FFF8
FFFC00000000000001FFFC
FFFC00000000000001FFFC
FFFC00000000000000FFFC
FFFC00000000000000FFFC
FFFC00000000000000FFFC
FFFC00000000000000FFFC
FFFC00000000000000FFFC
FFFC00000000000000FFFC
FFFC00000000000000FFFC
FFFC00000000000000FFFC
FFFC00000000000000FFFC
FFFC00000000000000FFFC
FFFC00000000000001FFFC
FFFC00000000000001FFFC
FFFC00000000000001FFF8
FFFC00000000000001FFF8
FFFC00000000000001FFF8
FFFC00000000000003FFF8
FFFC00000000000003FFF8
FFFC00000000000007FFF0
FFFC00000000000007FFF0
FFFC0000000000000FFFF0
FFFC0000000000000FFFE0
FFFC0000000000001FFFE0
FFFC0000000000003FFFC0
FFFC0000000000003FFFC0
FFFC0000000000007FFFC0
FFFC000000000000FFFF80
FFFC000000000003FFFF80
FFFC000000000007FFFF00
FFFC00000000001FFFFE00
FFFC00000000003FFFFE00
FFFC0000000001FFFFFC00
FFFC000000001FFFFFF800
FFFFFFFFFFFFFFFFFFF000
FFFFFFFFFFFFFFFFFFE000
FFFFFFFFFFFFFFFFFFE000
FFFFFFFFFFFFFFFFFFC000
FFFFFFFFFFFFFFFFFF8000
FFFFFFFFFFFFFFFFFE0000
FFFFFFFFFFFFFFFFFC0000
FFFFFFFFFFFFFFFFF80000
FFFFFFFFFFFFFFFFE00000
FFFFFFFFFFFFFFFF800000
FFFFFFFFFFFFFFFE000000
FFFFFFFFFFFFFFF8000000
FFFFFFFFFFFFFFC0000000
FFFFFFFFFFFFF800000000
ENDCHAR
STARTCHAR e
ENCODING 101
SWIDTH 759 0
DWIDTH 84 0
BBX 72 81 7 0
BITMAP
FFFFFFFFFFFFFFFFFF
FFFFFFFFFFFFFFFFFF
FFFFFFFFFFFFFFFFFF
FFFFFFFFFFFFFFFFFF
FFFFFFFFFFFFFFFFFF
FFFFFFFFFFFFFFFFFF
FFFFFFFFFFFFFFFFFF
FFFFFFFFFFFFFFFFFF
FFFFFFFFFFFFFFFFFF
FFFFFFFFFFFFFFFFFF
FFFFFFFFFFFFFFFFFF
FFFFFFFFFFFFFFFFFF
FFFFFFFFFFFFFFFFFF
FFFFFFFFFFFFFFFFFF
FFFC00000000000000
FFFC00000000000000
FFFC00000000000000
FFFC00000000000000
FFFC00000000000000
FFFC00000000000000
FFFC00000000000000
FFFC00000000000000
FFFC00000000000000
FFFC00000000000000
FFFC00000000000000
FFFC00000000000000
FFFC00000000000000
FFFC00000000000000
FFFC00000000000000
FFFC00000000000000
FFFC00000000000000
FFFC00000000000000
FFFC00000000000000
FFFC00000000000000
FFFC00FFFFFFFFFFF8
FFFC00FFFFFFFFFFF8
FFFC00FFFFFFFFFFF8
FFFC00FFFFFFFFFFF8
FFFC00FFFFFFFFFFF8
FFFC00FFFFFFFFFFF8
FFFC00FFFFFFFFFFF8
FFFC00FFFFFFFFFFF8
FFFC00FFFFFFFFFFF8
FFFC00FFFFFFFFFFF8
FFFC00FFFFFFFFFFF8
FFFC00FFFFFFFFFFF8
FFFC00000000000000
FFFC00000000000000
FFFC00000000000000
FFFC00000000000000
FFFC00000000000000
FFFC00000000000000
FFFC00000000000000
FFFC00000000000000
FFFC00000000000000
FFFC00000000000000
FFFC00000000000000
FFFC00000000000000
FFFC00000000000000
FFFC00000000000000
FFFC00000000000000
FFFC00000000000000
FFFC00000000000000
FFFC00000000000000
FFFC00000000000000
FFFC00000000000000
FFFC00000000000000
FFFFFFFFFFFFFFFFFF
FFFFFFFFFFFFFFFFFF
FFFFFFFFFFFFFFFFFF
FFFFFFFFFFFFFFFFFF
FFFFFFFFFFFFFFFFFF
FFFFFFFFFFFFFFFFFF
FFFFFFFFFFFFFFFFFF
FFFFFFFFFFFFFFFFFF
FFFFFFFFFFFFFFFFFF
FFFFFFFFFFFFFFFFFF
FFFFFFFFFFFFFFFFFF
FFFFFFFFFFFFFFFFFF
FFFFFFFFFFFFFFFFFF
FFFFFFFFFFFFFFFFFF
ENDCHAR
STARTCHAR f
ENCODING 102
SWIDTH 705 0
DWIDTH 78 0
BBX 68 81 7 0
BITMAP
FFFFFFFFFFFFFFFFF0
FFFFFFFFFFFFFFFFF0
FFFFFFFFFFFFFFFFF0
FFFFFFFFFFFFFFFFF0
FFFFFFFFFFFFFFFFF0
FFFFFFFFFFFFFFFFF0
FFFFFFFFFFFFFFFFF0
FFFFFFFFFFFFFFFFF0
FFFFFFFFFFFFFFFFF0
FFFFFFFFFFFFFFFFF0
FFFFFFFFFFFFFFFFF0
FFFFFFFFFFFFFFFFF0
FFFFFFFFFFFFFFFFF0
FFFFFFFFFFFFFFFFF0
FFFC00000000000000
FFFC00000000000000
FFFC00000000000000
FFFC00000000000000
FFFC00000000000000
FFFC00000000000000
FFFC00000000000000
FFFC00000000000000
FFFC00000000000000
FFFC00000000000000
FFFC00000000000000
FFFC00000000000000
FFFC00000000000000
FFFC00000000000000
FFFC00000000000000
FFFC00000000000000
FFFC00000000000000
FFFC00000000000000
FFFC00000000000000
FFFC00000000000000
FFFC00000000000000
FFFC00FFFFFFFFFF80
FFFC00FFFFFFFFFF80
FFFC00FFFFFFFFFF80
FFFC00FFFFFFFFFF80
FFFC00FFFFFFFFFF80
FFFC00FFFFFFFFFF80
FFFC00FFFFFFFFFF80
FFFC00FFFFFFFFFF80
FFFC00FFFFFFFFFF80
FFFC00FFFFFFFFFF80
FFFC00FFFFFFFFFF80
FFFC00FFFFFFFFFF80
FFFC00000000000000
FFFC00000000000000
FFFC00000000000000
FFFC00000000000000
FFFC00000000000000
FFFC00000000000000
FFFC00000000000000
FFFC00000000000000
FFFC00000000000000
FFFC00000000000000
FFFC00000000000000
FFFC00000000000000
FFFC00000000000000
FFFC00000000000000
FFFC00000000000000
FFFC00000000000000
FFFC00000000000000
FFFC00000000000000
FFFC00000000000000
FFFC00000000000000
FFFC00000000000000
FFFC00000000000000
FFFC00000000000000
FFFC00000000000000
FFFC00000000000000
FFFC00000000000000
FFFC00000000000000
FFFC00000000000000
FFFC00000000000000
FFFC00000000000000
FFFC00000000000000
FFFC00000000000000
FFFC00000000000000
FFFC00000000000000
ENDCHAR
STARTCHAR g
ENCODING 103
SWIDTH 888 0
DWIDTH 99 0
BBX 88 81 5 0
BITMAP
00000000FFFFFFFFFFFFE0
0000001FFFFFFFFFFFFFE0
000000FFFFFFFFFFFFFFE0
000003FFFFFFFFFFFFFFE0
00000FFFFFFFFFFFFFFFE0
00003FFFFFFFFFFFFFFFE0
0000FFFFFFFFFFFFFFFFE0
0001FFFFFFFFFFFFFFFFE0
0007FFFFFFFFFFFFFFFFE0
000FFFFFFFFFFFFFFFFFE0
001FFFFFFFFFFFFFFFFFE0
003FFFFFFFFFFFFFFFFFE0
007FFFFFFFFFFFFFFFFFE0
00FFFFFFFFFFFFFFFFFFE0
00FFFFFFE0000000000000
01FFFFFC00000000000000
03FFFFF000000000000000
03FFFFC000000000000000
07FFFF0000000000000000
0FFFFE0000000000000000
0FFFFC0000000000000000
1FFFF80000000000000000
1FFFF00000000000000000
1FFFE00000000000000000
3FFFC00000000000000000
3FFFC00000000000000000
7FFF800000000000000000
7FFF800000000000000000
7FFF000000000000000000
7FFF000000000000000000
FFFE000000000000000000
FFFE000000000000000000
FFFE000000000000000000
FFFE000000000000000000
FFFC000007FFFFFFFFFFFF
FFFC000007FFFFFFFFFFFF
FFFC000007FFFFFFFFFFFF
FFFC000007FFFFFFFFFFFF
FFFC000007FFFFFFFFFFFF
FFFC000007FFFFFFFFFFFF
FFFC000007FFFFFFFFFFFF
FFFC000007FFFFFFFFFFFF
FFFC000007FFFFFFFFFFFF
FFFC000007FFFFFFFFFFFF
FFFC000007FFFFFFFFFFFF
FFFC000007FFFFFFFFFFFF
FFFC000000000000007FFF
FFFE000000000000007FFF
FFFE000000000000007FFF
7FFE000000000000007FFF
7FFE000000000000007FFF
7FFF000000000000007FFF
7FFF000000000000007FFF
3FFF800000000000007FFF
3FFF800000000000007FFF
3FFFC00000000000007FFF
1FFFE00000000000007FFF
1FFFE00000000000007FFF
0FFFF00000000000007FFF
0FFFF80000000000007FFF
07FFFC0000000000007FFF
07FFFE0000000000007FFF
03FFFF8000000000007FFF
03FFFFC000000000007FFF
01FFFFF000000000007FFF
00FFFFFC00000000007FFF
00FFFFFFE0000000007FFF
007FFFFFFFFFFFFFFFFFFF
003FFFFFFFFFFFFFFFFFFF
001FFFFFFFFFFFFFFFFFFF
000FFFFFFFFFFFFFFFFFFF
0007FFFFFFFFFFFFFFFFFF
0003FFFFFFFFFFFFFFFFFF
0000FFFFFFFFFFFFFFFFFF
00007FFFFFFFFFFFFFFFFF
00001FFFFFFFFFFFFFFFFF
00000FFFFFFFFFFFFFFFFF
000003FFFFFFFFFFFFFFFF
0000007FFFFFFFFFFFFFFF
0000000FFFFFFFFFFFFFFF
00000000FFFFFFFFFFFFFF
ENDCHAR
STARTCHAR h
ENCODING 104
SWIDTH 838 0
DWIDTH 93 0
BBX 79 81 7 0
BITMAP
FFFC0000000000007FFE
FFFC0000000000007FFE
FFFC0000000000007FFE
FFFC0000000000007FFE
FFFC0000000000007FFE
FFFC0000000000007FFE
FFFC0000000000007FFE
FFFC0000000000007FFE
FFFC0000000000007FFE
FFFC0000000000007FFE
FFFC0000000000007FFE
FFFC0000000000007FFE
FFFC0000000000007FFE
FFFC0000000000007FFE
FFFC0000000000007FFE
FFFC0000000000007FFE
FFFC0000000000007FFE
FFFC0000000000007FFE
FFFC0000000000007FFE
FFFC0000000000007FFE
FFFC0000000000007FFE
FFFC0000000000007FFE
FFFC0000000000007FFE
FFFC0000000000007FFE
FFFC0000000000007FFE
FFFC0000000000007FFE
FFFC0000000000007FFE
FFFC0000000000007FFE
FFFC0000000000007FFE
FFFC0000000000007FFE
FFFC0000000000007FFE
FFFC0000000000007FFE
FFFC0000000000007FFE
FFFC00FFFFFFFFFFFFFE
FFFC00FFFFFFFFFFFFFE
FFFC00FFFFFFFFFFFFFE
FFFC00FFFFFFFFFFFFFE
FFFC00FFFFFFFFFFFFFE
FFFC00FFFFFFFFFFFFFE
FFFC00FFFFFFFFFFFFFE
FFFC00FFFFFFFFFFFFFE
FFFC00FFFFFFFFFFFFFE
FFFC00FFFFFFFFFFFFFE
FFFC00FFFFFFFFFFFFFE
FFFC00FFFFFFFFFFFFFE
FFFC00FFFFFFFFFFFFFE
FFFC0000000000007FFE
FFFC0000000000007FFE
FFFC0000000000007FFE
FFFC0000000000007FFE
FFFC0000000000007FFE
FFFC0000000000007FFE
FFFC0000000000007FFE
FFFC0000000000007FFE
FFFC0000000000007FFE
FFFC0000000000007FFE
FFFC0000000000007FFE
FFFC0000000000007FFE
FFFC0000000000007FFE
FFFC0000000000007FFE
FFFC0000000000007FFE
FFFC0000000000007FFE
FFFC0000000000007FFE
FFFC0000000000007FFE
FFFC0000000000007FFE
FFFC0000000000007FFE
FFFC0000000000007FFE
FFFC0000000000007FFE
FFFC0000000000007FFE
FFFC0000000000007FFE
FFFC0000000000007FFE
FFFC0000000000007FFE
FFFC0000000000007FFE
FFFC0000000000007FFE
FFFC0000000000007FFE
FFFC0000000000007FFE
FFFC0000000000007FFE
FFFC0000000000007FFE
FFFC0000000000007FFE
FFFC0000000000007FFE
FFFC0000000000007FFE
ENDCHAR
STARTCHAR i
ENCODING 105
SWIDTH 267 0
DWIDTH 30 0
BBX 14 81 8 0
BITMAP
FFFC
FFFC
FFFC
FFFC
FFFC
FFFC
FFFC
FFFC
FFFC
FFFC
FFFC
FFFC
FFFC
FFFC
FFFC
FFFC
FFFC
FFFC
FFFC
FFFC
FFFC
FFFC
FFFC
FFFC
FFFC
FFFC
FFFC
FFFC
FFFC
FFFC
FFFC
FFFC
FFFC
FFFC
FFFC
FFFC
FFFC
FFFC
FFFC
FFFC
FFFC
FFFC
FFFC
FFFC
FFFC
FFFC
FFFC
FFFC
FFFC
FFFC
FFFC
FFFC
FFFC
FFFC
FFFC
FFFC
FFFC
FFFC
FFFC
FFFC
FFFC
FFFC
FFFC
FFFC
FFFC
FFFC
FFFC
FFFC
FFFC
FFFC
FFFC
FFFC
FFFC
FFFC
FFFC
FFFC
FFFC
FFFC
FFFC
FFFC
FFFC
ENDCHAR
STARTCHAR j
ENCODING 106
SWIDTH 708 0
DWIDTH 79 0
BBX 70 81 3 0
BITMAP
00000000000000FFFC
00000000000000FFFC
00000000000000FFFC
00000000000000FFFC
00000000000000FFFC
00000000000000FFFC
00000000000000FFFC
00000000000000FFFC
00000000000000FFFC
00000000000000FFFC
00000000000000FFFC
00000000000000FFFC
00000000000000FFFC
00000000000000FFFC
00000000000000FFFC
00000000000000FFFC
00000000000000FFFC
00000000000000FFFC
00000000000000FFFC
00000000000000FFFC
00000000000000FFFC
00000000000000FFFC
00000000000000FFFC
00000000000000FFFC
00000000000000FFFC
00000000000000FFFC
00000000000000FFFC
00000000000000FFFC
00000000000000FFFC
00000000000000FFFC
00000000000000FFFC
00000000000000FFFC
00000000000000FFFC
00000000000000FFFC
00000000000000FFFC
00000000000000FFFC
00000000000000FFFC
00000000000000FFFC
00000000000000FFFC
00000000000000FFFC
00000000000000FFFC
00000000000000FFFC
00000000000000FFFC
00000000000000FFFC
00000000000000FFFC
00000000000000FFFC
00000000000000FFFC
00000000000000FFFC
00000000000001FFFC
00000000000001FFFC
00000000000001FFF8
00000000000001FFF8
00000000000001FFF8
00000000000003FFF8
00000000000003FFF8
00000000000003FFF8
00000000000007FFF8
00000000000007FFF0
0000000000000FFFF0
0000000000001FFFF0
0000000000003FFFE0
0000000000007FFFE0
000000000000FFFFE0
000000000003FFFFC0
00000000000FFFFFC0
00000000007FFFFF80
000000000FFFFFFF80
FFFFFFFFFFFFFFFF00
FFFFFFFFFFFFFFFE00
FFFFFFFFFFFFFFFC00
FFFFFFFFFFFFFFFC00
FFFFFFFFFFFFFFF800
FFFFFFFFFFFFFFF000
FFFFFFFFFFFFFFC000
FFFFFFFFFFFFFF8000
FFFFFFFFFFFFFE0000
FFFFFFFFFFFFF80000
FFFFFFFFFFFFE00000
FFFFFFFFFFFF000000
FFFFFFFFFFF0000000
FFFFFFFFFE00000000
ENDCHAR
STARTCHAR k
ENCODING 107
SWIDTH 875 0
DWIDTH 97 0
BBX 88 81 7 0
BITMAP
FFFC000000000000FFFFFC
FFFC000000000001FFFFF0
FFFC000000000007FFFFE0
FFFC00000000000FFFFFC0
FFFC00000000001FFFFF00
FFFC00000000003FFFFE00
FFFC0000000000FFFFFC00
FFFC0000000001FFFFF000
FFFC0000000003FFFFE000
FFFC000000000FFFFFC000
FFFC000000001FFFFF0000
FFFC000000003FFFFE0000
FFFC00000000FFFFFC0000
FFFC00000001FFFFF00000
FFFC00000003FFFFE00000
FFFC00000007FFFFC00000
FFFC0000001FFFFF000000
FFFC0000003FFFFE000000
FFFC0000007FFFFC000000
FFFC000001FFFFF0000000
FFFC000003FFFFE0000000
FFFC000007FFFFC0000000
FFFC00000FFFFF00000000
FFFC00003FFFFE00000000
FFFC00007FFFFC00000000
FFFC0000FFFFF000000000
FFFC0003FFFFE000000000
FFFC0007FFFFC000000000
FFFC000FFFFF0000000000
FFFC003FFFFE0000000000
FFFC007FFFFC0000000000
FFFC00FFFFF00000000000
FFFC01FFFFE00000000000
FFFC07FFFFC00000000000
FFFC0FFFFF000000000000
FFFC1FFFFE000000000000
FFFC1FFFFC000000000000
FFFC1FFFF0000000000000
FFFC3FFFE0000000000000
FFFC3FFFC0000000000000
FFFC3FFFE0000000000000
FFFC1FFFF0000000000000
FFFC1FFFF8000000000000
FFFC1FFFFE000000000000
FFFC0FFFFF000000000000
FFFC07FFFF800000000000
FFFC01FFFFE00000000000
FFFC00FFFFF00000000000
FFFC007FFFF80000000000
FFFC001FFFFE0000000000
FFFC000FFFFF0000000000
FFFC0007FFFF8000000000
FFFC0003FFFFE000000000
FFFC0000FFFFF000000000
FFFC00007FFFF800000000
FFFC00003FFFFE00000000
FFFC00001FFFFF00000000
FFFC000007FFFF80000000
FFFC000003FFFFC0000000
FFFC000001FFFFF0000000
FFFC000000FFFFF8000000
FFFC0000003FFFFC000000
FFFC0000001FFFFF000000
FFFC0000000FFFFF800000
FFFC00000003FFFFC00000
FFFC00000001FFFFF00000
FFFC00000000FFFFF80000
FFFC000000007FFFFC0000
FFFC000000001FFFFF0000
FFFC000000000FFFFF8000
FFFC0000000007FFFFC000
FFFC0000000003FFFFF000
FFFC0000000000FFFFF800
FFFC00000000007FFFFC00
FFFC00000000003FFFFE00
FFFC00000000000FFFFF80
FFFC000000000007FFFFC0
FFFC000000000003FFFFE0
FFFC000000000001FFFFF8
FFFC0000000000007FFFFC
FFFC0000000000003FFFFF
ENDCHAR
STARTCHAR l
ENCODING 108
SWIDTH 707 0
DWIDTH 78 0
BBX 68 81 7 0
BITMAP
FFFC00000000000000
FFFC00000000000000
FFFC00000000000000
FFFC00000000000000
FFFC00000000000000
FFFC00000000000000
FFFC00000000000000
FFFC00000000000000
FFFC00000000000000
FFFC00000000000000
FFFC00000000000000
FFFC00000000000000
FFFC00000000000000
FFFC00000000000000
FFFC00000000000000
FFFC00000000000000
FFFC00000000000000
FFFC00000000000000
FFFC00000000000000
FFFC00000000000000
FFFC00000000000000
FFFC00000000000000
FFFC00000000000000
FFFC00000000000000
FFFC00000000000000
FFFC00000000000000
FFFC00000000000000
FFFC00000000000000
FFFC00000000000000
FFFC00000000000000
FFFC00000000000000
FFFC00000000000000
FFFC00000000000000
FFFC00000000000000
FFFC00000000000000
FFFC00000000000000
FFFC00000000000000
FFFC00000000000000
FFFC00000000000000
FFFC00000000000000
FFFC00000000000000
FFFC00000000000000
FFFC00000000000000
FFFC00000000000000
FFFC00000000000000
FFFC00000000000000
FFFC00000000000000
FFFC00000000000000
FFFC00000000000000
FFFC00000000000000
FFFC00000000000000
FFFC00000000000000
FFFC00000000000000
FFFC00000000000000
FFFC00000000000000
FFFC00000000000000
FFFC00000000000000
FFFC00000000000000
FFFC00000000000000
FFFC00000000000000
FFFC00000000000000
FFFC00000000000000
FFFC00000000000000
FFFC00000000000000
FFFC00000000000000
FFFC00000000000000
FFFC00000000000000
FFFFFFFFFFFFFFFFF0
FFFFFFFFFFFFFFFFF0
FFFFFFFFFFFFFFFFF0
FFFFFFFFFFFFFFFFF0
FFFFFFFFFFFFFFFFF0
FFFFFFFFFFFFFFFFF0
FFFFFFFFFFFFFFFFF0
FFFFFFFFFFFFFFFFF0
FFFFFFFFFFFFFFFFF0
FFFFFFFFFFFFFFFFF0
FFFFFFFFFFFFFFFFF0
FFFFFFFFFFFFFFFFF0
FFFFFFFFFFFFFFFFF0
FFFFFFFFFFFFFFFFF0
ENDCHAR
STARTCHAR m
ENCODING 109
SWIDTH 1115 0
DWIDTH 124 0
BBX 118 82 3 -1
BITMAP
0000007C00000000000000FC000000
000001FF00000000000001FE000000
000003FF80000000000003FF000000
000007FFC0000000000007FF800000
000007FFC000000000000FFF800000
00000FFFE000000000000FFFC00000
00000FFFE000000000001FFFC00000
00000FFFF000000000001FFFC00000
00000FFFF000000000001FFFE00000
00001FFFF800000000003FFFE00000
00001FFFF800000000003FFFE00000
00001FFFF800000000007FFFE00000
00001FFFFC00000000007FFFF00000
00003FFFFC0000000000FFFFF00000
00003FFFFE0000000000FFFFF00000
00003FFFFE0000000000FFFFF00000
00007FFFFF0000000001FFFFF80000
00007FFFFF0000000001FFFFF80000
00007FFFFF8000000003FFFFF80000
00007FFFFF8000000003FFFFFC0000
0000FFFFFF8000000007FFFFFC0000
0000FFFFFFC000000007FFFFFC0000
0000FFFFFFC00000000FFFFFFC0000
0000FFFFFFE00000000FFFFFFE0000
0001FFFFFFE00000000FFFFFFE0000
0001FFFFFFF00000001FFFFFFE0000
0001FFFBFFF00000001FFF7FFE0000
0003FFF3FFF80000003FFF3FFF0000
0003FFF1FFF80000003FFE3FFF0000
0003FFF1FFF80000007FFE3FFF0000
0003FFE1FFFC0000007FFE1FFF8000
0007FFE0FFFC000000FFFC1FFF8000
0007FFE0FFFE000000FFFC1FFF8000
0007FFE07FFE000000FFF81FFF8000
000FFFC07FFF000001FFF80FFFC000
000FFFC03FFF000001FFF00FFFC000
000FFFC03FFF000003FFF00FFFC000
000FFFC03FFF800003FFF00FFFE000
001FFF801FFF800007FFE007FFE000
001FFF801FFFC00007FFE007FFE000
001FFF800FFFC00007FFC007FFE000
001FFF000FFFE0000FFFC003FFF000
003FFF0007FFE0000FFF8003FFF000
003FFF0007FFF0001FFF8003FFF000
003FFF0003FFF0001FFF0003FFF000
007FFE0003FFF0003FFF0001FFF800
007FFE0003FFF8003FFF0001FFF800
007FFE0001FFF8007FFE0001FFF800
007FFC0001FFFC007FFE0001FFFC00
00FFFC0000FFFC007FFC0000FFFC00
00FFFC0000FFFE00FFFC0000FFFC00
00FFFC00007FFE00FFF80000FFFC00
00FFF800007FFE01FFF800007FFE00
01FFF800003FFF01FFF000007FFE00
01FFF800003FFF03FFF000007FFE00
01FFF800003FFF83FFF000007FFE00
03FFF000001FFF83FFE000003FFF00
03FFF000001FFFC7FFE000003FFF00
03FFF000000FFFC7FFC000003FFF00
03FFE000000FFFEFFFC000001FFF80
07FFE0000007FFEFFF8000001FFF80
07FFE0000007FFFFFF8000001FFF80
07FFE0000007FFFFFF0000001FFF80
0FFFC0000003FFFFFF0000000FFFC0
0FFFC0000003FFFFFF0000000FFFC0
0FFFC0000001FFFFFE0000000FFFC0
0FFFC0000001FFFFFE0000000FFFC0
1FFF80000000FFFFFC00000007FFE0
1FFF80000000FFFFFC00000007FFE0
1FFF800000007FFFF800000007FFE0
1FFF000000007FFFF800000003FFF0
3FFF000000007FFFF000000003FFF0
3FFF000000003FFFF000000003FFF0
3FFF000000003FFFF000000003FFF0
7FFE000000001FFFE000000001FFF8
7FFE000000001FFFE000000001FFF8
7FFE000000000FFFC000000001FFF8
7FFE000000000FFFC000000001FFF8
FFFC0000000007FF8000000000FFFC
FFFC0000000007FF0000000000FFFC
FFFC0000000003FE0000000000FFFC
00000000000000FC00000000000000
ENDCHAR
STARTCHAR n
ENCODING 110
SWIDTH 873 0
DWIDTH 97 0
BBX 83 81 7 0
BITMAP
0F8000000000000003FFE0
3FE000000000000003FFE0
7FF800000000000003FFE0
7FFC00000000000003FFE0
FFFE00000000000003FFE0
FFFF00000000000003FFE0
FFFF80000000000003FFE0
FFFFC0000000000003FFE0
FFFFE0000000000003FFE0
FFFFF0000000000003FFE0
FFFFF8000000000003FFE0
FFFFFC000000000003FFE0
FFFFFE000000000003FFE0
FFFFFF000000000003FFE0
FFFFFF800000000003FFE0
FFFFFFC00000000003FFE0
FFFFFFE00000000003FFE0
FFFFFFF00000000003FFE0
FFFFFFF80000000003FFE0
FFFFFFFC0000000003FFE0
FFFFFFFE0000000003FFE0
FFFFFFFF0000000003FFE0
FFFFFFFF8000000003FFE0
FFFBFFFFC000000003FFE0
FFF9FFFFE000000003FFE0
FFF8FFFFF000000003FFE0
FFF87FFFF800000003FFE0
FFF83FFFFC00000003FFE0
FFF81FFFFE00000003FFE0
FFF80FFFFF00000003FFE0
FFF807FFFF80000003FFE0
FFF803FFFFC0000003FFE0
FFF801FFFFE0000003FFE0
FFF800FFFFF0000003FFE0
FFF8007FFFF8000003FFE0
FFF8003FFFFC000003FFE0
FFF8001FFFFE000003FFE0
FFF8000FFFFF000003FFE0
FFF80007FFFF800003FFE0
FFF80003FFFFC00003FFE0
FFF80001FFFFE00003FFE0
FFF80000FFFFF00003FFE0
FFF800007FFFF80003FFE0
FFF800003FFFFC0003FFE0
FFF800001FFFFE0003FFE0
FFF800000FFFFF0003FFE0
FFF8000007FFFF8003FFE0
FFF8000001FFFFC003FFE0
FFF8000000FFFFE003FFE0
FFF80000007FFFF003FFE0
FFF80000003FFFF803FFE0
FFF80000001FFFFC03FFE0
FFF80000000FFFFE03FFE0
FFF800000007FFFF03FFE0
FFF800000003FFFF83FFE0
FFF800000001FFFFC3FFE0
FFF800000000FFFFE3FFE0
FFF8000000007FFFF3FFE0
FFF8000000003FFFFBFFE0
FFF8000000001FFFFFFFE0
FFF8000000000FFFFFFFE0
FFF80000000007FFFFFFE0
FFF80000000003FFFFFFE0
FFF80000000001FFFFFFE0
FFF80000000000FFFFFFE0
FFF800000000007FFFFFE0
FFF800000000003FFFFFE0
FFF800000000001FFFFFE0
FFF800000000000FFFFFE0
FFF8000000000007FFFFE0
FFF8000000000003FFFFE0
FFF8000000000001FFFFE0
FFF8000000000000FFFFE0
FFF80000000000007FFFE0
FFF80000000000003FFFE0
FFF80000000000001FFFE0
FFF80000000000000FFFE0
FFF800000000000007FFC0
FFF800000000000003FFC0
FFF800000000000000FF80
FFF8000000000000007E00
ENDCHAR
STARTCHAR o
ENCODING 111
SWIDTH 968 0
DWIDTH 107 0
BBX 98 81 5 0
BITMAP
00000000FFFFFFFFC000000000
0000001FFFFFFFFFFC00000000
000000FFFFFFFFFFFF80000000
000003FFFFFFFFFFFFF0000000
00000FFFFFFFFFFFFFFC000000
00003FFFFFFFFFFFFFFF000000
0000FFFFFFFFFFFFFFFF800000
0001FFFFFFFFFFFFFFFFE00000
0007FFFFFFFFFFFFFFFFF00000
000FFFFFFFFFFFFFFFFFF80000
001FFFFFFFFFFFFFFFFFFC0000
003FFFFFFFFFFFFFFFFFFE0000
007FFFFFFFFFFFFFFFFFFF0000
00FFFFFFFFFFFFFFFFFFFF8000
00FFFFFFE0000001FFFFFFC000
01FFFFFC000000001FFFFFE000
03FFFFF00000000003FFFFE000
03FFFFC00000000001FFFFF000
07FFFF0000000000007FFFF800
0FFFFE0000000000003FFFF800
0FFFFC0000000000000FFFFC00
1FFFF800000000000007FFFC00
1FFFF000000000000003FFFE00
1FFFE000000000000003FFFE00
3FFFC000000000000001FFFE00
3FFFC000000000000000FFFF00
7FFF8000000000000000FFFF00
7FFF80000000000000007FFF00
7FFF00000000000000007FFF80
7FFF00000000000000003FFF80
FFFE00000000000000003FFF80
FFFE00000000000000001FFF80
FFFE00000000000000001FFF80
FFFE00000000000000001FFFC0
FFFC00000000000000001FFFC0
FFFC00000000000000000FFFC0
FFFC00000000000000000FFFC0
FFFC00000000000000000FFFC0
FFFC00000000000000000FFFC0
FFFC00000000000000000FFFC0
FFFC00000000000000000FFFC0
FFFC00000000000000000FFFC0
FFFC00000000000000000FFFC0
FFFC00000000000000000FFFC0
FFFC00000000000000000FFFC0
FFFC00000000000000001FFFC0
FFFC00000000000000001FFFC0
FFFE00000000000000001FFF80
FFFE00000000000000001FFF80
7FFE00000000000000003FFF80
7FFE00000000000000003FFF80
7FFF00000000000000003FFF80
7FFF00000000000000007FFF00
3FFF80000000000000007FFF00
3FFF8000000000000000FFFF00
3FFFC000000000000000FFFE00
1FFFE000000000000001FFFE00
1FFFE000000000000003FFFC00
0FFFF000000000000003FFFC00
0FFFF800000000000007FFFC00
07FFFC0000000000000FFFF800
07FFFE0000000000003FFFF000
03FFFF8000000000007FFFF000
03FFFFC00000000001FFFFE000
01FFFFF00000000007FFFFE000
00FFFFFC000000001FFFFFC000
00FFFFFFE0000001FFFFFF8000
007FFFFFFFFFFFFFFFFFFF0000
003FFFFFFFFFFFFFFFFFFE0000
001FFFFFFFFFFFFFFFFFFC0000
000FFFFFFFFFFFFFFFFFFC0000
0007FFFFFFFFFFFFFFFFF00000
0003FFFFFFFFFFFFFFFFE00000
0000FFFFFFFFFFFFFFFFC00000
00007FFFFFFFFFFFFFFF000000
00001FFFFFFFFFFFFFFE000000
00000FFFFFFFFFFFFFF8000000
000003FFFFFFFFFFFFE0000000
0000007FFFFFFFFFFF80000000
0000000FFFFFFFFFFC00000000
00000000FFFFFFFF8000000000
ENDCHAR
STARTCHAR p
ENCODING 112
SWIDTH 867 0
DWIDTH 96 0
BBX 86 81 7 0
BITMAP
FFFFFFFFFFFFFFFE000000
FFFFFFFFFFFFFFFFE00000
FFFFFFFFFFFFFFFFFC0000
FFFFFFFFFFFFFFFFFF0000
FFFFFFFFFFFFFFFFFFC000
FFFFFFFFFFFFFFFFFFF000
FFFFFFFFFFFFFFFFFFF800
FFFFFFFFFFFFFFFFFFFC00
FFFFFFFFFFFFFFFFFFFE00
FFFFFFFFFFFFFFFFFFFF00
FFFFFFFFFFFFFFFFFFFF80
FFFFFFFFFFFFFFFFFFFF80
FFFFFFFFFFFFFFFFFFFFC0
FFFFFFFFFFFFFFFFFFFFE0
FFFC000000000007FFFFE0
FFFC000000000000FFFFF0
FFFC0000000000003FFFF0
FFFC0000000000001FFFF0
FFFC0000000000000FFFF8
FFFC00000000000007FFF8
FFFC00000000000003FFF8
FFFC00000000000001FFF8
FFFC00000000000001FFFC
FFFC00000000000000FFFC
FFFC00000000000000FFFC
FFFC00000000000000FFFC
FFFC00000000000000FFFC
FFFC00000000000000FFFC
FFFC00000000000000FFFC
FFFC00000000000000FFFC
FFFC00000000000000FFFC
FFFC00000000000000FFFC
FFFC00000000000000FFFC
FFFC00000000000000FFFC
FFFC00000000000000FFFC
FFFC00000000000000FFFC
FFFC00000000000001FFFC
FFFC00000000000001FFF8
FFFC00000000000003FFF8
FFFC00000000000007FFF8
FFFC00000000000007FFF8
FFFC0000000000001FFFF0
FFFC0000000000003FFFF0
FFFC000000000000FFFFE0
FFFC000000000007FFFFE0
FFFC00FFFFFFFFFFFFFFC0
FFFC00FFFFFFFFFFFFFFC0
FFFC00FFFFFFFFFFFFFF80
FFFC00FFFFFFFFFFFFFF00
FFFC00FFFFFFFFFFFFFF00
FFFC00FFFFFFFFFFFFFE00
FFFC00FFFFFFFFFFFFFC00
FFFC00FFFFFFFFFFFFF800
FFFC00FFFFFFFFFFFFE000
FFFC00FFFFFFFFFFFFC000
FFFC00FFFFFFFFFFFF0000
FFFC00FFFFFFFFFFFC0000
FFFC00FFFFFFFFFFF00000
FFFC00FFFFFFFFFF000000
FFFC000000000000000000
FFFC000000000000000000
FFFC000000000000000000
FFFC000000000000000000
FFFC000000000000000000
FFFC000000000000000000
FFFC000000000000000000
FFFC000000000000000000
FFFC000000000000000000
FFFC000000000000000000
FFFC000000000000000000
FFFC000000000000000000
FFFC000000000000000000
FFFC000000000000000000
FFFC000000000000000000
FFFC000000000000000000
FFFC000000000000000000
FFFC000000000000000000
FFFC000000000000000000
FFFC000000000000000000
FFFC000000000000000000
FFFC000000000000000000
ENDCHAR
STARTCHAR q
ENCODING 113
SWIDTH 968 0
DWIDTH 107 0
BBX 102 81 5 0
BITMAP
00000000FFFFFFFFC000000000
0000001FFFFFFFFFFC00000000
000000FFFFFFFFFFFF80000000
000003FFFFFFFFFFFFF0000000
00000FFFFFFFFFFFFFFC000000
00003FFFFFFFFFFFFFFF000000
0000FFFFFFFFFFFFFFFF800000
0001FFFFFFFFFFFFFFFFE00000
0007FFFFFFFFFFFFFFFFF00000
000FFFFFFFFFFFFFFFFFF80000
001FFFFFFFFFFFFFFFFFFC0000
003FFFFFFFFFFFFFFFFFFE0000
007FFFFFFFFFFFFFFFFFFF0000
00FFFFFFFFFFFFFFFFFFFF8000
00FFFFFFE0000001FFFFFFC000
01FFFFFC000000001FFFFFE000
03FFFFF00000000003FFFFE000
03FFFFC00000000001FFFFF000
07FFFF0000000000007FFFF800
0FFFFE0000000000003FFFF800
0FFFFC0000000000000FFFFC00
1FFFF800000000000007FFFC00
1FFFF000000000000003FFFE00
1FFFE000000000000003FFFE00
3FFFC000000000000001FFFE00
3FFFC000000000000000FFFF00
7FFF8000000000000000FFFF00
7FFF80000000000000007FFF00
7FFF00000000000000007FFF80
7FFF00000000000000003FFF80
FFFE00000000000000003FFF80
FFFE00000000000000001FFF80
FFFE00000000000000001FFF80
FFFE00000000000000001FFFC0
FFFC00000000000000001FFFC0
FFFC00000000000000000FFFC0
FFFC00000000000000000FFFC0
FFFC00000000000000000FFFC0
FFFC00000000000000000FFFC0
FFFC00000000000000000FFFC0
FFFC00000000000000000FFFC0
FFFC00000000000000000FFFC0
FFFC00000000000000000FFFC0
FFFC00000000000000000FFFC0
FFFC00000000000000000FFFC0
FFFC00000000000000001FFFC0
FFFC00000000000000001FFFC0
FFFE00000020000000001FFF80
FFFE0000001FFFFC00001FFF80
7FFE00000007FFFE00003FFF80
7FFE00000003FFFF00003FFF80
7FFF00000001FFFF80003FFF80
7FFF00000000FFFFE0007FFF00
3FFF800000003FFFF0007FFF00
3FFF800000001FFFF800FFFF00
3FFFC00000000FFFFC00FFFE00
1FFFE000000007FFFE01FFFE00
1FFFE000000001FFFF83FFFC00
0FFFF000000000FFFFC7FFFC00
0FFFF8000000007FFFE7FFFC00
07FFFC000000001FFFFFFFF800
07FFFE000000000FFFFFFFF000
03FFFF8000000007FFFFFFF000
03FFFFC000000003FFFFFFE000
01FFFFF000000000FFFFFFE000
00FFFFFC000000007FFFFFC000
00FFFFFFE0000001FFFFFF8000
007FFFFFFFFFFFFFFFFFFF0000
003FFFFFFFFFFFFFFFFFFE0000
001FFFFFFFFFFFFFFFFFFE0000
000FFFFFFFFFFFFFFFFFFF0000
0007FFFFFFFFFFFFFFFFFFC000
0003FFFFFFFFFFFFFFFFFFE000
0000FFFFFFFFFFFFFFFFFFF000
00007FFFFFFFFFFFFFFFFFFC00
00001FFFFFFFFFFFFFFFFFFE00
00000FFFFFFFFFFFFFFBFFFF00
000003FFFFFFFFFFFFE1FFFFC0
0000007FFFFFFFFFFF80FFFFE0
0000000FFFFFFFFFFC007FFFF0
00000000FFFFFFFF80001FFFFC
ENDCHAR
STARTCHAR r
ENCODING 114
SWIDTH 921 0
DWIDTH 102 0
BBX 95 81 7 0
BITMAP
FFFFFFFFFFFFFFFF00000000
FFFFFFFFFFFFFFFFF8000000
FFFFFFFFFFFFFFFFFE000000
FFFFFFFFFFFFFFFFFF800000
FFFFFFFFFFFFFFFFFFE00000
FFFFFFFFFFFFFFFFFFF80000
FFFFFFFFFFFFFFFFFFFC0000
FFFFFFFFFFFFFFFFFFFE0000
FFFFFFFFFFFFFFFFFFFF0000
FFFFFFFFFFFFFFFFFFFF8000
FFFFFFFFFFFFFFFFFFFFC000
FFFFFFFFFFFFFFFFFFFFC000
FFFFFFFFFFFFFFFFFFFFE000
FFFFFFFFFFFFFFFFFFFFF000
FFFC000000000003FFFFF000
FFFC0000000000007FFFF800
FFFC0000000000001FFFF800
FFFC00000000000007FFF800
FFFC00000000000003FFFC00
FFFC00000000000001FFFC00
FFFC00000000000001FFFC00
FFFC00000000000000FFFC00
FFFC00000000000000FFFE00
FFFC000000000000007FFE00
FFFC000000000000007FFE00
FFFC000000000000007FFE00
FFFC000000000000007FFE00
FFFC000000000000007FFE00
FFFC000000000000007FFE00
FFFC000000000000007FFE00
FFFC000000000000007FFE00
FFFC000000000000007FFE00
FFFC000000000000007FFE00
FFFC000000000000007FFE00
FFFC000000000000007FFE00
FFFC000000000000007FFE00
FFFC00000000000000FFFE00
FFFC00000000000000FFFC00
FFFC00000000000000FFFC00
FFFC00000000000001FFFC00
FFFC00000000000001FFFC00
FFFC00000000000003FFF800
FFFC00000000000007FFF800
FFFC0000000000000FFFF000
FFFC0000000000003FFFF000
FFFC000000000001FFFFE000
FFFC00FFFFFFFFFFFFFFE000
FFFC00FFFFFFFFFFFFFFC000
FFFC00FFFFFFFFFFFFFF8000
FFFC00FFFFFFFFFFFFFF0000
FFFC00FFFFFFFFFFFFFE0000
FFFC00FFFFFFFFFFFFFC0000
FFFC00FFFFFFFFFFFFF80000
FFFC00FFFFFFFFFFFFF00000
FFFC00FFFFFFFFFFFFC00000
FFFC00FFFFFFFFFFFF000000
FFFC00FFFFFFFFFFFE000000
FFFC00FFFFFFFFFFFF000000
FFFC0000000001FFFF800000
FFFC0000000000FFFFC00000
FFFC00000000007FFFE00000
FFFC00000000003FFFF00000
FFFC00000000001FFFF80000
FFFC00000000001FFFFC0000
FFFC00000000000FFFFE0000
FFFC000000000007FFFF0000
FFFC000000000003FFFF8000
FFFC000000000001FFFFC000
FFFC000000000000FFFFE000
FFFC0000000000007FFFF000
FFFC0000000000003FFFF800
FFFC0000000000003FFFFC00
FFFC0000000000001FFFFE00
FFFC0000000000000FFFFF00
FFFC00000000000007FFFF80
FFFC00000000000003FFFFC0
FFFC00000000000001FFFFE0
FFFC00000000000000FFFFF0
FFFC000000000000007FFFF0
FFFC000000000000003FFFF8
FFFC000000000000003FFFFE
ENDCHAR
STARTCHAR s
ENCODING 115
SWIDTH 880 0
DWIDTH 98 0
BBX 87 81 6 0
BITMAP
00001FFFFFFFFFFFFFFFE0
0001FFFFFFFFFFFFFFFFE0
000FFFFFFFFFFFFFFFFFE0
003FFFFFFFFFFFFFFFFFE0
007FFFFFFFFFFFFFFFFFE0
01FFFFFFFFFFFFFFFFFFE0
03FFFFFFFFFFFFFFFFFFE0
07FFFFFFFFFFFFFFFFFFE0
0FFFFFFFFFFFFFFFFFFFE0
0FFFFFFFFFFFFFFFFFFFE0
1FFFFFFFFFFFFFFFFFFFE0
3FFFFFFFFFFFFFFFFFFFE0
3FFFFFFFFFFFFFFFFFFFE0
7FFFFFFFFFFFFFFFFFFFE0
7FFFF80000000000000000
7FFFE00000000000000000
FFFF800000000000000000
FFFF000000000000000000
FFFF000000000000000000
FFFE000000000000000000
FFFE000000000000000000
FFFE000000000000000000
FFFE000000000000000000
FFFC000000000000000000
FFFC000000000000000000
FFFC000000000000000000
FFFE000000000000000000
FFFE000000000000000000
FFFE000000000000000000
7FFF000000000000000000
7FFF000000000000000000
7FFF800000000000000000
3FFFE00000000000000000
3FFFF80000000000000000
1FFFFFFFFFFFFFFFF00000
1FFFFFFFFFFFFFFFFF8000
0FFFFFFFFFFFFFFFFFE000
07FFFFFFFFFFFFFFFFF800
07FFFFFFFFFFFFFFFFFE00
03FFFFFFFFFFFFFFFFFF00
00FFFFFFFFFFFFFFFFFF80
007FFFFFFFFFFFFFFFFFC0
003FFFFFFFFFFFFFFFFFE0
000FFFFFFFFFFFFFFFFFE0
0001FFFFFFFFFFFFFFFFF0
00003FFFFFFFFFFFFFFFF0
00000000000000003FFFF8
000000000000000007FFF8
000000000000000003FFF8
000000000000000001FFFC
000000000000000000FFFC
000000000000000000FFFC
0000000000000000007FFC
0000000000000000007FFC
0000000000000000007FFC
0000000000000000007FFE
0000000000000000007FFE
0000000000000000007FFE
0000000000000000007FFE
0000000000000000007FFE
0000000000000000007FFC
000000000000000000FFFC
000000000000000001FFFC
000000000000000001FFFC
000000000000000003FFFC
00000000000000000FFFF8
00000000000000007FFFF8
7FFFFFFFFFFFFFFFFFFFF8
7FFFFFFFFFFFFFFFFFFFF0
7FFFFFFFFFFFFFFFFFFFF0
7FFFFFFFFFFFFFFFFFFFE0
7FFFFFFFFFFFFFFFFFFFE0
7FFFFFFFFFFFFFFFFFFFC0
7FFFFFFFFFFFFFFFFFFF80
7FFFFFFFFFFFFFFFFFFF00
7FFFFFFFFFFFFFFFFFFE00
7FFFFFFFFFFFFFFFFFFC00
7FFFFFFFFFFFFFFFFFF000
7FFFFFFFFFFFFFFFFFC000
7FFFFFFFFFFFFFFFFF0000
7FFFFFFFFFFFFFFFF00000
ENDCHAR
STARTCHAR t
ENCODING 116
SWIDTH 720 0
DWIDTH 80 0
BBX 76 81 2 0
BITMAP
FFFFFFFFFFFFFFFFFFF0
FFFFFFFFFFFFFFFFFFF0
FFFFFFFFFFFFFFFFFFF0
FFFFFFFFFFFFFFFFFFF0
FFFFFFFFFFFFFFFFFFF0
FFFFFFFFFFFFFFFFFFF0
FFFFFFFFFFFFFFFFFFF0
FFFFFFFFFFFFFFFFFFF0
FFFFFFFFFFFFFFFFFFF0
FFFFFFFFFFFFFFFFFFF0
FFFFFFFFFFFFFFFFFFF0
FFFFFFFFFFFFFFFFFFF0
FFFFFFFFFFFFFFFFFFF0
FFFFFFFFFFFFFFFFFFF0
00000001FFF800000000
00000001FFF800000000
00000001FFF800000000
00000001FFF800000000
00000001FFF800000000
00000001FFF800000000
00000001FFF800000000
00000001FFF800000000
00000001FFF800000000
00000001FFF800000000
00000001FFF800000000
00000001FFF800000000
00000001FFF800000000
00000001FFF800000000
00000001FFF800000000
00000001FFF800000000
00000001FFF800000000
00000001FFF800000000
00000001FFF800000000
00000001FFF800000000
00000001FFF800000000
00000001FFF800000000
00000001FFF800000000
00000001FFF800000000
00000001FFF800000000
00000001FFF800000000
00000001FFF800000000
00000001FFF800000000
00000001FFF800000000
00000001FFF800000000
00000001FFF800000000
00000001FFF800000000
00000001FFF800000000
00000001FFF800000000
00000001FFF800000000
00000001FFF800000000
00000001FFF800000000
00000001FFF800000000
00000001FFF800000000
00000001FFF800000000
00000001FFF800000000
00000001FFF800000000
00000001FFF800000000
00000001FFF800000000
00000001FFF800000000
00000001FFF800000000
00000001FFF800000000
00000001FFF800000000
00000001FFF800000000
00000001FFF800000000
00000001FFF800000000
00000001FFF800000000
00000001FFF800000000
00000001FFF800000000
00000001FFF800000000
00000001FFF800000000
00000001FFF800000000
00000001FFF800000000
00000001FFF800000000
00000001FFF800000000
00000001FFF800000000
00000001FFF800000000
00000001FFF800000000
00000001FFF800000000
00000001FFF800000000
00000001FFF800000000
00000001FFF800000000
ENDCHAR
STARTCHAR u
ENCODING 117
SWIDTH 889 0
DWIDTH 99 0
BBX 87 82 6 -1
BITMAP
FFFC000000000000007FFE
FFFC000000000000007FFE
FFFC000000000000007FFE
FFFC000000000000007FFE
FFFC000000000000007FFE
FFFC000000000000007FFE
FFFC000000000000007FFE
FFFC000000000000007FFE
FFFC000000000000007FFE
FFFC000000000000007FFE
FFFC000000000000007FFE
FFFC000000000000007FFE
FFFC000000000000007FFE
FFFC000000000000007FFE
FFFC000000000000007FFE
FFFC000000000000007FFE
FFFC000000000000007FFE
FFFC000000000000007FFE
FFFC000000000000007FFE
FFFC000000000000007FFE
FFFC000000000000007FFE
FFFC000000000000007FFE
FFFC000000000000007FFE
FFFC000000000000007FFE
FFFC000000000000007FFE
FFFC000000000000007FFE
FFFC000000000000007FFE
FFFC000000000000007FFE
FFFC000000000000007FFE
FFFC000000000000007FFE
FFFC000000000000007FFE
FFFC000000000000007FFE
FFFC000000000000007FFE
FFFC000000000000007FFE
FFFC000000000000007FFE
FFFC000000000000007FFE
FFFC000000000000007FFE
FFFC000000000000007FFE
FFFC000000000000007FFE
FFFC000000000000007FFE
FFFC000000000000007FFE
FFFC000000000000007FFE
FFFC000000000000007FFE
FFFC000000000000007FFE
FFFC000000000000007FFE
FFFC000000000000007FFE
FFFC000000000000007FFE
FFFC000000000000007FFE
FFFC000000000000007FFE
FFFE000000000000007FFE
FFFE000000000000007FFE
FFFE000000000000007FFE
FFFE00000000000000FFFC
FFFE00000000000000FFFC
FFFE00000000000000FFFC
7FFF00000000000000FFFC
7FFF00000000000001FFFC
7FFF80000000000001FFFC
7FFF80000000000003FFF8
3FFFC0000000000003FFF8
3FFFE0000000000007FFF8
3FFFE000000000000FFFF0
1FFFF000000000001FFFF0
1FFFFC00000000003FFFF0
1FFFFF0000000000FFFFE0
0FFFFFC000000003FFFFE0
0FFFFFF80000001FFFFFC0
07FFFFFFE00007FFFFFFC0
03FFFFFFFFFFFFFFFFFF80
03FFFFFFFFFFFFFFFFFF00
01FFFFFFFFFFFFFFFFFE00
00FFFFFFFFFFFFFFFFFC00
007FFFFFFFFFFFFFFFF800
003FFFFFFFFFFFFFFFF000
000FFFFFFFFFFFFFFFE000
0007FFFFFFFFFFFFFFC000
0001FFFFFFFFFFFFFF0000
00007FFFFFFFFFFFFC0000
00001FFFFFFFFFFFF00000
000003FFFFFFFFFF800000
0000003FFFFFFFF8000000
00000001FFFFFE00000000
ENDCHAR
STARTCHAR v
ENCODING 118
SWIDTH 989 0
DWIDTH 110 0
BBX 106 82 2 -1
BITMAP
FFFF8000000000000000003FFFC0
FFFFC000000000000000007FFF80
7FFFC00000000000000000FFFF80
3FFFE00000000000000000FFFF00
3FFFE00000000000000001FFFE00
1FFFF00000000000000001FFFE00
1FFFF80000000000000003FFFC00
0FFFF80000000000000003FFFC00
07FFFC0000000000000007FFF800
07FFFC000000000000000FFFF000
03FFFE000000000000000FFFF000
03FFFF000000000000001FFFE000
01FFFF000000000000001FFFE000
00FFFF800000000000003FFFC000
00FFFF800000000000007FFF8000
007FFFC00000000000007FFF8000
007FFFC0000000000000FFFF0000
003FFFE0000000000000FFFF0000
001FFFF0000000000001FFFE0000
001FFFF0000000000001FFFC0000
000FFFF8000000000003FFFC0000
000FFFF8000000000007FFF80000
0007FFFC000000000007FFF80000
0003FFFE00000000000FFFF00000
0003FFFE00000000000FFFE00000
0001FFFF00000000001FFFE00000
0001FFFF00000000003FFFC00000
0000FFFF80000000003FFFC00000
00007FFF80000000007FFF800000
00007FFFC0000000007FFF000000
00003FFFE000000000FFFF000000
00003FFFE000000000FFFE000000
00001FFFF000000001FFFE000000
00000FFFF000000003FFFC000000
00000FFFF800000003FFF8000000
000007FFFC00000007FFF8000000
000007FFFC00000007FFF0000000
000003FFFE0000000FFFF0000000
000001FFFE0000001FFFE0000000
000001FFFF0000001FFFC0000000
000000FFFF0000003FFFC0000000
000000FFFF8000003FFF80000000
0000007FFFC000007FFF80000000
0000003FFFC000007FFF00000000
0000003FFFE00000FFFE00000000
0000001FFFE00001FFFE00000000
0000001FFFF00001FFFC00000000
0000000FFFF80003FFFC00000000
00000007FFF80003FFF800000000
00000007FFFC0007FFF000000000
00000003FFFC000FFFF000000000
00000003FFFE000FFFE000000000
00000001FFFE001FFFE000000000
00000000FFFF001FFFC000000000
00000000FFFF803FFF8000000000
000000007FFF803FFF8000000000
000000007FFFC07FFF0000000000
000000003FFFC0FFFF0000000000
000000001FFFE0FFFE0000000000
000000001FFFF1FFFC0000000000
000000000FFFF1FFFC0000000000
000000000FFFFBFFF80000000000
0000000007FFFFFFF80000000000
0000000003FFFFFFF00000000000
0000000003FFFFFFE00000000000
0000000001FFFFFFE00000000000
0000000001FFFFFFC00000000000
0000000000FFFFFFC00000000000
00000000007FFFFF800000000000
00000000007FFFFF000000000000
00000000003FFFFF000000000000
00000000003FFFFE000000000000
00000000001FFFFE000000000000
00000000000FFFFC000000000000
00000000000FFFF8000000000000
000000000007FFF8000000000000
000000000007FFF0000000000000
000000000003FFF0000000000000
000000000001FFE0000000000000
000000000001FFC0000000000000
000000000000FF80000000000000
0000000000003E00000000000000
ENDCHAR
STARTCHAR w
ENCODING 119
SWIDTH 1268 0
DWIDTH 141 0
BBX 137 82 2 -1
BITMAP
FFFF800000FFFFC0000000000000007FFF80
FFFF8000007FFFC0000000000000007FFF00
7FFFC000003FFFE000000000000000FFFF00
7FFFC000003FFFE000000000000001FFFE00
3FFFE000001FFFF000000000000001FFFE00
1FFFE000001FFFF000000000000003FFFC00
1FFFF000000FFFF800000000000003FFFC00
0FFFF000000FFFF800000000000007FFF800
0FFFF8000007FFFC00000000000007FFF800
07FFF8000007FFFC0000000000000FFFF000
07FFFC000003FFFE0000000000000FFFE000
03FFFC000003FFFE0000000000001FFFE000
03FFFE000001FFFF0000000000001FFFC000
01FFFE000001FFFF0000000000003FFFC000
01FFFF000000FFFF8000000000003FFF8000
00FFFF800000FFFF8000000000007FFF8000
00FFFF8000007FFFC000000000007FFF0000
007FFFC000007FFFC00000000000FFFF0000
003FFFC000003FFFE00000000000FFFE0000
003FFFE000003FFFE00000000001FFFE0000
001FFFE000001FFFF00000000001FFFC0000
001FFFF000001FFFF00000000003FFFC0000
000FFFF000000FFFF80000000007FFF80000
000FFFF800000FFFF80000000007FFF00000
0007FFF8000007FFFC000000000FFFF00000
0007FFFC000007FFFC000000000FFFE00000
0003FFFC000003FFFE000000001FFFE00000
0003FFFE000003FFFE000000001FFFC00000
0001FFFE000001FFFF000000003FFFC00000
0001FFFF000001FFFF000000003FFF800000
0000FFFF000000FFFF800000007FFF800000
0000FFFF800000FFFF800000007FFF000000
00007FFF8000007FFFC0000000FFFF000000
00003FFFC000003FFFC0000000FFFE000000
00003FFFC000003FFFE0000001FFFE000000
00001FFFE000001FFFE0000001FFFC000000
00001FFFE000001FFFF0000003FFF8000000
00000FFFF000000FFFF0000003FFF8000000
00000FFFF800000FFFF8000007FFF0000000
000007FFF8000007FFF8000007FFF0000000
000007FFFC000007FFF800000FFFE0000000
000003FFFC000007FFFC00001FFFE0000000
000003FFFE00000FFFFC00001FFFC0000000
000001FFFE00000FFFFE00003FFFC0000000
000001FFFF00001FFFFE00003FFF80000000
000000FFFF00001FFFFF00007FFF80000000
0000007FFF80003FFFFF00007FFF00000000
0000007FFF80007FFFFF8000FFFF00000000
0000003FFFC0007FFFFF8000FFFE00000000
0000003FFFC000FFFFFFC001FFFC00000000
0000001FFFE000FFFFFFC001FFFC00000000
0000001FFFE001FFFFFFE003FFF800000000
0000000FFFF001FFFFFFE003FFF800000000
0000000FFFF003FFFFFFF007FFF000000000
00000007FFF803FFFFFFF007FFF000000000
00000007FFF807FFF7FFF80FFFE000000000
00000003FFFC0FFFE3FFF80FFFE000000000
00000003FFFC0FFFE3FFFC1FFFC000000000
00000001FFFE1FFFC1FFFC1FFFC000000000
00000000FFFF1FFFC1FFFE3FFF8000000000
00000000FFFF3FFF80FFFE3FFF8000000000
000000007FFFBFFF80FFFF7FFF0000000000
000000007FFFFFFF007FFFFFFE0000000000
000000003FFFFFFE007FFFFFFE0000000000
000000003FFFFFFE003FFFFFFC0000000000
000000001FFFFFFC003FFFFFFC0000000000
000000001FFFFFFC001FFFFFF80000000000
000000000FFFFFF8001FFFFFF80000000000
000000000FFFFFF8000FFFFFF00000000000
0000000007FFFFF0000FFFFFF00000000000
0000000007FFFFF00007FFFFE00000000000
0000000003FFFFE00003FFFFE00000000000
0000000001FFFFE00003FFFFC00000000000
0000000001FFFFC00001FFFFC00000000000
0000000000FFFFC00001FFFF800000000000
0000000000FFFF800000FFFF000000000000
00000000007FFF000000FFFF000000000000
00000000007FFF0000007FFE000000000000
00000000003FFE0000007FFE000000000000
00000000001FFC0000003FFC000000000000
00000000000FF80000001FF8000000000000
000000000003E000000007E0000000000000
ENDCHAR
STARTCHAR x
ENCODING 120
SWIDTH 1000 0
DWIDTH 111 0
BBX 106 81 2 0
BITMAP
0FFFFE000000000000000FFFFC00
07FFFF800000000000003FFFF800
03FFFFC00000000000007FFFF000
01FFFFE0000000000000FFFFE000
00FFFFF0000000000001FFFFC000
007FFFF8000000000003FFFF8000
003FFFFC000000000007FFFF0000
001FFFFE00000000000FFFFE0000
000FFFFF00000000001FFFFC0000
0007FFFF80000000003FFFF80000
0003FFFFC0000000007FFFF00000
0001FFFFE000000000FFFFC00000
0000FFFFF000000001FFFF800000
00007FFFF800000003FFFF000000
00001FFFFC00000007FFFE000000
00000FFFFE0000000FFFFC000000
000007FFFF0000001FFFF8000000
000003FFFF8000003FFFF0000000
000001FFFFC000007FFFE0000000
000000FFFFE00000FFFFC0000000
0000007FFFF00001FFFF80000000
0000003FFFF80003FFFF00000000
0000001FFFFC0007FFFE00000000
0000000FFFFE000FFFFC00000000
00000007FFFF001FFFF800000000
00000003FFFF803FFFF000000000
00000001FFFFC07FFFE000000000
00000000FFFFE0FFFFC000000000
000000007FFFF1FFFF8000000000
000000003FFFFBFFFF0000000000
000000001FFFFFFFFE0000000000
000000000FFFFFFFFC0000000000
0000000007FFFFFFF80000000000
0000000003FFFFFFF00000000000
0000000001FFFFFFE00000000000
0000000000FFFFFFC00000000000
00000000007FFFFF800000000000
00000000003FFFFF000000000000
00000000001FFFFE000000000000
00000000001FFFFE000000000000
00000000003FFFFF000000000000
00000000007FFFFF800000000000
0000000000FFFFFFC00000000000
0000000001FFFFFFE00000000000
0000000003FFFFFFF00000000000
0000000007FFFFFFF80000000000
000000000FFFFFFFFC0000000000
000000001FFFFFFFFE0000000000
000000003FFFF7FFFF0000000000
000000007FFFE3FFFF8000000000
00000000FFFFC1FFFFC000000000
00000001FFFF80FFFFE000000000
00000003FFFF007FFFF000000000
00000007FFFE003FFFF800000000
0000000FFFFC001FFFFC00000000
0000001FFFF8000FFFFE00000000
0000003FFFF00007FFFF00000000
0000007FFFE00003FFFFC0000000
000000FFFFC00001FFFFE0000000
000001FFFF800000FFFFF0000000
000003FFFF0000007FFFF8000000
00000FFFFE0000003FFFFC000000
00001FFFFC0000001FFFFE000000
00003FFFF00000000FFFFF000000
00007FFFE000000007FFFF800000
0000FFFFC000000003FFFFC00000
0001FFFF8000000001FFFFE00000
0003FFFF0000000000FFFFF00000
0007FFFE00000000007FFFF80000
000FFFFC00000000003FFFFC0000
001FFFF800000000001FFFFE0000
003FFFF000000000000FFFFF0000
007FFFE0000000000007FFFF8000
00FFFFC0000000000003FFFFC000
01FFFF80000000000001FFFFE000
03FFFF00000000000000FFFFF000
07FFFE000000000000003FFFF800
0FFFFC000000000000001FFFFC00
1FFFF8000000000000000FFFFE00
3FFFF00000000000000007FFFF00
FFFFE00000000000000003FFFFC0
ENDCHAR
STARTCHAR y
ENCODING 121
SWIDTH 926 0
DWIDTH 103 0
BBX 100 81 1 0
BITMAP
FFFFF0000000000000003FFFF0
3FFFF8000000000000007FFFE0
1FFFFC00000000000000FFFFC0
1FFFFC00000000000001FFFF80
0FFFFE00000000000001FFFF80
07FFFF00000000000003FFFF00
03FFFF80000000000007FFFE00
01FFFFC000000000000FFFFC00
00FFFFE000000000001FFFF800
007FFFE000000000003FFFF000
007FFFF000000000007FFFE000
003FFFF800000000007FFFE000
001FFFFC0000000000FFFFC000
000FFFFE0000000001FFFF8000
0007FFFF0000000003FFFF0000
0003FFFF0000000007FFFE0000
0003FFFF800000000FFFFC0000
0001FFFFC00000000FFFF80000
0000FFFFE00000001FFFF80000
00007FFFF00000003FFFF00000
00003FFFF80000007FFFE00000
00001FFFFC000000FFFFC00000
00000FFFFC000001FFFF800000
00000FFFFE000001FFFF000000
000007FFFF000003FFFE000000
000003FFFF800007FFFE000000
000001FFFFC0000FFFFC000000
000000FFFFE0001FFFF8000000
0000007FFFE0003FFFF0000000
0000003FFFF0007FFFE0000000
0000003FFFF8007FFFC0000000
0000001FFFFC00FFFF80000000
0000000FFFFE01FFFF80000000
00000007FFFF03FFFF00000000
00000003FFFF07FFFE00000000
00000001FFFF8FFFFC00000000
00000000FFFFCFFFF800000000
00000000FFFFFFFFF000000000
000000007FFFFFFFE000000000
000000003FFFFFFFE000000000
000000001FFFFFFFC000000000
000000000FFFFFFF8000000000
0000000007FFFFFF0000000000
0000000003FFFFFE0000000000
0000000003FFFFFC0000000000
0000000001FFFFF80000000000
0000000000FFFFF80000000000
00000000007FFFF00000000000
00000000003FFFE00000000000
00000000001FFFC00000000000
00000000001FFF800000000000
00000000001FFF800000000000
00000000001FFF800000000000
00000000001FFF800000000000
00000000001FFF800000000000
00000000001FFF800000000000
00000000001FFF800000000000
00000000001FFF800000000000
00000000001FFF800000000000
00000000001FFF800000000000
00000000001FFF800000000000
00000000001FFF800000000000
00000000001FFF800000000000
00000000001FFF800000000000
00000000001FFF800000000000
00000000001FFF800000000000
00000000001FFF800000000000
00000000001FFF800000000000
00000000001FFF800000000000
00000000001FFF800000000000
00000000001FFF800000000000
00000000001FFF800000000000
00000000001FFF800000000000
00000000001FFF800000000000
00000000001FFF800000000000
00000000001FFF800000000000
00000000001FFF800000000000
00000000001FFF800000000000
00000000001FFF800000000000
00000000001FFF800000000000
00000000001FFF800000000000
ENDCHAR
STARTCHAR z
ENCODING 122
SWIDTH 802 0
DWIDTH 89 0
BBX 80 81 4 0
BITMAP
7FFFFFFFFFFFFFFFFFE0
7FFFFFFFFFFFFFFFFFF8
7FFFFFFFFFFFFFFFFFFC
7FFFFFFFFFFFFFFFFFFE
7FFFFFFFFFFFFFFFFFFF
7FFFFFFFFFFFFFFFFFFF
7FFFFFFFFFFFFFFFFFFF
7FFFFFFFFFFFFFFFFFFF
7FFFFFFFFFFFFFFFFFFF
7FFFFFFFFFFFFFFFFFFF
7FFFFFFFFFFFFFFFFFFE
7FFFFFFFFFFFFFFFFFFE
7FFFFFFFFFFFFFFFFFFC
00000000000000FFFFF8
00000000000001FFFFF0
00000000000003FFFFE0
00000000000007FFFFC0
00000000000007FFFF80
0000000000000FFFFF00
0000000000001FFFFE00
0000000000003FFFFC00
0000000000007FFFF800
000000000000FFFFF000
000000000001FFFFE000
000000000003FFFFC000
000000000007FFFF8000
00000000000FFFFF0000
00000000001FFFFE0000
00000000003FFFFC0000
00000000007FFFF80000
0000000000FFFFF00000
0000000001FFFFE00000
0000000003FFFFC00000
0000000007FFFF800000
000000000FFFFF000000
000000001FFFFE000000
000000003FFFFC000000
000000007FFFF8000000
00000000FFFFF0000000
00000001FFFFF0000000
00000003FFFFE0000000
00000007FFFFC0000000
0000000FFFFF80000000
0000001FFFFF00000000
0000003FFFFE00000000
0000007FFFFC00000000
000000FFFFF800000000
000001FFFFF000000000
000003FFFFE000000000
000007FFFFC000000000
00000FFFFF8000000000
00001FFFFF0000000000
00003FFFFE0000000000
00007FFFFC0000000000
0000FFFFF80000000000
0001FFFFF00000000000
0003FFFFE00000000000
0007FFFFC00000000000
000FFFFF800000000000
001FFFFF000000000000
003FFFFE000000000000
007FFFFC000000000000
00FFFFF8000000000000
01FFFFF0000000000000
03FFFFE0000000000000
07FFFFC0000000000000
0FFFFF80000000000000
1FFFFF00000000000000
1FFFFFFFFFFFFFFFFFFF
3FFFFFFFFFFFFFFFFFFF
7FFFFFFFFFFFFFFFFFFF
7FFFFFFFFFFFFFFFFFFF
7FFFFFFFFFFFFFFFFFFF
FFFFFFFFFFFFFFFFFFFF
FFFFFFFFFFFFFFFFFFFF
7FFFFFFFFFFFFFFFFFFF
7FFFFFFFFFFFFFFFFFFF
7FFFFFFFFFFFFFFFFFFF
3FFFFFFFFFFFFFFFFFFF
1FFFFFFFFFFFFFFFFFFF
07FFFFFFFFFFFFFFFFFF
ENDCHAR
STARTCHAR braceleft
ENCODING 123
SWIDTH 337 0
DWIDTH 37 0
BBX 23 102 7 -10
BITMAP
0003FE
000FFE
003FFE
007FFE
00FFFE
01FFFE
01FFFE
03FFFE
03FFE0
03FF80
03FF00
03FF00
03FE00
03FE00
03FE00
03FE00
03FE00
03FE00
03FE00
03FE00
03FE00
03FE00
03FE00
03FE00
03FE00
03FE00
03FE00
03FE00
03FE00
03FE00
03FE00
03FE00
03FE00
03FE00
03FE00
03FE00
03FE00
03FE00
03FE00
03FE00
03FE00
03FE00
03FE00
03FE00
03FE00
07FE00
0FFC00
FFFC00
FFFC00
FFF800
FFF000
FFE000
FFF800
FFF800
FFFC00
0FFC00
07FC00
03FE00
03FE00
03FE00
03FE00
03FE00
03FE00
03FE00
03FE00
03FE00
03FE00
03FE00
03FE00
03FE00
03FE00
03FE00
03FE00
03FE00
03FE00
03FE00
03FE00
03FE00
03FE00
03FE00
03FE00
03FE00
03FE00
03FE00
03FE00
03FE00
03FE00
03FE00
03FE00
03FE00
03FE00
03FF00
03FF80
03FFE0
03FFFE
01FFFE
01FFFE
00FFFE
007FFE
003FFE
000FFE
0003FE
ENDCHAR
STARTCHAR bar
ENCODING 124
SWIDTH 297 0
DWIDTH 33 0
BBX 9 102 12 -10
BITMAP
FF80
FF80
FF80
FF80
FF80
FF80
FF80
FF80
FF80
FF80
FF80
FF80
FF80
FF80
FF80
FF80
FF80
FF80
FF80
FF80
FF80
FF80
FF80
FF80
FF80
FF80
FF80
FF80
FF80
FF80
FF80
FF80
FF80
FF80
FF80
FF80
FF80
FF80
FF80
FF80
FF80
FF80
FF80
FF80
FF80
FF80
FF80
FF80
FF80
FF80
FF80
FF80
FF80
FF80
FF80
FF80
FF80
FF80
FF80
FF80
FF80
FF80
FF80
FF80
FF80
FF80
FF80
FF80
FF80
FF80
FF80
FF80
FF80
FF80
FF80
FF80
FF80
FF80
FF80
FF80
FF80
FF80
FF80
FF80
FF80
FF80
FF80
FF80
FF80
FF80
FF80
FF80
FF80
FF80
FF80
FF80
FF80
FF80
FF80
FF80
FF80
FF80
ENDCHAR
STARTCHAR braceright
ENCODING 125
SWIDTH 337 0
DWIDTH 37 0
BBX 23 102 7 -10
BITMAP
FF8000
FFF000
FFF800
FFFC00
FFFE00
FFFF00
FFFF00
FFFF80
0FFF80
03FF80
01FF80
01FFC0
00FFC0
00FFC0
00FFC0
00FFC0
00FFC0
00FFC0
00FFC0
00FFC0
00FFC0
00FFC0
00FFC0
00FFC0
00FFC0
00FFC0
00FFC0
00FFC0
00FFC0
00FFC0
00FFC0
00FFC0
00FFC0
00FFC0
00FFC0
00FFC0
00FFC0
00FFC0
00FFC0
00FFC0
00FFC0
00FFC0
00FFC0
00FFC0
007FC0
007FC0
007FE0
007FFE
003FFE
003FFE
000FFE
000FFE
001FFE
003FFE
007FFE
007FE0
007FC0
007FC0
00FFC0
00FFC0
00FFC0
00FFC0
00FFC0
00FFC0
00FFC0
00FFC0
00FFC0
00FFC0
00FFC0
00FFC0
00FFC0
00FFC0
00FFC0
00FFC0
00FFC0
00FFC0
00FFC0
00FFC0
00FFC0
00FFC0
00FFC0
00FFC0
00FFC0
00FFC0
00FFC0
00FFC0
00FFC0
00FFC0
00FFC0
00FFC0
00FFC0
01FF80
03FF80
0FFF80
FFFF80
FFFF00
FFFF00
FFFE00
FFFC00
FFF800
FFF000
FF8000
ENDCHAR
STARTCHAR asciitilde
ENCODING 126
SWIDTH 691 0
DWIDTH 77 0
BBX 63 17 7 33
BITMAP
001FF80000000000
01FFFF8000000002
07FFFFF000000006
1FFFFFFC0000000E
3FFFFFFF8000003E
7FFFFFFFE000007E
FFFFFFFFFC0003FE
FFFFFFFFFFC01FFE
FFFFFFFFFFFFFFFE
FFF007FFFFFFFFFE
FF00007FFFFFFFFE
FC00000FFFFFFFFC
F0000003FFFFFFF8
E00000007FFFFFF0
C00000001FFFFFC0
8000000003FFFF00
00000000003FF000
ENDCHAR
STARTCHAR nonbreakingspace
ENCODING 160
SWIDTH 294 0
DWIDTH 33 0
BBX 1 1 0 0
BITMAP
00
ENDCHAR
STARTCHAR exclamdown
ENCODING 161
SWIDTH 298 0
DWIDTH 33 0
BBX 15 81 9 0
BITMAP
07E0
1FF0
3FFC
7FFC
7FFE
FFFE
FFFE
FFFE
FFFE
FFFE
7FFE
7FFC
3FFC
1FF0
07E0
0000
0000
0000
0000
0000
0000
0000
0000
0000
0000
0000
7FFE
7FFE
7FFE
7FFE
7FFE
7FFE
7FFE
7FFE
7FFE
7FFE
7FFE
7FFE
7FFE
7FFE
7FFE
7FFE
7FFE
7FFE
7FFE
7FFE
7FFE
7FFE
7FFE
7FFE
7FFE
7FFE
7FFE
7FFE
7FFE
7FFE
7FFE
7FFE
7FFE
7FFE
7FFE
7FFE
7FFE
7FFE
7FFE
7FFE
7FFE
7FFE
7FFE
7FFE
7FFE
7FFE
7FFE
7FFE
7FFE
7FFE
7FFE
7FFE
7FFE
7FFE
7FFE
ENDCHAR
STARTCHAR cent
ENCODING 162
SWIDTH 692 0
DWIDTH 77 0
BBX 66 81 5 0
BITMAP
0000000001F8000000
0000000001F8000000
0000000001F8000000
0000000001F8000000
0000000001F8000000
0000000001F8000000
0000000001F8000000
0000000001F8000000
0000007FFFFFFFFFC0
000007FFFFFFFFFFC0
00003FFFFFFFFFFFC0
0000FFFFFFFFFFFFC0
0003FFFFFFFFFFFFC0
000FFFFFFFFFFFFFC0
001FFFFFFFFFFFFFC0
003FFFFFFFFFFFFFC0
007FFFFFFFFFFFFFC0
00FFFFFFFFFFFFFFC0
01FFFFFFFFFFFFFFC0
03FFFFE001F8000000
07FFFE0001F8000000
07FFF80001F8000000
0FFFF00001F8000000
1FFFC00001F8000000
1FFF800001F8000000
1FFF000001F8000000
3FFE000001F8000000
3FFE000001F8000000
7FFC000001F8000000
7FF8000001F8000000
7FF8000001F8000000
7FF0000001F8000000
FFF0000001F8000000
FFF0000001F8000000
FFF0000001F8000000
FFE0000001F8000000
FFE0000001F8000000
FFE0000001F8000000
FFE0000001F8000000
FFE0000001F8000000
FFE0000001F8000000
FFE0000001F8000000
FFE0000001F8000000
FFE0000001F8000000
FFE0000001F8000000
FFF0000001F8000000
FFF0000001F8000000
FFF0000001F8000000
7FF8000001F8000000
7FF8000001F8000000
7FF8000001F8000000
7FFC000001F8000000
3FFE000001F8000000
3FFE000001F8000000
1FFF000001F8000000
1FFF800001F8000000
0FFFC00001F8000000
0FFFF00001F8000000
07FFF80001F8000000
07FFFE0001F8000000
03FFFFE001F8000000
01FFFFFFFFFFFFFFC0
00FFFFFFFFFFFFFFC0
00FFFFFFFFFFFFFFC0
007FFFFFFFFFFFFFC0
001FFFFFFFFFFFFFC0
000FFFFFFFFFFFFFC0
0007FFFFFFFFFFFFC0
0001FFFFFFFFFFFFC0
0000FFFFFFFFFFFFC0
00003FFFFFFFFFFFC0
000007FFFFFFFFFFC0
0000007FFFFFFFFFC0
0000000001F8000000
0000000001F8000000
0000000001F8000000
0000000001F8000000
0000000001F8000000
0000000001F8000000
0000000001F8000000
0000000001F8000000
ENDCHAR
STARTCHAR sterling
ENCODING 163
SWIDTH 709 0
DWIDTH 79 0
BBX 71 81 3 0
BITMAP
00000007FFFFFFE000
0000007FFFFFFFE000
000003FFFFFFFFE000
00000FFFFFFFFFE000
00001FFFFFFFFFE000
00003FFFFFFFFFE000
0000FFFFFFFFFFE000
0000FFFFFFFFFFE000
0001FFFFFFFFFFE000
0003FFFFFFFFFFE000
0007FFFFFFFFFFE000
0007FFFFFFFFFFE000
000FFFFFFFFFFFE000
000FFFFFFFFFFFE000
000FFFFF8000000000
001FFFFC0000000000
001FFFF00000000000
001FFFC00000000000
001FFF800000000000
003FFF800000000000
003FFF000000000000
003FFF000000000000
003FFF000000000000
003FFF000000000000
003FFE000000000000
003FFE000000000000
003FFE000000000000
003FFE000000000000
003FFE000000000000
003FFE000000000000
003FFE000000000000
003FFE000000000000
003FFE000000000000
003FFE000000000000
07FFFFFFFFFC000000
07FFFFFFFFFC000000
07FFFFFFFFFC000000
07FFFFFFFFFC000000
07FFFFFFFFFC000000
07FFFFFFFFFC000000
07FFFFFFFFFC000000
07FFFFFFFFFC000000
07FFFFFFFFFC000000
07FFFFFFFFFC000000
003FFE000000000000
003FFE000000000000
003FFE000000000000
003FFE000000000000
003FFE000000000000
003FFE000000000000
003FFE000000000000
003FFE000000000000
003FFE000000000000
003FFE000000000000
003FFE000000000000
003FFE000000000000
003FFE000000000000
003FFE000000000000
003FFE000000000000
003FFE000000000000
003FFE000000000000
003FFE000000000000
003FFE000000000000
003FFE000000000000
003FFE000000000000
003FFE000000000000
003FFE000000000000
FFFFFFFFFFFFFFFFFE
FFFFFFFFFFFFFFFFFE
FFFFFFFFFFFFFFFFFE
FFFFFFFFFFFFFFFFFE
FFFFFFFFFFFFFFFFFE
FFFFFFFFFFFFFFFFFE
FFFFFFFFFFFFFFFFFE
FFFFFFFFFFFFFFFFFE
FFFFFFFFFFFFFFFFFE
FFFFFFFFFFFFFFFFFE
FFFFFFFFFFFFFFFFFE
FFFFFFFFFFFFFFFFFE
FFFFFFFFFFFFFFFFFE
FFFFFFFFFFFFFFFFFE
ENDCHAR
STARTCHAR yen
ENCODING 165
SWIDTH 787 0
DWIDTH 87 0
BBX 82 81 2 0
BITMAP
FFFF8000000000003FFFC0
7FFFC000000000007FFFC0
3FFFE00000000000FFFF80
3FFFE00000000000FFFF00
1FFFF00000000001FFFF00
0FFFF00000000001FFFE00
0FFFF80000000003FFFC00
07FFFC0000000007FFFC00
03FFFC0000000007FFF800
03FFFE000000000FFFF000
01FFFF000000001FFFF000
00FFFF000000001FFFE000
00FFFF800000003FFFC000
007FFFC00000003FFFC000
003FFFC00000007FFF8000
003FFFE0000000FFFF0000
001FFFE0000000FFFF0000
000FFFF0000001FFFE0000
000FFFF8000001FFFC0000
0007FFF8000003FFFC0000
0003FFFC000007FFF80000
0003FFFE000007FFF00000
0001FFFE00000FFFF00000
0000FFFF00001FFFE00000
0000FFFF80001FFFE00000
00007FFF80003FFFC00000
00003FFFC0003FFF800000
00003FFFC0007FFF800000
00001FFFE000FFFF000000
00000FFFF000FFFE000000
00000FFFF001FFFE000000
000007FFF801FFFC000000
000003FFFC03FFF8000000
000003FFFC07FFF8000000
000001FFFE07FFF0000000
000000FFFF0FFFE0000000
000000FFFF1FFFE0000000
0000007FFF9FFFC0000000
0000003FFFBFFF80000000
0000003FFFFFFF80000000
0000001FFFFFFF00000000
0000000FFFFFFE00000000
0000000FFFFFFE00000000
00000007FFFFFC00000000
000FFFFFFFFFFFFFFF0000
000FFFFFFFFFFFFFFF0000
000FFFFFFFFFFFFFFF0000
000FFFFFFFFFFFFFFF0000
000FFFFFFFFFFFFFFF0000
000FFFFFFFFFFFFFFF0000
000FFFFFFFFFFFFFFF0000
000FFFFFFFFFFFFFFF0000
000FFFFFFFFFFFFFFF0000
000FFFFFFFFFFFFFFF0000
000000001FFF0000000000
000000001FFF0000000000
000000001FFF0000000000
000000001FFF0000000000
000000001FFF0000000000
000000001FFF0000000000
000000001FFF0000000000
000000001FFF0000000000
000000001FFF0000000000
000FFFFFFFFFFFFFFF0000
000FFFFFFFFFFFFFFF0000
000FFFFFFFFFFFFFFF0000
000FFFFFFFFFFFFFFF0000
000FFFFFFFFFFFFFFF0000
000FFFFFFFFFFFFFFF0000
000FFFFFFFFFFFFFFF0000
000FFFFFFFFFFFFFFF0000
000FFFFFFFFFFFFFFF0000
000FFFFFFFFFFFFFFF0000
000000001FFF0000000000
000000001FFF0000000000
000000001FFF0000000000
000000001FFF0000000000
000000001FFF0000000000
000000001FFF0000000000
000000001FFF0000000000
000000001FFF0000000000
ENDCHAR
STARTCHAR brokenbar
ENCODING 166
SWIDTH 297 0
DWIDTH 33 0
BBX 9 102 12 -10
BITMAP
FF80
FF80
FF80
FF80
FF80
FF80
FF80
FF80
FF80
FF80
FF80
FF80
FF80
FF80
FF80
FF80
FF80
FF80
FF80
FF80
FF80
FF80
FF80
FF80
FF80
FF80
FF80
FF80
FF80
FF80
FF80
FF80
FF80
FF80
FF80
FF80
FF80
FF80
FF80
FF80
FF80
FF80
FF80
FF80
FF80
0000
0000
0000
0000
0000
0000
0000
0000
0000
0000
0000
0000
0000
FF80
FF80
FF80
FF80
FF80
FF80
FF80
FF80
FF80
FF80
FF80
FF80
FF80
FF80
FF80
FF80
FF80
FF80
FF80
FF80
FF80
FF80
FF80
FF80
FF80
FF80
FF80
FF80
FF80
FF80
FF80
FF80
FF80
FF80
FF80
FF80
FF80
FF80
FF80
FF80
FF80
FF80
FF80
FF80
ENDCHAR
STARTCHAR section
ENCODING 167
SWIDTH 773 0
DWIDTH 86 0
BBX 74 103 5 -22
BITMAP
00003FFFFFFFFFFF8000
0003FFFFFFFFFFFF8000
000FFFFFFFFFFFFF8000
003FFFFFFFFFFFFF8000
00FFFFFFFFFFFFFF8000
01FFFFFFFFFFFFFF8000
03FFFFFFFFFFFFFF8000
07FFFFFFFFFFFFFF8000
0FFFFFFFFFFFFFFF8000
0FFFFFFFFFFFFFFF8000
1FFFFFFFFFFFFFFF8000
3FFFFFFFFFFFFFFF8000
3FFFFFFFFFFFFFFF8000
3FFFFC00000000000000
7FFFE000000000000000
7FFF8000000000000000
7FFF0000000000000000
7FFE0000000000000000
7FFE0000000000000000
FFFC0000000000000000
FFFC0000000000000000
FFFC0000000000000000
FFFC0000000000000000
7FFC0000000000000000
7FFC0000000000000000
7FFC0000000000000000
7FFC0000000000000000
7FFE0000000000000000
3FFF0000000000000000
3FFF0000000000000000
1FFFC000000000000000
1FFFF000000000000000
0FFFFFFFFFFFFF800000
0FFFFFFFFFFFFFF00000
07FFFFFFFFFFFFFE0000
03FFFFFFFFFFFFFF0000
01FFFFFFFFFFFFFF8000
007FFFFFFFFFFFFFC000
003FFFFFFFFFFFFFE000
003FFFFFFFFFFFFFF000
007FFFFFFFFFFFFFF000
00FFFFFFFFFFFFFFF800
01FFFC0000000FFFF800
03FFF000000003FFFC00
03FFE000000000FFFC00
07FFC000000000FFFC00
07FF80000000007FFC00
07FF80000000007FFC00
07FF80000000003FFC00
07FF80000000003FFC00
0FFF80000000003FFC00
0FFF80000000003FFC00
0FFF80000000003FFC00
0FFF80000000003FFC00
0FFF80000000003FFC00
0FFFC0000000007FFC00
07FFC0000000007FF800
07FFE000000000FFF800
07FFF000000001FFF000
07FFFE0000000FFFF000
03FFFFFFFFFFFFFFE000
03FFFFFFFFFFFFFFC000
01FFFFFFFFFFFFFF8000
00FFFFFFFFFFFFFF0000
00FFFFFFFFFFFFFFC000
007FFFFFFFFFFFFFE000
001FFFFFFFFFFFFFF000
000FFFFFFFFFFFFFF800
0003FFFFFFFFFFFFFC00
00003FFFFFFFFFFFFE00
00000000000001FFFE00
000000000000007FFF00
000000000000003FFF80
000000000000001FFF80
000000000000000FFF80
000000000000000FFFC0
000000000000000FFFC0
0000000000000007FFC0
0000000000000007FFC0
0000000000000007FFC0
0000000000000007FFC0
0000000000000007FFC0
0000000000000007FFC0
000000000000000FFFC0
000000000000000FFFC0
000000000000001FFFC0
000000000000001FFFC0
000000000000007FFFC0
00000000000000FFFF80
00000000000007FFFF80
007FFFFFFFFFFFFFFF80
007FFFFFFFFFFFFFFF00
007FFFFFFFFFFFFFFF00
007FFFFFFFFFFFFFFE00
007FFFFFFFFFFFFFFC00
007FFFFFFFFFFFFFFC00
007FFFFFFFFFFFFFF800
007FFFFFFFFFFFFFF000
007FFFFFFFFFFFFFC000
007FFFFFFFFFFFFF8000
007FFFFFFFFFFFFE0000
007FFFFFFFFFFFF80000
007FFFFFFFFFFF800000
ENDCHAR
STARTCHAR dieresis
ENCODING 168
SWIDTH 393 0
DWIDTH 44 0
BBX 32 10 6 89
BITMAP
1F0001F8
7FC003FC
FFE007FE
FFE007FF
FFE00FFF
FFE00FFF
FFE007FF
FFE007FE
7FC003FC
1F0001F8
ENDCHAR
STARTCHAR copyright
ENCODING 169
SWIDTH 829 0
DWIDTH 92 0
BBX 82 84 5 -3
BITMAP
000000001FFF0000000000
00000003FFFFF000000000
0000001FFFFFFE00000000
000000FFFFFFFFC0000000
000003FFE001FFF0000000
000007FE00000FFC000000
00001FF0000001FE000000
00007F800000007F800000
0000FE000000001FC00000
0001FC0000000007E00000
0003F00000000003F80000
0007E00000000000FC0000
000F8000000000007E0000
001F0000000000003F0000
003E0000000000001F0000
007C0000000000000F8000
00F800000000000007C000
01F000000000000003E000
01F000000000000001E000
03E000000000000001F000
07C000000000000000F800
07C0000000000000007800
0F80000000000000007C00
0F0000000FFFFC00003C00
1F000000FFFFFC00003E00
1E000003FFFFFC00001E00
1E00000FFFFFFC00001F00
3C00001FFFFFFC00000F00
3C00007FF8000000000F00
7C00007FC0000000000780
780000FF00000000000780
780001FE00000000000780
780003FC00000000000780
F80003F8000000000003C0
F00007F0000000000003C0
F00007E0000000000003C0
F00007E0000000000003C0
F00007E0000000000003C0
F0000FC0000000000001C0
F0000FC0000000000001C0
F0000FC0000000000001C0
F0000FC0000000000001C0
F0000FC0000000000001C0
F0000FC0000000000001C0
F0000FC0000000000001C0
F0000FC0000000000001C0
F00007E0000000000003C0
F00007E0000000000003C0
F00007E0000000000003C0
F00003F0000000000003C0
780003F8000000000003C0
780001FC00000000000380
780001FE00000000000780
780000FF00000000000780
3C00007FC0000000000700
3C00003FF8000000000F00
3C00001FFFFFFC00000F00
1E00000FFFFFFC00001E00
1E000003FFFFFC00001E00
1F000000FFFFFC00003E00
0F0000000FFFFC00003C00
0F80000000000000007C00
0780000000000000007800
03C000000000000000F000
03E000000000000001F000
01F000000000000001E000
00F000000000000003E000
00F800000000000007C000
007C0000000000000F8000
003E0000000000001F0000
001F0000000000003E0000
000F8000000000007C0000
0007E00000000000F80000
0003F00000000003F00000
0001FC0000000007E00000
0000FE000000001FC00000
00003F800000007F800000
00001FF0000001FE000000
000007FE00000FF8000000
000003FFE001FFF0000000
0000007FFFFFFFC0000000
0000001FFFFFFE00000000
00000003FFFFF000000000
000000001FFE0000000000
ENDCHAR
STARTCHAR ordfeminine
ENCODING 170
SWIDTH 604 0
DWIDTH 67 0
BBX 59 45 4 34
BITMAP
0000000E00000000
0000003F80000000
0000003F80000000
0000007FC0000000
000000FFC0000000
000000FFE0000000
000001FFF0000000
000001FFF0000000
000003FFF8000000
000007FFF8000000
000007FFFC000000
00000FFFFE000000
00000FF3FE000000
00001FF3FF000000
00003FE1FF000000
00003FE0FF800000
00007FC0FFC00000
00007F807FC00000
0000FF807FE00000
0001FF003FE00000
0001FF001FF00000
0003FE001FF80000
0003FC000FF80000
0007FC000FFC0000
000FF80007FC0000
000FF80003FE0000
001FF00003FF0000
001FE00001FF0000
003FE07FFFFF8000
007FC0FFFFFFC000
007FC0FFFFFFC000
00FF81FFFFFFE000
00FF01FFFFFFE000
01FF03FFFFFFF000
03FE0000001FF000
03FE0000000FF800
07FC0000000FFC00
07F800000007FC00
0FF800000003FE00
1FF000000003FF00
1FF000000001FF00
3FE000000001FF80
3FC000000000FF80
7FC0000000007FC0
FF80000000007FE0
ENDCHAR
STARTCHAR guillemotleft
ENCODING 171
SWIDTH 629 0
DWIDTH 70 0
BBX 60 41 5 21
BITMAP
0000000200000010
0000000E00000070
0000001E000000F0
0000007E000003F0
000001FE00000FF0
000003FE00001FF0
00000FFE00007FF0
00003FFC0001FFE0
00007FF00003FF80
0001FFE0000FFF00
0007FF80003FFC00
000FFE00007FF000
003FF80001FFC000
00FFF00007FF8000
01FFC0000FFE0000
07FF00003FF80000
1FFC0000FFF00000
3FF80001FFC00000
7FE00003FF000000
FF800007FC000000
FE000007F8000000
FF000007F8000000
FFC00007FE000000
3FF00001FF800000
1FF80000FFE00000
07FE00003FF00000
01FF80000FFC0000
00FFE00007FF0000
003FF00001FF8000
000FFC00007FE000
0007FF00003FF800
0001FFC0000FFE00
0000FFE00003FF00
00003FF80001FFC0
00000FFE00007FF0
000007FE00003FF0
000001FE00000FF0
0000007E000003F0
0000003E000001F0
0000000E00000070
0000000200000010
ENDCHAR
STARTCHAR registered
ENCODING 174
SWIDTH 585 0
DWIDTH 65 0
BBX 51 51 7 30
BITMAP
00000FFE000000
00007FFFC00000
0003FFFFF00000
0007FFFFFC0000
001FF803FF0000
003FC0007F8000
00FF00001FC000
01FC000007F000
03F0000003F000
03E0000000F800
07C00000007C00
0F800000003E00
0F000000003E00
1F000000001F00
3E03FFFF800F00
3C03FFFFE00F80
3C03FFFFF00780
7803FFFFF007C0
7803C000F803C0
7803C0007803C0
F003C0007803C0
F003C0003803E0
F003C0003C01E0
F003C0007801E0
F003C0007801E0
F003C000F801E0
F003C3FFF001E0
F003C3FFF001E0
F003C3FFE001E0
F003C3FF8003E0
F003C007C003C0
7803C003E003C0
7803C001F003C0
7803C000FC07C0
3C03C0007E0780
3C000000010F80
3E000000000F80
1F000000001F00
1F000000003E00
0F800000003E00
07C00000007C00
03E0000000F800
03F0000001F000
01FC000007F000
00FE00001FC000
003F80007F8000
001FF803FF0000
000FFFFFFC0000
0003FFFFF00000
00007FFFC00000
00000FFE000000
ENDCHAR
STARTCHAR macron
ENCODING 175
SWIDTH 362 0
DWIDTH 40 0
BBX 28 6 6 90
BITMAP
FFFFFFF0
FFFFFFF0
FFFFFFF0
FFFFFFF0
FFFFFFF0
FFFFFFF0
ENDCHAR
STARTCHAR degree
ENCODING 176
SWIDTH 361 0
DWIDTH 40 0
BBX 30 30 5 51
BITMAP
003FF000
01FFFE00
07FFFF80
0FFFFFC0
1FFFFFE0
3FFFFFF0
7FE01FF8
7F8007F8
7F0003F8
FE0001FC
FE0001FC
FC0000FC
FC0000FC
FC0000FC
FC0000FC
FC0000FC
FC0000FC
FC0000FC
FC0000FC
FE0001FC
FE0001FC
7F0003F8
7F8007F8
7FE01FF8
3FFFFFF0
1FFFFFE0
0FFFFFC0
07FFFF80
01FFFE00
003FF000
ENDCHAR
STARTCHAR plusminus
ENCODING 177
SWIDTH 690 0
DWIDTH 77 0
BBX 63 78 7 -5
BITMAP
0000001FF0000000
0000001FF0000000
0000001FF0000000
0000001FF0000000
0000001FF0000000
0000001FF0000000
0000001FF0000000
0000001FF0000000
0000001FF0000000
0000001FF0000000
0000001FF0000000
0000001FF0000000
0000001FF0000000
0000001FF0000000
0000001FF0000000
0000001FF0000000
0000001FF0000000
0000001FF0000000
0000001FF0000000
0000001FF0000000
0000001FF0000000
0000001FF0000000
0000001FF0000000
0000001FF0000000
0000001FF0000000
0000001FF0000000
0000001FF0000000
FFFFFFFFFFFFFFFE
FFFFFFFFFFFFFFFE
FFFFFFFFFFFFFFFE
FFFFFFFFFFFFFFFE
FFFFFFFFFFFFFFFE
FFFFFFFFFFFFFFFE
FFFFFFFFFFFFFFFE
FFFFFFFFFFFFFFFE
FFFFFFFFFFFFFFFE
0000001FF0000000
0000001FF0000000
0000001FF0000000
0000001FF0000000
0000001FF0000000
0000001FF0000000
0000001FF0000000
0000001FF0000000
0000001FF0000000
0000001FF0000000
0000001FF0000000
0000001FF0000000
0000001FF0000000
0000001FF0000000
0000001FF0000000
0000001FF0000000
0000001FF0000000
0000001FF0000000
0000001FF0000000
0000001FF0000000
0000001FF0000000
0000001FF0000000
0000001FF0000000
0000001FF0000000
0000001FF0000000
0000001FF0000000
0000001FF0000000
0000000000000000
0000000000000000
0000000000000000
0000000000000000
0000000000000000
0000000000000000
FFFFFFFFFFFFFFFE
FFFFFFFFFFFFFFFE
FFFFFFFFFFFFFFFE
FFFFFFFFFFFFFFFE
FFFFFFFFFFFFFFFE
FFFFFFFFFFFFFFFE
FFFFFFFFFFFFFFFE
FFFFFFFFFFFFFFFE
FFFFFFFFFFFFFFFE
ENDCHAR
STARTCHAR twosuperior
ENCODING 178
SWIDTH 442 0
DWIDTH 49 0
BBX 40 40 5 42
BITMAP
FFFFFFFF00
FFFFFFFFC0
FFFFFFFFF0
FFFFFFFFF8
FFFFFFFFFC
FFFFFFFFFC
FFFFFFFFFE
00000003FE
00000001FE
00000000FE
00000000FF
00000000FF
00000000FE
00000000FE
00000001FE
00000003FE
00FFFFFFFC
07FFFFFFF8
0FFFFFFFF8
1FFFFFFFF0
3FFFFFFFC0
7FFFFFFF00
7FC0000000
7F00000000
FE00000000
FE00000000
FE00000000
FE00000000
FE00000000
FE00000000
FE00000000
FE00000000
FE00000000
FFFFFFFFFE
FFFFFFFFFE
FFFFFFFFFE
FFFFFFFFFE
FFFFFFFFFE
FFFFFFFFFE
FFFFFFFFFE
ENDCHAR
STARTCHAR threesuperior
ENCODING 179
SWIDTH 443 0
DWIDTH 49 0
BBX 41 40 4 42
BITMAP
FFFFFFFF0000
FFFFFFFFE000
FFFFFFFFF800
FFFFFFFFFC00
FFFFFFFFFE00
FFFFFFFFFE00
FFFFFFFFFF00
00000003FF00
00000000FF00
000000007F00
000000007F00
000000007F00
000000007F00
000000007F00
00000000FE00
00000003FC00
003FFFFFFC00
003FFFFFF000
003FFFFFE000
003FFFFFF800
003FFFFFFC00
003FFFFFFE00
00000001FF00
00000000FF00
000000007F00
000000007F80
000000003F80
000000003F80
000000003F80
000000007F80
000000007F80
00000000FF00
00000007FF00
FFFFFFFFFF00
FFFFFFFFFE00
FFFFFFFFFC00
FFFFFFFFF800
FFFFFFFFF000
FFFFFFFFE000
FFFFFFFF0000
ENDCHAR
STARTCHAR acute
ENCODING 180
SWIDTH 362 0
DWIDTH 40 0
BBX 28 15 6 86
BITMAP
00000010
000000F0
00000FF0
00007FF0
0003FFF0
003FFFF0
01FFFFF0
0FFFFFF0
FFFFFFF0
FFFFFF80
FFFFF800
FFFF0000
FFE00000
FE000000
C0000000
ENDCHAR
STARTCHAR paragraph
ENCODING 182
SWIDTH 629 0
DWIDTH 70 0
BBX 58 93 5 -12
BITMAP
0007FFFFFFFFFFC0
003FFFFFFFFFFFC0
00FFFFFFFFFFFFC0
01FFFFFFFFFFFFC0
07FFFFFFFFFFFFC0
0FFFFFFFFFFFFFC0
0FFFFFFFFFFFFFC0
1FFFFFFFFFFFFFC0
3FFFFFFFFFFFFFC0
3FFFFFFFE0007FC0
7FFFFFFFE0007FC0
7FFFFFFFE0007FC0
7FFFFFFFE0007FC0
FFFFFFFFE0007FC0
FFFFFFFFE0007FC0
FFFFFFFFE0007FC0
FFFFFFFFE0007FC0
FFFFFFFFE0007FC0
FFFFFFFFE0007FC0
FFFFFFFFE0007FC0
FFFFFFFFE0007FC0
FFFFFFFFE0007FC0
FFFFFFFFE0007FC0
7FFFFFFFE0007FC0
7FFFFFFFE0007FC0
7FFFFFFFE0007FC0
7FFFFFFFE0007FC0
3FFFFFFFE0007FC0
3FFFFFFFE0007FC0
1FFFFFFFE0007FC0
0FFFFFFFE0007FC0
0FFFFFFFE0007FC0
07FFFFFFE0007FC0
01FFFFFFE0007FC0
00FFFFFFE0007FC0
003FFFFFE0007FC0
0007FFFFE0007FC0
0000003FE0007FC0
0000003FE0007FC0
0000003FE0007FC0
0000003FE0007FC0
0000003FE0007FC0
0000003FE0007FC0
0000003FE0007FC0
0000003FE0007FC0
0000003FE0007FC0
0000003FE0007FC0
0000003FE0007FC0
0000003FE0007FC0
0000003FE0007FC0
0000003FE0007FC0
0000003FE0007FC0
0000003FE0007FC0
0000003FE0007FC0
0000003FE0007FC0
0000003FE0007FC0
0000003FE0007FC0
0000003FE0007FC0
0000003FE0007FC0
0000003FE0007FC0
0000003FE0007FC0
0000003FE0007FC0
0000003FE0007FC0
0000003FE0007FC0
0000003FE0007FC0
0000003FE0007FC0
0000003FE0007FC0
0000003FE0007FC0
0000003FE0007FC0
0000003FE0007FC0
0000003FE0007FC0
0000003FE0007FC0
0000003FE0007FC0
0000003FE0007FC0
0000003FE0007FC0
0000003FE0007FC0
0000003FE0007FC0
0000003FE0007FC0
0000003FE0007FC0
0000003FE0007FC0
0000003FE0007FC0
0000003FE0007FC0
0000003FE0007FC0
0000003FE0007FC0
0000003FE0007FC0
0000003FE0007FC0
0000003FE0007FC0
0000003FE0007FC0
0000003FE0007FC0
0000003FE0007FC0
0000003FE0007FC0
0000003FE0007FC0
0000003FE0007FC0
ENDCHAR
STARTCHAR periodcentered
ENCODING 183
SWIDTH 262 0
DWIDTH 29 0
BBX 15 15 7 33
BITMAP
07C0
1FF0
3FF8
7FFC
7FFE
FFFE
FFFE
FFFE
FFFE
FFFE
7FFE
7FFC
3FF8
1FF0
07C0
ENDCHAR
STARTCHAR cedilla
ENCODING 184
SWIDTH 219 0
DWIDTH 24 0
BBX 15 17 5 -22
BITMAP
FFFE
FFFC
7FF8
7FF8
3FF8
3FF0
1FF0
1FE0
1FE0
0FC0
0FC0
07C0
0780
0380
0300
0300
0100
ENDCHAR
STARTCHAR onesuperior
ENCODING 185
SWIDTH 222 0
DWIDTH 25 0
BBX 17 41 3 41
BITMAP
FF0000
FFE000
FFF000
FFF800
FFFC00
FFFE00
FFFE00
01FF00
00FF00
007F00
007F00
007F00
003F80
003F80
003F80
003F80
003F80
003F80
003F80
003F80
003F80
003F80
003F80
003F80
003F80
003F80
003F80
003F80
003F80
003F80
003F80
003F80
003F80
003F80
003F80
003F80
003F80
003F80
003F80
003F80
003F80
ENDCHAR
STARTCHAR ordmasculine
ENCODING 186
SWIDTH 592 0
DWIDTH 66 0
BBX 54 45 6 33
BITMAP
0000FFFFF80000
0007FFFFFF8000
001FFFFFFFE000
007FFFFFFFF800
00FFFFFFFFFC00
01FFFFFFFFFE00
03FFFFFFFFFF00
07FFFFFFFFFF80
0FFFC0000FFFC0
1FFE000001FFE0
1FF80000007FE0
3FF00000003FF0
3FE00000001FF0
7FC00000001FF0
7FC00000000FF8
7F8000000007F8
FF8000000007F8
FF0000000003FC
FF0000000003FC
FF0000000003FC
FF0000000003FC
FF0000000003FC
FF0000000003FC
FF0000000003FC
FF0000000003FC
FF0000000003FC
FF0000000003FC
FF0000000007F8
7F8000000007F8
7F8000000007F8
7FC00000000FF8
3FC00000001FF0
3FE00000001FF0
1FF00000003FE0
1FF8000000FFE0
0FFE000001FFC0
0FFFC0000FFF80
07FFFFFFFFFF80
03FFFFFFFFFF00
01FFFFFFFFFE00
00FFFFFFFFFC00
003FFFFFFFF000
001FFFFFFFC000
0007FFFFFF0000
0000FFFFF80000
ENDCHAR
STARTCHAR guillemotright
ENCODING 187
SWIDTH 629 0
DWIDTH 70 0
BBX 60 41 5 21
BITMAP
8000000400000000
C000000600000000
F000000780000000
FC000007E0000000
FE000007F0000000
FF800007FC000000
FFE00007FF000000
7FF00003FF800000
3FFC0001FFE00000
0FFF00007FF80000
03FF80001FFC0000
00FFE00007FF0000
007FF80003FFC000
001FFE0000FFE000
0007FF00003FF800
0001FFC0000FFE00
0000FFF00007FF00
00003FF80001FFC0
00000FFC00007FE0
000003FE00001FF0
000001FE00000FF0
000001FE00000FF0
000007FE00003FF0
00001FF80000FFC0
00007FF00003FF80
0000FFC00007FE00
0003FF00001FF800
000FFE00007FF000
001FF80001FFC000
007FE00003FF0000
01FFC0000FFE0000
07FF00003FF80000
0FFC00007FE00000
3FF80001FFC00000
FFE00007FF000000
FF800007FC000000
FF000007F8000000
FC000007E0000000
F000000780000000
E000000700000000
8000000400000000
ENDCHAR
STARTCHAR onequarter
ENCODING 188
SWIDTH 972 0
DWIDTH 108 0
BBX 98 94 5 -7
BITMAP
0000000000000000007FC00000
000000000000000000FF800000
000000000000000001FF000000
000000000000000003FF000000
000000000000000007FE000000
007F80000000000007FC000000
007FF000000000000FF8000000
007FF800000000001FF8000000
007FFC00000000003FF0000000
007FFE00000000003FE0000000
007FFF00000000007FC0000000
007FFF0000000000FF80000000
0001FF8000000001FF80000000
00007F8000000003FF00000000
00003F8000000003FE00000000
00003F8000000007FC00000000
00003F800000000FFC00000000
00003F800000001FF800000000
00003F800000001FF000000000
00003F800000003FE000000000
00003F800000007FC000000000
00003F80000000FFC000000000
00003F80000001FF8000000000
00003F80000001FF0000000000
00003F80000003FE0000000000
00003F80000007FE0000000000
00003F8000000FFC0000000000
00003F8000000FF80000000000
00003F8000001FF00000000000
00003F8000003FE00000000000
00003F8000007FE00000000000
00003F800000FFC00000000000
00003F800000FF800000000000
00003F800001FF000000000000
00003F800003FF000000000000
00003F800007FE000000000000
00003F80000FFC000000000000
00003F80000FF8000000000000
00003F80001FF0000000000000
00003F80003FF0000000000000
00003F80007FE0000000000000
00003F80007FC0000000000000
00003F8000FF80000000000000
00003F8001FF80000000000000
00003F8003FF00000000000000
00003F8007FE00000000000000
0000000007FC00000000000000
000000000FF800000000000000
000000001FF801FC000007F000
000000003FF001FC000007F000
000000003FE001FC000007F000
000000007FC001FC000007F000
00000000FFC001FC000007F000
00000001FF8001FC000007F000
00000003FF0001FC000007F000
00000003FE0001FC000007F000
00000007FC0001FC000007F000
0000000FFC0001FC000007F000
0000001FF80001FC000007F000
0000001FF00001FC000007F000
0000003FE00001FC000007F000
0000007FE00001FC000007F000
000000FFC00001FC000007F000
000001FF800001FC000007F000
000001FF000001FC000007F000
000003FE000001FC000007F000
000007FE000001FE000007F000
00000FFC000000FE000007F000
00000FF8000000FF000007F000
00001FF0000000FF800007F000
00003FF0000000FFFFFFFFFFC0
00007FE00000007FFFFFFFFFC0
0000FFC00000003FFFFFFFFFC0
0000FF800000003FFFFFFFFFC0
0001FF000000001FFFFFFFFFC0
0003FF0000000007FFFFFFFFC0
0007FE0000000000FFFFFFFFC0
0007FC0000000000000007F000
000FF80000000000000007F000
001FF80000000000000007F000
003FF00000000000000007F000
007FE00000000000000007F000
007FC00000000000000007F000
00FF800000000000000007F000
01FF800000000000000007F000
03FF000000000000000007F000
07FE000000000000000007F000
07FC000000000000000007F000
0FFC0000000000000000000000
1FF80000000000000000000000
3FF00000000000000000000000
3FE00000000000000000000000
7FC00000000000000000000000
FFC00000000000000000000000
ENDCHAR
STARTCHAR onehalf
ENCODING 189
SWIDTH 948 0
DWIDTH 105 0
BBX 96 94 5 -7
BITMAP
0000000000000000007FC000
000000000000000000FF8000
000000000000000001FF0000
000000000000000003FF0000
000000000000000007FE0000
007F80000000000007FC0000
007FF000000000000FF80000
007FF800000000001FF80000
007FFC00000000003FF00000
007FFE00000000003FE00000
007FFF00000000007FC00000
007FFF0000000000FF800000
0001FF8000000001FF800000
00007F8000000003FF000000
00003F8000000003FE000000
00003F8000000007FC000000
00003F800000000FFC000000
00003F800000001FF8000000
00003F800000001FF0000000
00003F800000003FE0000000
00003F800000007FC0000000
00003F80000000FFC0000000
00003F80000001FF80000000
00003F80000001FF00000000
00003F80000003FE00000000
00003F80000007FE00000000
00003F8000000FFC00000000
00003F8000000FF800000000
00003F8000001FF000000000
00003F8000003FE000000000
00003F8000007FE000000000
00003F800000FFC000000000
00003F800000FF8000000000
00003F800001FF0000000000
00003F800003FF0000000000
00003F800007FE0000000000
00003F80000FFC0000000000
00003F80000FF80000000000
00003F80001FF00000000000
00003F80003FF00000000000
00003F80007FE00000000000
00003F80007FC00000000000
00003F8000FF800000000000
00003F8001FF800000000000
00003F8003FF000000000000
00003F8007FE000000000000
0000000007FC000000000000
000000000FF8000000000000
000000001FF800FFFFFFFF00
000000003FF000FFFFFFFFC0
000000003FE000FFFFFFFFF0
000000007FC000FFFFFFFFF8
00000000FFC000FFFFFFFFFC
00000001FF8000FFFFFFFFFC
00000003FF0000FFFFFFFFFE
00000003FE000000000003FE
00000007FC000000000001FE
0000000FFC000000000000FE
0000001FF8000000000000FF
0000001FF0000000000000FF
0000003FE0000000000000FE
0000007FE0000000000000FE
000000FFC0000000000001FE
000001FF80000000000003FE
000001FF00000000FFFFFFFC
000003FE00000007FFFFFFFC
000007FE0000000FFFFFFFF8
00000FFC0000001FFFFFFFF0
00000FF80000003FFFFFFFC0
00001FF00000007FFFFFFE00
00003FF00000007FC0000000
00007FE00000007F00000000
0000FFC0000000FE00000000
0000FF80000000FE00000000
0001FF00000000FE00000000
0003FF00000000FE00000000
0007FE00000000FE00000000
0007FC00000000FE00000000
000FF800000000FE00000000
001FF800000000FE00000000
003FF000000000FE00000000
007FE000000000FFFFFFFFFE
007FC000000000FFFFFFFFFE
00FF8000000000FFFFFFFFFE
01FF8000000000FFFFFFFFFE
03FF0000000000FFFFFFFFFE
07FE0000000000FFFFFFFFFE
07FC0000000000FFFFFFFFFE
0FFC00000000000000000000
1FF800000000000000000000
3FF000000000000000000000
3FE000000000000000000000
7FC000000000000000000000
FFC000000000000000000000
ENDCHAR
STARTCHAR threequarters
ENCODING 190
SWIDTH 1029 0
DWIDTH 114 0
BBX 105 94 5 -7
BITMAP
00000000000000000001FF000000
00000000000000000003FF000000
00000000000000000007FE000000
00000000000000000007FC000000
0000000000000000000FF8000000
FFFFFFFE00000000001FF0000000
FFFFFFFFC0000000003FF0000000
FFFFFFFFF0000000007FE0000000
FFFFFFFFF8000000007FC0000000
FFFFFFFFFC00000000FF80000000
FFFFFFFFFE00000001FF80000000
FFFFFFFFFE00000003FF00000000
00000007FE00000003FE00000000
00000001FE00000007FC00000000
00000000FF0000000FF800000000
00000000FE0000001FF800000000
00000000FE0000003FF000000000
00000000FE0000003FE000000000
00000000FE0000007FC000000000
00000001FE000000FFC000000000
00000003FC000001FF8000000000
007FFFFFF8000001FF0000000000
007FFFFFF0000003FE0000000000
007FFFFFE0000007FC0000000000
007FFFFFF800000FFC0000000000
007FFFFFFC00001FF80000000000
007FFFFFFE00001FF00000000000
00000003FE00003FE00000000000
00000000FF00007FE00000000000
00000000FF0000FFC00000000000
000000007F0001FF800000000000
000000007F0001FF000000000000
000000007F0003FE000000000000
000000007F0007FE000000000000
000000007F000FFC000000000000
00000000FF000FF8000000000000
00000001FF001FF0000000000000
00000007FE003FF0000000000000
FFFFFFFFFE007FE0000000000000
FFFFFFFFFC00FFC0000000000000
FFFFFFFFFC00FF80000000000000
FFFFFFFFF801FF00000000000000
FFFFFFFFF003FF00000000000000
FFFFFFFFC007FE00000000000000
FFFFFFFE0007FC00000000000000
00000000000FF800000000000000
00000000001FF800000000000000
00000000003FF000000000000000
00000000007FE003F800000FE000
00000000007FC003F800000FE000
0000000000FF8003F800000FE000
0000000001FF8003F800000FE000
0000000003FF0003F800000FE000
0000000003FE0003F800000FE000
0000000007FC0003F800000FE000
000000000FFC0003F800000FE000
000000001FF80003F800000FE000
000000003FF00003F800000FE000
000000003FE00003F800000FE000
000000007FC00003F800000FE000
00000000FFC00003F800000FE000
00000001FF800003F800000FE000
00000001FF000003F800000FE000
00000003FE000003F800000FE000
00000007FE000003F800000FE000
0000000FFC000003F800000FE000
0000001FF8000003F800000FE000
0000001FF0000003F800000FE000
0000003FE0000003FC00000FE000
0000007FE0000003FF00000FE000
000000FFC0000001FFFFFFFFFF80
000000FF80000001FFFFFFFFFF80
000001FF00000000FFFFFFFFFF80
000003FF000000007FFFFFFFFF80
000007FE000000003FFFFFFFFF80
00000FFC000000001FFFFFFFFF80
00000FF80000000003FFFFFFFF80
00001FF0000000000000000FE000
00003FF0000000000000000FE000
00007FE0000000000000000FE000
0000FFC0000000000000000FE000
0000FF80000000000000000FE000
0001FF80000000000000000FE000
0003FF00000000000000000FE000
0007FE00000000000000000FE000
0007FC00000000000000000FE000
000FF800000000000000000FE000
001FF800000000000000000FE000
003FF00000000000000000000000
007FE00000000000000000000000
007FC00000000000000000000000
00FFC00000000000000000000000
01FF800000000000000000000000
03FF000000000000000000000000
ENDCHAR
STARTCHAR questiondown
ENCODING 191
SWIDTH 776 0
DWIDTH 86 0
BBX 78 81 3 0
BITMAP
0000000000000007C000
000000000000001FF000
000000000000003FF800
000000000000007FFC00
000000000000007FFE00
00000000000000FFFE00
00000000000000FFFE00
00000000000000FFFE00
00000000000000FFFE00
00000000000000FFFE00
000000000000007FFE00
000000000000007FFC00
000000000000003FF800
000000000000001FF000
0000000000000007E000
00000000000000000000
00000000000000000000
00000000000000000000
00000000000000000000
00000000000000000000
00000000000000000000
00000000000000000000
00000000000000000000
00000000000000000000
00000000000000000000
00000000000000000000
00000000000000000000
000000000000007FFC00
000000000000007FFC00
000000000000007FFC00
000000000000007FFC00
000000000000007FFC00
000000000000007FFC00
000000000000007FFC00
00000000000000FFFC00
00000000000001FFFC00
00001FFFFFFFFFFFFC00
0001FFFFFFFFFFFFFC00
000FFFFFFFFFFFFFF800
003FFFFFFFFFFFFFF800
007FFFFFFFFFFFFFF000
00FFFFFFFFFFFFFFF000
03FFFFFFFFFFFFFFE000
03FFFFFFFFFFFFFFC000
07FFFFFFFFFFFFFF8000
0FFFFFFFFFFFFFFE0000
1FFFFFFFFFFFFFF80000
1FFFFFFFFFFFFFC00000
3FFFF800000000000000
3FFFE000000000000000
7FFF8000000000000000
7FFF0000000000000000
7FFF0000000000000000
7FFE0000000000000000
FFFE0000000000000000
FFFE0000000000000000
FFFE0000000000000000
FFFE0000000000000000
FFFE0000000000000000
FFFE0000000000000000
FFFE0000000000000000
FFFE0000000000000000
FFFF0000000000000000
7FFF0000000000000000
7FFF8000000000000000
7FFFE000000000000000
7FFFFC00000000000000
3FFFFFFFFFFFFFFFFFFC
3FFFFFFFFFFFFFFFFFFC
1FFFFFFFFFFFFFFFFFFC
1FFFFFFFFFFFFFFFFFFC
0FFFFFFFFFFFFFFFFFFC
0FFFFFFFFFFFFFFFFFFC
07FFFFFFFFFFFFFFFFFC
03FFFFFFFFFFFFFFFFFC
01FFFFFFFFFFFFFFFFFC
007FFFFFFFFFFFFFFFFC
003FFFFFFFFFFFFFFFFC
000FFFFFFFFFFFFFFFFC
0001FFFFFFFFFFFFFFFC
00003FFFFFFFFFFFFFFC
ENDCHAR
STARTCHAR Agrave
ENCODING 192
SWIDTH 989 0
DWIDTH 110 0
BBX 106 101 2 0
BITMAP
0000000018000000000000000000
000000001F000000000000000000
000000001FE00000000000000000
000000001FFE0000000000000000
000000001FFFC000000000000000
000000001FFFF800000000000000
000000001FFFFF80000000000000
000000001FFFFFF0000000000000
000000001FFFFFFE000000000000
0000000003FFFFFF000000000000
00000000001FFFFF000000000000
000000000001FFFF000000000000
0000000000000FFF000000000000
000000000000007F000000000000
0000000000000007000000000000
0000000000000000000000000000
0000000000000000000000000000
0000000000000000000000000000
0000000000000000000000000000
0000000000003E00000000000000
000000000000FF80000000000000
000000000001FFC0000000000000
000000000001FFE0000000000000
000000000003FFF0000000000000
000000000007FFF0000000000000
000000000007FFF8000000000000
00000000000FFFF8000000000000
00000000000FFFFC000000000000
00000000001FFFFE000000000000
00000000003FFFFE000000000000
00000000003FFFFF000000000000
00000000007FFFFF000000000000
00000000007FFFFF800000000000
0000000000FFFFFFC00000000000
0000000001FFFFFFC00000000000
0000000001FFFFFFE00000000000
0000000003FFFFFFE00000000000
0000000003FFFFFFF00000000000
0000000007FFFFFFF80000000000
000000000FFFFFFFF80000000000
000000000FFFF7FFFC0000000000
000000001FFFE3FFFC0000000000
000000001FFFC3FFFE0000000000
000000003FFFC1FFFF0000000000
000000007FFF80FFFF0000000000
000000007FFF80FFFF8000000000
00000000FFFF007FFF8000000000
00000000FFFE007FFFC000000000
00000001FFFE003FFFE000000000
00000003FFFC001FFFE000000000
00000003FFFC001FFFF000000000
00000007FFF8000FFFF000000000
00000007FFF0000FFFF800000000
0000000FFFF00007FFFC00000000
0000001FFFE00003FFFC00000000
0000001FFFE00003FFFE00000000
0000003FFFC00001FFFE00000000
0000003FFF800001FFFF00000000
0000007FFF800000FFFF80000000
000000FFFF0000007FFF80000000
000000FFFF0000007FFFC0000000
000001FFFE0000003FFFC0000000
000001FFFC0000003FFFE0000000
000003FFFC0000001FFFF0000000
000007FFF80000000FFFF0000000
000007FFF80000000FFFF8000000
00000FFFF000000007FFF8000000
00000FFFF000000007FFFC000000
00001FFFE000000003FFFE000000
00003FFFC007FFFFFFFFFE000000
00003FFFC007FFFFFFFFFF000000
00007FFF800FFFFFFFFFFF000000
00007FFF801FFFFFFFFFFF800000
0000FFFF001FFFFFFFFFFFC00000
0001FFFE003FFFFFFFFFFFC00000
0001FFFE003FFFFFFFFFFFE00000
0003FFFC007FFFFFFFFFFFE00000
0003FFFC00FFFFFFFFFFFFF00000
0007FFF800FFFFFFFFFFFFF80000
000FFFF001FFFFFFFFFFFFF80000
000FFFF0000000000007FFFC0000
001FFFE0000000000003FFFC0000
001FFFE0000000000003FFFE0000
003FFFC0000000000001FFFF0000
007FFF80000000000000FFFF0000
007FFF80000000000000FFFF8000
00FFFF000000000000007FFF8000
00FFFF000000000000007FFFC000
01FFFE000000000000003FFFE000
03FFFC000000000000001FFFE000
03FFFC000000000000001FFFF000
07FFF8000000000000000FFFF000
07FFF8000000000000000FFFF800
0FFFF00000000000000007FFFC00
1FFFF00000000000000007FFFC00
1FFFE00000000000000003FFFE00
3FFFC00000000000000001FFFE00
3FFFC00000000000000001FFFF00
7FFF800000000000000000FFFF80
FFFF800000000000000000FFFF80
FFFF0000000000000000007FFFC0
ENDCHAR
STARTCHAR Aacute
ENCODING 193
SWIDTH 989 0
DWIDTH 110 0
BBX 106 101 2 0
BITMAP
0000000000000000040000000000
00000000000000003C0000000000
0000000000000003FC0000000000
000000000000001FFC0000000000
00000000000000FFFC0000000000
0000000000000FFFFC0000000000
0000000000007FFFFC0000000000
000000000003FFFFFC0000000000
00000000003FFFFFFC0000000000
00000000003FFFFFE00000000000
00000000003FFFFE000000000000
00000000003FFFC0000000000000
00000000003FFC00000000000000
00000000003F8000000000000000
0000000000300000000000000000
0000000000000000000000000000
0000000000000000000000000000
0000000000000000000000000000
0000000000000000000000000000
0000000000003E00000000000000
000000000000FF80000000000000
000000000001FFC0000000000000
000000000001FFE0000000000000
000000000003FFF0000000000000
000000000007FFF0000000000000
000000000007FFF8000000000000
00000000000FFFF8000000000000
00000000000FFFFC000000000000
00000000001FFFFE000000000000
00000000003FFFFE000000000000
00000000003FFFFF000000000000
00000000007FFFFF000000000000
00000000007FFFFF800000000000
0000000000FFFFFFC00000000000
0000000001FFFFFFC00000000000
0000000001FFFFFFE00000000000
0000000003FFFFFFE00000000000
0000000003FFFFFFF00000000000
0000000007FFFFFFF80000000000
000000000FFFFFFFF80000000000
000000000FFFF7FFFC0000000000
000000001FFFE3FFFC0000000000
000000001FFFC3FFFE0000000000
000000003FFFC1FFFF0000000000
000000007FFF80FFFF0000000000
000000007FFF80FFFF8000000000
00000000FFFF007FFF8000000000
00000000FFFE007FFFC000000000
00000001FFFE003FFFE000000000
00000003FFFC001FFFE000000000
00000003FFFC001FFFF000000000
00000007FFF8000FFFF000000000
00000007FFF0000FFFF800000000
0000000FFFF00007FFFC00000000
0000001FFFE00003FFFC00000000
0000001FFFE00003FFFE00000000
0000003FFFC00001FFFE00000000
0000003FFF800001FFFF00000000
0000007FFF800000FFFF80000000
000000FFFF0000007FFF80000000
000000FFFF0000007FFFC0000000
000001FFFE0000003FFFC0000000
000001FFFC0000003FFFE0000000
000003FFFC0000001FFFF0000000
000007FFF80000000FFFF0000000
000007FFF80000000FFFF8000000
00000FFFF000000007FFF8000000
00000FFFF000000007FFFC000000
00001FFFE000000003FFFE000000
00003FFFC007FFFFFFFFFE000000
00003FFFC007FFFFFFFFFF000000
00007FFF800FFFFFFFFFFF000000
00007FFF801FFFFFFFFFFF800000
0000FFFF001FFFFFFFFFFFC00000
0001FFFE003FFFFFFFFFFFC00000
0001FFFE003FFFFFFFFFFFE00000
0003FFFC007FFFFFFFFFFFE00000
0003FFFC00FFFFFFFFFFFFF00000
0007FFF800FFFFFFFFFFFFF80000
000FFFF001FFFFFFFFFFFFF80000
000FFFF0000000000007FFFC0000
001FFFE0000000000003FFFC0000
001FFFE0000000000003FFFE0000
003FFFC0000000000001FFFF0000
007FFF80000000000000FFFF0000
007FFF80000000000000FFFF8000
00FFFF000000000000007FFF8000
00FFFF000000000000007FFFC000
01FFFE000000000000003FFFE000
03FFFC000000000000001FFFE000
03FFFC000000000000001FFFF000
07FFF8000000000000000FFFF000
07FFF8000000000000000FFFF800
0FFFF00000000000000007FFFC00
1FFFF00000000000000007FFFC00
1FFFE00000000000000003FFFE00
3FFFC00000000000000001FFFE00
3FFFC00000000000000001FFFF00
7FFF800000000000000000FFFF80
FFFF800000000000000000FFFF80
FFFF0000000000000000007FFFC0
ENDCHAR
STARTCHAR Acircumflex
ENCODING 194
SWIDTH 989 0
DWIDTH 110 0
BBX 106 101 2 0
BITMAP
000000000001FFC0000000000000
000000000001FFE0000000000000
000000000003FFF0000000000000
000000000007FFF0000000000000
000000000007F3F8000000000000
00000000000FE3FC000000000000
00000000001FE1FC000000000000
00000000001FC0FE000000000000
00000000003FC0FF000000000000
00000000007F807F000000000000
00000000007F007F800000000000
0000000000FF003FC00000000000
0000000001FE001FC00000000000
0000000001FC001FE00000000000
0000000003FC000FF00000000000
0000000000000000000000000000
0000000000000000000000000000
0000000000000000000000000000
0000000000000000000000000000
0000000000003E00000000000000
000000000000FF80000000000000
000000000001FFC0000000000000
000000000001FFE0000000000000
000000000003FFF0000000000000
000000000007FFF0000000000000
000000000007FFF8000000000000
00000000000FFFF8000000000000
00000000000FFFFC000000000000
00000000001FFFFE000000000000
00000000003FFFFE000000000000
00000000003FFFFF000000000000
00000000007FFFFF000000000000
00000000007FFFFF800000000000
0000000000FFFFFFC00000000000
0000000001FFFFFFC00000000000
0000000001FFFFFFE00000000000
0000000003FFFFFFE00000000000
0000000003FFFFFFF00000000000
0000000007FFFFFFF80000000000
000000000FFFFFFFF80000000000
000000000FFFF7FFFC0000000000
000000001FFFE3FFFC0000000000
000000001FFFC3FFFE0000000000
000000003FFFC1FFFF0000000000
000000007FFF80FFFF0000000000
000000007FFF80FFFF8000000000
00000000FFFF007FFF8000000000
00000000FFFE007FFFC000000000
00000001FFFE003FFFE000000000
00000003FFFC001FFFE000000000
00000003FFFC001FFFF000000000
00000007FFF8000FFFF000000000
00000007FFF0000FFFF800000000
0000000FFFF00007FFFC00000000
0000001FFFE00003FFFC00000000
0000001FFFE00003FFFE00000000
0000003FFFC00001FFFE00000000
0000003FFF800001FFFF00000000
0000007FFF800000FFFF80000000
000000FFFF0000007FFF80000000
000000FFFF0000007FFFC0000000
000001FFFE0000003FFFC0000000
000001FFFC0000003FFFE0000000
000003FFFC0000001FFFF0000000
000007FFF80000000FFFF0000000
000007FFF80000000FFFF8000000
00000FFFF000000007FFF8000000
00000FFFF000000007FFFC000000
00001FFFE000000003FFFE000000
00003FFFC007FFFFFFFFFE000000
00003FFFC007FFFFFFFFFF000000
00007FFF800FFFFFFFFFFF000000
00007FFF801FFFFFFFFFFF800000
0000FFFF001FFFFFFFFFFFC00000
0001FFFE003FFFFFFFFFFFC00000
0001FFFE003FFFFFFFFFFFE00000
0003FFFC007FFFFFFFFFFFE00000
0003FFFC00FFFFFFFFFFFFF00000
0007FFF800FFFFFFFFFFFFF80000
000FFFF001FFFFFFFFFFFFF80000
000FFFF0000000000007FFFC0000
001FFFE0000000000003FFFC0000
001FFFE0000000000003FFFE0000
003FFFC0000000000001FFFF0000
007FFF80000000000000FFFF0000
007FFF80000000000000FFFF8000
00FFFF000000000000007FFF8000
00FFFF000000000000007FFFC000
01FFFE000000000000003FFFE000
03FFFC000000000000001FFFE000
03FFFC000000000000001FFFF000
07FFF8000000000000000FFFF000
07FFF8000000000000000FFFF800
0FFFF00000000000000007FFFC00
1FFFF00000000000000007FFFC00
1FFFE00000000000000003FFFE00
3FFFC00000000000000001FFFE00
3FFFC00000000000000001FFFF00
7FFF800000000000000000FFFF80
FFFF800000000000000000FFFF80
FFFF0000000000000000007FFFC0
ENDCHAR
STARTCHAR Atilde
ENCODING 195
SWIDTH 989 0
DWIDTH 110 0
BBX 106 98 2 0
BITMAP
00000000001F8000100000000000
0000000000FFF000200000000000
0000000001FFFC00600000000000
0000000001FFFF81E00000000000
0000000001FFFFFFE00000000000
0000000001FFFFFFE00000000000
0000000001E07FFFE00000000000
0000000001800FFFE00000000000
00000000010003FF800000000000
000000000200007E000000000000
0000000000000000000000000000
0000000000000000000000000000
0000000000000000000000000000
0000000000000000000000000000
0000000000000000000000000000
0000000000000000000000000000
0000000000003E00000000000000
000000000000FF80000000000000
000000000001FFC0000000000000
000000000001FFE0000000000000
000000000003FFF0000000000000
000000000007FFF0000000000000
000000000007FFF8000000000000
00000000000FFFF8000000000000
00000000000FFFFC000000000000
00000000001FFFFE000000000000
00000000003FFFFE000000000000
00000000003FFFFF000000000000
00000000007FFFFF000000000000
00000000007FFFFF800000000000
0000000000FFFFFFC00000000000
0000000001FFFFFFC00000000000
0000000001FFFFFFE00000000000
0000000003FFFFFFE00000000000
0000000003FFFFFFF00000000000
0000000007FFFFFFF80000000000
000000000FFFFFFFF80000000000
000000000FFFF7FFFC0000000000
000000001FFFE3FFFC0000000000
000000001FFFC3FFFE0000000000
000000003FFFC1FFFF0000000000
000000007FFF80FFFF0000000000
000000007FFF80FFFF8000000000
00000000FFFF007FFF8000000000
00000000FFFE007FFFC000000000
00000001FFFE003FFFE000000000
00000003FFFC001FFFE000000000
00000003FFFC001FFFF000000000
00000007FFF8000FFFF000000000
00000007FFF0000FFFF800000000
0000000FFFF00007FFFC00000000
0000001FFFE00003FFFC00000000
0000001FFFE00003FFFE00000000
0000003FFFC00001FFFE00000000
0000003FFF800001FFFF00000000
0000007FFF800000FFFF80000000
000000FFFF0000007FFF80000000
000000FFFF0000007FFFC0000000
000001FFFE0000003FFFC0000000
000001FFFC0000003FFFE0000000
000003FFFC0000001FFFF0000000
000007FFF80000000FFFF0000000
000007FFF80000000FFFF8000000
00000FFFF000000007FFF8000000
00000FFFF000000007FFFC000000
00001FFFE000000003FFFE000000
00003FFFC007FFFFFFFFFE000000
00003FFFC007FFFFFFFFFF000000
00007FFF800FFFFFFFFFFF000000
00007FFF801FFFFFFFFFFF800000
0000FFFF001FFFFFFFFFFFC00000
0001FFFE003FFFFFFFFFFFC00000
0001FFFE003FFFFFFFFFFFE00000
0003FFFC007FFFFFFFFFFFE00000
0003FFFC00FFFFFFFFFFFFF00000
0007FFF800FFFFFFFFFFFFF80000
000FFFF001FFFFFFFFFFFFF80000
000FFFF0000000000007FFFC0000
001FFFE0000000000003FFFC0000
001FFFE0000000000003FFFE0000
003FFFC0000000000001FFFF0000
007FFF80000000000000FFFF0000
007FFF80000000000000FFFF8000
00FFFF000000000000007FFF8000
00FFFF000000000000007FFFC000
01FFFE000000000000003FFFE000
03FFFC000000000000001FFFE000
03FFFC000000000000001FFFF000
07FFF8000000000000000FFFF000
07FFF8000000000000000FFFF800
0FFFF00000000000000007FFFC00
1FFFF00000000000000007FFFC00
1FFFE00000000000000003FFFE00
3FFFC00000000000000001FFFE00
3FFFC00000000000000001FFFF00
7FFF800000000000000000FFFF80
FFFF800000000000000000FFFF80
FFFF0000000000000000007FFFC0
ENDCHAR
STARTCHAR Adieresis
ENCODING 196
SWIDTH 989 0
DWIDTH 110 0
BBX 106 99 2 0
BITMAP
0000000000F80007C00000000000
0000000003FE001FE00000000000
0000000003FF003FF00000000000
0000000007FF003FF80000000000
0000000007FF007FF80000000000
0000000007FF003FF80000000000
0000000007FF003FF80000000000
0000000003FF003FF00000000000
0000000003FE001FE00000000000
0000000000F80007C00000000000
0000000000000000000000000000
0000000000000000000000000000
0000000000000000000000000000
0000000000000000000000000000
0000000000000000000000000000
0000000000000000000000000000
0000000000000000000000000000
0000000000003E00000000000000
000000000000FF80000000000000
000000000001FFC0000000000000
000000000001FFE0000000000000
000000000003FFF0000000000000
000000000007FFF0000000000000
000000000007FFF8000000000000
00000000000FFFF8000000000000
00000000000FFFFC000000000000
00000000001FFFFE000000000000
00000000003FFFFE000000000000
00000000003FFFFF000000000000
00000000007FFFFF000000000000
00000000007FFFFF800000000000
0000000000FFFFFFC00000000000
0000000001FFFFFFC00000000000
0000000001FFFFFFE00000000000
0000000003FFFFFFE00000000000
0000000003FFFFFFF00000000000
0000000007FFFFFFF80000000000
000000000FFFFFFFF80000000000
000000000FFFF7FFFC0000000000
000000001FFFE3FFFC0000000000
000000001FFFC3FFFE0000000000
000000003FFFC1FFFF0000000000
000000007FFF80FFFF0000000000
000000007FFF80FFFF8000000000
00000000FFFF007FFF8000000000
00000000FFFE007FFFC000000000
00000001FFFE003FFFE000000000
00000003FFFC001FFFE000000000
00000003FFFC001FFFF000000000
00000007FFF8000FFFF000000000
00000007FFF0000FFFF800000000
0000000FFFF00007FFFC00000000
0000001FFFE00003FFFC00000000
0000001FFFE00003FFFE00000000
0000003FFFC00001FFFE00000000
0000003FFF800001FFFF00000000
0000007FFF800000FFFF80000000
000000FFFF0000007FFF80000000
000000FFFF0000007FFFC0000000
000001FFFE0000003FFFC0000000
000001FFFC0000003FFFE0000000
000003FFFC0000001FFFF0000000
000007FFF80000000FFFF0000000
000007FFF80000000FFFF8000000
00000FFFF000000007FFF8000000
00000FFFF000000007FFFC000000
00001FFFE000000003FFFE000000
00003FFFC007FFFFFFFFFE000000
00003FFFC007FFFFFFFFFF000000
00007FFF800FFFFFFFFFFF000000
00007FFF801FFFFFFFFFFF800000
0000FFFF001FFFFFFFFFFFC00000
0001FFFE003FFFFFFFFFFFC00000
0001FFFE003FFFFFFFFFFFE00000
0003FFFC007FFFFFFFFFFFE00000
0003FFFC00FFFFFFFFFFFFF00000
0007FFF800FFFFFFFFFFFFF80000
000FFFF001FFFFFFFFFFFFF80000
000FFFF0000000000007FFFC0000
001FFFE0000000000003FFFC0000
001FFFE0000000000003FFFE0000
003FFFC0000000000001FFFF0000
007FFF80000000000000FFFF0000
007FFF80000000000000FFFF8000
00FFFF000000000000007FFF8000
00FFFF000000000000007FFFC000
01FFFE000000000000003FFFE000
03FFFC000000000000001FFFE000
03FFFC000000000000001FFFF000
07FFF8000000000000000FFFF000
07FFF8000000000000000FFFF800
0FFFF00000000000000007FFFC00
1FFFF00000000000000007FFFC00
1FFFE00000000000000003FFFE00
3FFFC00000000000000001FFFE00
3FFFC00000000000000001FFFF00
7FFF800000000000000000FFFF80
FFFF800000000000000000FFFF80
FFFF0000000000000000007FFFC0
ENDCHAR
STARTCHAR Aring
ENCODING 197
SWIDTH 989 0
DWIDTH 110 0
BBX 106 108 2 0
BITMAP
000000000003FFE0000000000000
00000000000FFFFC000000000000
00000000003FFFFE000000000000
00000000007FFFFF000000000000
0000000000FE001F800000000000
0000000000F8000FC00000000000
0000000001F00007C00000000000
0000000001F00003E00000000000
0000000001E00003E00000000000
0000000001E00001E00000000000
0000000001E00001E00000000000
0000000001E00001E00000000000
0000000001E00001E00000000000
0000000001E00003E00000000000
0000000001F00003C00000000000
0000000000F00007C00000000000
0000000000F8000FC00000000000
00000000007E001F800000000000
00000000007FFFFF000000000000
00000000001FFFFE000000000000
00000000000FFFFC000000000000
000000000003FFE0000000000000
0000000000000000000000000000
0000000000000000000000000000
0000000000000000000000000000
0000000000000000000000000000
0000000000003E00000000000000
000000000000FF80000000000000
000000000001FFC0000000000000
000000000001FFE0000000000000
000000000003FFF0000000000000
000000000007FFF0000000000000
000000000007FFF8000000000000
00000000000FFFF8000000000000
00000000000FFFFC000000000000
00000000001FFFFE000000000000
00000000003FFFFE000000000000
00000000003FFFFF000000000000
00000000007FFFFF000000000000
00000000007FFFFF800000000000
0000000000FFFFFFC00000000000
0000000001FFFFFFC00000000000
0000000001FFFFFFE00000000000
0000000003FFFFFFE00000000000
0000000003FFFFFFF00000000000
0000000007FFFFFFF80000000000
000000000FFFFFFFF80000000000
000000000FFFF7FFFC0000000000
000000001FFFE3FFFC0000000000
000000001FFFC3FFFE0000000000
000000003FFFC1FFFF0000000000
000000007FFF80FFFF0000000000
000000007FFF80FFFF8000000000
00000000FFFF007FFF8000000000
00000000FFFE007FFFC000000000
00000001FFFE003FFFE000000000
00000003FFFC001FFFE000000000
00000003FFFC001FFFF000000000
00000007FFF8000FFFF000000000
00000007FFF0000FFFF800000000
0000000FFFF00007FFFC00000000
0000001FFFE00003FFFC00000000
0000001FFFE00003FFFE00000000
0000003FFFC00001FFFE00000000
0000003FFF800001FFFF00000000
0000007FFF800000FFFF80000000
000000FFFF0000007FFF80000000
000000FFFF0000007FFFC0000000
000001FFFE0000003FFFC0000000
000001FFFC0000003FFFE0000000
000003FFFC0000001FFFF0000000
000007FFF80000000FFFF0000000
000007FFF80000000FFFF8000000
00000FFFF000000007FFF8000000
00000FFFF000000007FFFC000000
00001FFFE000000003FFFE000000
00003FFFC007FFFFFFFFFE000000
00003FFFC007FFFFFFFFFF000000
00007FFF800FFFFFFFFFFF000000
00007FFF801FFFFFFFFFFF800000
0000FFFF001FFFFFFFFFFFC00000
0001FFFE003FFFFFFFFFFFC00000
0001FFFE003FFFFFFFFFFFE00000
0003FFFC007FFFFFFFFFFFE00000
0003FFFC00FFFFFFFFFFFFF00000
0007FFF800FFFFFFFFFFFFF80000
000FFFF001FFFFFFFFFFFFF80000
000FFFF0000000000007FFFC0000
001FFFE0000000000003FFFC0000
001FFFE0000000000003FFFE0000
003FFFC0000000000001FFFF0000
007FFF80000000000000FFFF0000
007FFF80000000000000FFFF8000
00FFFF000000000000007FFF8000
00FFFF000000000000007FFFC000
01FFFE000000000000003FFFE000
03FFFC000000000000001FFFE000
03FFFC000000000000001FFFF000
07FFF8000000000000000FFFF000
07FFF8000000000000000FFFF800
0FFFF00000000000000007FFFC00
1FFFF00000000000000007FFFC00
1FFFE00000000000000003FFFE00
3FFFC00000000000000001FFFE00
3FFFC00000000000000001FFFF00
7FFF800000000000000000FFFF80
FFFF800000000000000000FFFF80
FFFF0000000000000000007FFFC0
ENDCHAR
ENDFONT
